<?xml version="1.0" encoding="UTF-8"?>
<svg id="Layer_1" data-name="Layer 1" xmlns="http://www.w3.org/2000/svg" version="1.1" viewBox="0 0 841.89 595.28">
  <defs>
    <style>
      .cls-1 {
        fill: none;
      }

      .cls-1, .cls-2 {
        stroke-width: 0px;
      }

      .cls-2 {
        fill: #fff;
      }
    </style>
  </defs>
  <rect class="cls-2" x="329.13" y="310.5" width="225" height="1.35"/>
  <g>
    <path class="cls-2" d="M343.24,338.11v7.6h15.36v6.78h-15.36v13.87h-6.59v-35.03h23.55v6.78h-16.96Z"/>
    <path class="cls-2" d="M384.65,350.6v15.76h-6.28v-2.65c-1.65,2.14-4.27,3.26-6.77,3.26-4.9,0-8.68-3.37-8.68-8.41s4.23-8.77,9.57-8.77c1.87,0,3.92.46,5.88,1.33v-.51c0-2.8-1.51-5.25-5.3-5.25-2.14,0-4.14.82-5.97,1.89l-2.18-4.95c3.25-1.89,6.41-2.91,9.62-2.91,6.01,0,10.11,4.33,10.11,11.22ZM378.38,358.04v-2.45c-1.47-.61-3.16-.97-4.94-.97-2.36,0-4.23,1.58-4.23,3.72s1.65,3.47,3.87,3.47c2.49,0,4.85-1.33,5.3-3.77Z"/>
    <path class="cls-2" d="M388.4,353.15c0-7.5,5.79-13.77,12.6-13.77,3.74,0,6.81,1.73,9.04,4.49l-4.32,4.23c-1.16-1.48-2.98-2.45-4.76-2.45-3.38,0-6.23,3.42-6.23,7.45s2.85,7.6,6.28,7.6c1.78,0,3.65-1.02,4.85-2.55l4.32,4.18c-2.27,2.86-5.39,4.64-9.22,4.64-6.81,0-12.56-6.32-12.56-13.82Z"/>
    <path class="cls-2" d="M435.42,339.99v26.36h-6.5v-3.31c-1.38,2.4-3.96,3.93-6.95,3.93-4.99,0-8.55-4.23-8.55-10.2v-16.78h6.28v15.2c0,3.26,1.78,5.51,4.36,5.51,2.72,0,4.81-2.24,4.81-5.1l.04.15v-15.76h6.5Z"/>
    <path class="cls-2" d="M440.54,330.71h6.5v35.65h-6.5v-35.65Z"/>
    <path class="cls-2" d="M465.92,364.67c-1.34,1.38-3.43,2.29-5.3,2.29-4.05,0-6.9-3.32-6.9-8.06v-12.9h-3.16v-6.02h3.16v-7.24h6.23v7.24h4.99v6.02h-4.99v11.73c0,1.73.98,2.96,2.18,2.96.89,0,1.78-.36,2.23-.87l1.56,4.84Z"/>
    <path class="cls-2" d="M469,373.9l1.38-5.1c1.11.71,2.27,1.17,3.03,1.17,1.25,0,2.23-.46,2.72-1.43l.8-1.94-9.57-26.62h6.72l6.05,18.51,5.74-18.51h6.63l-9.44,27.69c-1.74,5.15-4.67,7.85-8.28,7.85-1.91,0-4.23-.66-5.79-1.63Z"/>
    <path class="cls-2" d="M506.53,353.15c0-7.5,5.74-13.77,12.6-13.77s12.51,6.27,12.51,13.77-5.7,13.82-12.51,13.82-12.6-6.32-12.6-13.82ZM525.46,353.15c0-4.08-2.89-7.5-6.32-7.5s-6.37,3.42-6.37,7.5,2.89,7.55,6.37,7.55,6.32-3.47,6.32-7.55Z"/>
    <path class="cls-2" d="M543.31,339.99h4.99v6.02h-4.99v20.35h-6.23v-20.35h-3.16v-6.02h3.16v-2.29c0-4.74,2.85-8.06,6.9-8.06,1.87,0,3.96.92,5.3,2.29l-1.56,4.54c-.45-.51-1.34-.87-2.23-.87-1.2,0-2.18,1.22-2.18,2.96v1.43Z"/>
    <path class="cls-2" d="M266.79,424.85h-13.62l-1.96,5.51h-7.35l12.47-35.03h7.35l12.47,35.03h-7.39l-1.96-5.51ZM264.51,418.48l-4.54-12.8-4.54,12.8h9.08Z"/>
    <path class="cls-2" d="M302.81,394.71v35.65h-6.5v-3.77c-1.83,2.75-4.5,4.39-7.75,4.39-6.14,0-10.6-5.71-10.6-13.82s4.45-13.77,10.6-13.77c3.25,0,5.92,1.63,7.75,4.39v-13.05h6.5ZM296.31,417.15c0-4.38-2.45-7.5-5.88-7.5-3.61,0-6.14,3.11-6.14,7.5s2.54,7.55,6.14,7.55,5.88-3.11,5.88-7.55Z"/>
    <path class="cls-2" d="M305.79,403.99h6.81l6.19,17.8,6.06-17.8h6.77l-9.84,26.36h-6.01l-9.97-26.36Z"/>
    <path class="cls-2" d="M353.48,414.6v15.76h-6.28v-2.65c-1.65,2.14-4.27,3.26-6.77,3.26-4.9,0-8.68-3.37-8.68-8.41s4.23-8.77,9.57-8.77c1.87,0,3.92.46,5.88,1.33v-.51c0-2.8-1.51-5.25-5.3-5.25-2.14,0-4.14.82-5.97,1.89l-2.18-4.95c3.25-1.89,6.41-2.91,9.62-2.91,6.01,0,10.11,4.33,10.11,11.22ZM347.21,422.04v-2.45c-1.47-.61-3.16-.97-4.94-.97-2.36,0-4.23,1.58-4.23,3.72s1.65,3.47,3.87,3.47c2.49,0,4.85-1.33,5.3-3.77Z"/>
    <path class="cls-2" d="M380.38,413.58v16.78h-6.28v-15.2c0-3.26-1.78-5.51-4.36-5.51-2.72,0-4.81,2.24-4.81,5.1l-.04-.15v15.76h-6.5v-26.36h6.5v3.31c1.38-2.4,3.96-3.93,6.95-3.93,4.99,0,8.55,4.23,8.55,10.2Z"/>
    <path class="cls-2" d="M384.12,417.15c0-7.5,5.79-13.77,12.6-13.77,3.74,0,6.81,1.73,9.04,4.49l-4.32,4.23c-1.16-1.48-2.98-2.45-4.76-2.45-3.38,0-6.23,3.42-6.23,7.45s2.85,7.6,6.28,7.6c1.78,0,3.65-1.02,4.85-2.55l4.32,4.18c-2.27,2.86-5.39,4.64-9.22,4.64-6.81,0-12.56-6.32-12.56-13.82Z"/>
    <path class="cls-2" d="M425.53,422.04l4.14,4.84c-2.05,2.45-6.01,4.08-9.4,4.08-6.86,0-12.2-5.76-12.2-13.87s5.12-13.72,11.84-13.72c7.21,0,11.44,6.27,11.44,16.22h-16.61c.76,2.86,2.76,4.79,5.48,4.79,1.82,0,4.05-.97,5.3-2.35ZM414.85,414.24h10.28c-.62-2.6-2.32-4.28-4.94-4.28-2.45,0-4.5,1.63-5.34,4.28Z"/>
    <path class="cls-2" d="M459.02,394.71v35.65h-6.5v-3.77c-1.83,2.75-4.5,4.39-7.75,4.39-6.14,0-10.6-5.71-10.6-13.82s4.45-13.77,10.6-13.77c3.25,0,5.92,1.63,7.75,4.39v-13.05h6.5ZM452.52,417.15c0-4.38-2.45-7.5-5.88-7.5-3.61,0-6.14,3.11-6.14,7.5s2.54,7.55,6.14,7.55,5.88-3.11,5.88-7.55Z"/>
    <path class="cls-2" d="M474.43,425.16l3.78-5.15c2.89,2.86,6.19,4.59,10.06,4.59,3.29,0,4.99-1.73,4.99-3.93,0-2.5-1.78-3.26-6.46-4.49-6.46-1.68-11.04-3.77-11.04-10.56s4.63-10.91,11.31-10.91c4.99,0,8.86,1.79,11.98,4.84l-3.43,5.41c-2.72-2.5-5.79-3.88-8.73-3.88s-4.5,1.68-4.5,3.77c0,2.55,1.83,3.37,6.54,4.59,6.59,1.68,10.95,3.93,10.95,10.4s-4.41,11.12-11.89,11.12c-5.3,0-10.02-2.04-13.58-5.81Z"/>
    <path class="cls-2" d="M502.7,417.15c0-7.5,5.79-13.77,12.6-13.77,3.74,0,6.81,1.73,9.04,4.49l-4.32,4.23c-1.16-1.48-2.98-2.45-4.76-2.45-3.38,0-6.23,3.42-6.23,7.45s2.85,7.6,6.28,7.6c1.78,0,3.65-1.02,4.85-2.55l4.32,4.18c-2.27,2.86-5.39,4.64-9.22,4.64-6.81,0-12.56-6.32-12.56-13.82Z"/>
    <path class="cls-2" d="M527.64,396.29c0-2.09,1.56-3.98,3.56-3.98s3.47,1.89,3.47,3.98c0,2.24-1.56,4.08-3.47,4.08s-3.56-1.83-3.56-4.08ZM527.91,403.99h6.5v26.36h-6.5v-26.36Z"/>
    <path class="cls-2" d="M555.78,422.04l4.14,4.84c-2.05,2.45-6.01,4.08-9.4,4.08-6.86,0-12.2-5.76-12.2-13.87s5.12-13.72,11.84-13.72c7.21,0,11.44,6.27,11.44,16.22h-16.61c.76,2.86,2.76,4.79,5.48,4.79,1.83,0,4.05-.97,5.3-2.35ZM545.09,414.24h10.29c-.62-2.6-2.32-4.28-4.94-4.28-2.45,0-4.5,1.63-5.34,4.28Z"/>
    <path class="cls-2" d="M587.44,413.58v16.78h-6.28v-15.2c0-3.26-1.78-5.51-4.36-5.51-2.72,0-4.81,2.24-4.81,5.1l-.04-.15v15.76h-6.5v-26.36h6.5v3.31c1.38-2.4,3.96-3.93,6.95-3.93,4.99,0,8.55,4.23,8.55,10.2Z"/>
    <path class="cls-2" d="M591.18,417.15c0-7.5,5.79-13.77,12.6-13.77,3.74,0,6.81,1.73,9.04,4.49l-4.32,4.23c-1.16-1.48-2.98-2.45-4.76-2.45-3.38,0-6.23,3.42-6.23,7.45s2.85,7.6,6.28,7.6c1.78,0,3.65-1.02,4.85-2.55l4.32,4.18c-2.27,2.86-5.39,4.64-9.22,4.64-6.81,0-12.56-6.32-12.56-13.82Z"/>
    <path class="cls-2" d="M632.59,422.04l4.14,4.84c-2.05,2.45-6.01,4.08-9.4,4.08-6.86,0-12.2-5.76-12.2-13.87s5.12-13.72,11.84-13.72c7.21,0,11.44,6.27,11.44,16.22h-16.61c.76,2.86,2.76,4.79,5.48,4.79,1.83,0,4.05-.97,5.3-2.35ZM621.91,414.24h10.29c-.62-2.6-2.32-4.28-4.94-4.28-2.45,0-4.5,1.63-5.34,4.28Z"/>
    <path class="cls-2" d="M291.14,478.6v15.76h-6.28v-2.65c-1.65,2.14-4.27,3.26-6.77,3.26-4.9,0-8.68-3.37-8.68-8.41s4.23-8.77,9.57-8.77c1.87,0,3.92.46,5.88,1.33v-.51c0-2.8-1.51-5.25-5.3-5.25-2.14,0-4.14.82-5.97,1.89l-2.18-4.95c3.25-1.89,6.41-2.91,9.62-2.91,6.01,0,10.11,4.33,10.11,11.22ZM284.86,486.04v-2.45c-1.47-.61-3.16-.97-4.94-.97-2.36,0-4.23,1.58-4.23,3.72s1.65,3.47,3.87,3.47c2.49,0,4.85-1.33,5.3-3.77Z"/>
    <path class="cls-2" d="M318.04,477.58v16.78h-6.28v-15.2c0-3.26-1.78-5.51-4.36-5.51-2.72,0-4.81,2.24-4.81,5.1l-.04-.15v15.76h-6.5v-26.36h6.5v3.31c1.38-2.4,3.96-3.93,6.95-3.93,4.99,0,8.55,4.23,8.55,10.2Z"/>
    <path class="cls-2" d="M346.76,458.71v35.65h-6.5v-3.77c-1.83,2.75-4.5,4.39-7.75,4.39-6.14,0-10.6-5.71-10.6-13.82s4.45-13.77,10.6-13.77c3.25,0,5.92,1.63,7.75,4.39v-13.05h6.5ZM340.26,481.15c0-4.38-2.45-7.5-5.88-7.5-3.61,0-6.14,3.11-6.14,7.5s2.54,7.55,6.14,7.55,5.88-3.11,5.88-7.55Z"/>
    <path class="cls-2" d="M372.1,466.11h-9.53v-6.78h25.65v6.78h-9.53v28.25h-6.59v-28.25Z"/>
    <path class="cls-2" d="M408.17,486.04l4.14,4.84c-2.05,2.45-6.01,4.08-9.39,4.08-6.86,0-12.2-5.76-12.2-13.87s5.12-13.72,11.84-13.72c7.21,0,11.44,6.27,11.44,16.22h-16.61c.76,2.86,2.76,4.79,5.48,4.79,1.83,0,4.05-.97,5.3-2.35ZM397.48,478.24h10.29c-.62-2.6-2.31-4.28-4.94-4.28-2.45,0-4.5,1.63-5.34,4.28Z"/>
    <path class="cls-2" d="M416.67,481.15c0-7.5,5.79-13.77,12.6-13.77,3.74,0,6.81,1.73,9.04,4.49l-4.32,4.23c-1.16-1.48-2.98-2.45-4.76-2.45-3.38,0-6.23,3.42-6.23,7.45s2.85,7.6,6.28,7.6c1.78,0,3.65-1.02,4.85-2.55l4.32,4.18c-2.27,2.86-5.39,4.64-9.22,4.64-6.81,0-12.56-6.32-12.56-13.82Z"/>
    <path class="cls-2" d="M463.78,477.58v16.78h-6.28v-15.2c0-3.26-1.78-5.51-4.36-5.51-2.72,0-4.81,2.24-4.81,5.1v15.6h-6.5v-35.65h6.5v12.49c1.43-2.29,3.96-3.83,6.9-3.83,4.99,0,8.55,4.23,8.55,10.2Z"/>
    <path class="cls-2" d="M490.68,477.58v16.78h-6.28v-15.2c0-3.26-1.78-5.51-4.36-5.51-2.72,0-4.81,2.24-4.81,5.1l-.04-.15v15.76h-6.5v-26.36h6.5v3.31c1.38-2.4,3.96-3.93,6.95-3.93,4.99,0,8.55,4.23,8.55,10.2Z"/>
    <path class="cls-2" d="M494.42,481.15c0-7.5,5.74-13.77,12.6-13.77s12.51,6.27,12.51,13.77-5.7,13.82-12.51,13.82-12.6-6.32-12.6-13.82ZM513.34,481.15c0-4.08-2.89-7.5-6.32-7.5s-6.37,3.42-6.37,7.5,2.89,7.55,6.37,7.55,6.32-3.47,6.32-7.55Z"/>
    <path class="cls-2" d="M523.5,458.71h6.5v35.65h-6.5v-35.65Z"/>
    <path class="cls-2" d="M533.92,481.15c0-7.5,5.74-13.77,12.6-13.77s12.51,6.27,12.51,13.77-5.7,13.82-12.51,13.82-12.6-6.32-12.6-13.82ZM552.84,481.15c0-4.08-2.89-7.5-6.32-7.5s-6.37,3.42-6.37,7.5,2.89,7.55,6.37,7.55,6.32-3.47,6.32-7.55Z"/>
    <path class="cls-2" d="M586.19,467.99v23.56c0,6.78-5.12,11.58-12.38,11.58-4.05,0-7.88-1.48-10.15-3.52l2.27-5.25c1.51,1.53,4.19,2.5,6.86,2.5,4.18,0,6.86-2.19,6.86-5.61v-2.91c-1.83,2.55-4.59,4.08-7.61,4.08-5.79,0-10.2-5.2-10.2-12.54s4.41-12.49,10.2-12.49c3.12,0,6.05,1.68,7.61,4.18v-3.57h6.54ZM579.65,479.88c0-3.67-2.32-6.22-5.57-6.22s-5.57,2.55-5.57,6.22,2.32,6.27,5.57,6.27,5.57-2.6,5.57-6.27Z"/>
    <path class="cls-2" d="M590.92,501.9l1.38-5.1c1.11.71,2.27,1.17,3.03,1.17,1.25,0,2.23-.46,2.72-1.43l.8-1.94-9.57-26.62h6.72l6.05,18.51,5.74-18.51h6.63l-9.44,27.69c-1.74,5.15-4.67,7.85-8.28,7.85-1.91,0-4.23-.66-5.79-1.63Z"/>
  </g>
  <g>
    <path class="cls-1" d="M544.4,178.37c0,57.21-46.38,103.57-103.58,103.57s-103.59-46.36-103.59-103.57,46.38-103.58,103.59-103.58,103.58,46.36,103.58,103.58Z"/>
    <path class="cls-2" d="M373.16,221.72s.39-1.97.81-2.82c.4-1.08.4-2.69-.27-4.04.4-2.02-.94-3.18-.94-4.03s-.14-3.5-1.08-4.44c1.08-4.57,5.1-9.21,4.45-8.6-.59.55,1.65-1.83,1.65-1.83,0,0,1.27-1.56,1.84-1.98.57-.41,2.55-4.1,2.83-4.81.28-.71,0-2.12.71-2.55.71-.42,1.17-2.41,1.98-3.96.33-.62.99-1.7.57-1.98-.42-.27.23-3.05.23-3.05,0,0-2,1.74-2.42,1.88s-.92.46-1.49.61c-.57.14-1.98,0-1.98,0h-1.55c-.43,0-.71-1-.71-1,0,0-.83-1.23-.4-1.24.43-.01-.41-1.72-.5-2.33-.08-.5-.51-1.24-1.08-1.94-.57-.71-.83-1.85-1.05-3.22-.38-.66-.78-1.73-.78-2.16s.22-.75-.02-2.3c-.81-1.01-.98-2.23-.98-2.23l.57-3.82s-.28-2.12-.15-2.69c.15-.57-.28-.66-.06-1.18.21-.52.54-3,.71-2.83.17.17.5,2.54.3,3.55-.16.77.51-1.95.51-1.52s-.61,3.43-.31,4.15c.3.72.86,3.58,1.21,4.45.35.86-.09,1.72.41,3.24.41.71.91,2.03,1.19,3.17.28,1.12.57,2.12.57,2.69s.28,3.67.28,3.67c0,0,.39-.72-.32,1.41,1.37.1,1.76.07,2.32-.1,1.02-.3,1.96.18,2.43,0,1.32-.5,1-1.52,2.13-1.52s.63-.15,1.61-.3c1-.14,1.5-1.18,1.93-1.32.43-.15.8-.13,1.21-.3.91-.41,1.12-1.12,1.12-1.12,0,0,.58-.28,1.29-.28s1.27-.43,1.27-.43l.77-.81s.8-.75,1.22-1.31c.43-.57.7-.85.7-.85,0,0,.32-1.18,0-2.55-.8-1.47-.8.16-1.7-1.27-.31-.48.2-2,.2-2.43s-1.01.61-2.02,1.12c-.7,0-1.31-.41-1.72-.71-.34-.26-.31-1.52-.31-1.52,0,0-.94-.89-.81-1.32.15-.42-.5-.41-.2-1.01.31-.61.81-1.61,1.75-.5.43.5.27,1.42.27,1.42,0,0,.59.85,1.01.7.43-.14.59.67,1.01.81.43.14,1.53.74,1.53.74l.28,1.84,1.41.29,1.7-.14,2.26.28s1.31-.2,2.02-.27c.72-.07,1.12.1,1.62.71.5.61.84,1.17,1.03,1.55.19.38,1,.78,1.6.98.61.2,1.73-1.01,2.23-.5-.5.5-.91,1.01-.91,1.01l-.91.2s.66,1.1,1.12,1.52c.45.41.49.53,1.41.3,1.01-1.11.16.51.1,1.22.3,1.61,2.33,3.89,2.33,4.45s1.31,4.35,1.72,4.76c.71.71.8,1.77.8,1.77,0,0,.99,1.41,1.41,1.56.43.13.81,1.51.81,2.35s1.04,2.72,1.04,2.72l.38,1.82.94.66,1.07-1.61s.24-1.01,1-2.4c.76-1.4,2.25-3.99,2.78-4.94.91-1.62,0-1.93,0-1.93l.81.11s-.06.06.51-.11c.57-.17.91,0,.91-.71s.36-.64.36-.64l1.28-.29s-.15,0,.85-.84c.99-.85,1.55-1.56,2.4-2.12.85-.57.91-1.01.78-1.57-.15-.57.94-1.66.94-1.66,0,0,.78.68,2.15.11,1.37-.57,2.68-.63,3.25-1.05.56-.42.67-.74,1.1.11.43.85.68,1.92.83,2.32.27.78.88,1.16.88,1.16,0,0,.78.82,1.11,1.27.33.44.66.22.66.22l.56.27.17.89s0,1.95,0,1.38c0-.74-.22,2.76-.22,3.76.22.49.99.61,1.6.61.45-.61,1.89-2.2,2.55-2.7.11.66.94.54,1.04.93,0,.42.39,1.6.39,1.6,0,0,.47.6.66,1.05.55.55.33.61.33.61,0,0,.61.7.61,1.54s0,1.66-.21,2.54c-.11.44-.5,3.04-.5,3.04l.31-.44.68,1.59.94,1.27.66.61.72.83s.74.87.87,1.43c.15.57.72.77,1.5,1.38,1.41.57,2,.94,2.2,1.05.2.11.84.38,1.5.5.27.22.44-.11.61-.5-.77-.83-1.1-1.55-1.6-2.43-.15-.99-.83-1.21-.83-2.04-.56-.57-2.2-1.27-3.48-1.82-.27.61-1.27-.34-1.94-.73-.41-.99-.71-.83-.71-1.82s-.15-2.22.27-2.65c.43-.43.96-1.74,1.11-2.6.13-.85.2-1.6.61-1.98.45.11,1.55-.03,1.71.21.27.44.38,1.27.5,1.83.22.99.76,2.03.76,2.03,0,0,.28-.21.78.56.3.48.91.86.91.86h1.14c.42,0,.99,2.12.99,2.55s.99.29,1.97-.56c.99-.85,1.28-.71,1.98-1.42.71-.7,2.12-1.84,2.12-3.25s1-2.26.57-3.54c-.43-1.27-1.56-2.83-1.98-3.53-.42-.71-1.13-1.56-1.84-1.98-.71-.43-.85-1.56-.56-1.98.28-.43,1.6-1.39,2.59-1.53-.07,1.01.85,1.21,1.18,1.67.39-.16.48-.03.92-.55-.37-.51-.24-1.29.21-1.25.47.03,1.75-.11,2.46-.11s2.57,0,3.04-.57c.48-.56,1.49-.49,2.91-1.9,1.41-1.43,1.97-2.41,3.11-3.68,1.13-1.28,2.12-1.28,2.26-3.97.15-2.69.82-2.39.68-4.44-.43-1-1.18-4.11-1.18-4.11,0,0-1.48-1.62-2.05-1.9-.56-.29-1.41-.02-1.13-.59.29-.56.98-1.17.98-1.17,0,0,1.03-1.76,1.32-2.64-1.18-1.31-2.23-.73-2.94-.73s-2.06-.4-2.06-.4l-.7-.99.41-.85s.87-1.37,2.05-1.86c2.78-1.17,2.48,2.56,2.76,2.99.29.42,1.78.38,1.78.38l1.61,1.74s1.32.63,1.32,1.33c-.15.74.24,1.36.24,1.78s.57,1.13.57,1.56.85,2.12.85,2.12c0,0,1.6-.2,2.59-.91.99-.7.45-3.95.45-3.95,0,0-1.36-2.66-2.35-3.23-.99-.56-2.49-1.32-2.49-3.37,0-.85.15-2.78,1.47-2.93,1.32-.14,1.11,1.29,2.31,1.67,1.21.39,2.39-1.56,2.52-2.84.15-1.27-.96-2.54-.96-2.54l.57-1.13-.14-2.12s-1.13-2.41-1.84-3.82c-.7-1.41-.55-2.12-.98-2.69-.43-.56-2.56-2.97-2.56-2.97l-.85-.15-.42,1.28h-1.28s-1.41-.7-.71-1.41c.71-.71.85-2.13.85-2.13l-.85-1.27v-1.27s1.56.85,2.69.71c1.13-.14,2.83.14,2.83.14l.99,1,2.42-.14-.57-1.56-.85-1-.14-.28,1.27-.14.29-.43s.42.57.85,1.56c.42.99.99,3.11,1.13,3.96.15.85.99,2.26,2.26,3.12,1.27.84,2.12,2.12,2.12,2.12l1.13,1.27.71.71s.15-1.42.15-2.41-1.13-1.98-1.28-2.4c-.14-.42-.14-1.84-.14-1.84,0,0-.99-1.27-1.7-1.41-.71-.14-1.27-1.42-1.27-1.42v-.71l1.41.43.57-.84-.85-.86-.85-.84,1.14.27h.85l-.25-.77-2.08-2.23s-25.78-25.48-65.85-19.07c-43.66,7.6-59.15,44.1-59.15,44.1,0,0,.46.96,1.78,1.49,1.32.52,1.22.7,1.78.8.58.1,1.04.1,1.04.1,0,0-.16-.47.62-.07.77.38.58,1.05.58,1.05l.81.77.79.43,1.2-.12s.71-.15,1.19.21c.29.22-.1,1.96-.63,3.17-.49,1.11-.99.56-1.61,1.34-.56.68-.85.84-1.34.7-.54-.15-.6.41-1.19,0-.64-.43-.68-.32-1.6-.32s-1.63-.49-2.03-.49-.53-.37-1.2-.63c-.67-.26-.36.06-.91-.23-.55-.3-1.27.08-1.27.08l-.54-2.61s-7.38,13.03-5.67,36.21c1.91,25.84,12.62,37.71,12.62,37.71Z"/>
    <path class="cls-2" d="M440.97,259.66c-21.71,0-42.12-8.45-57.48-23.81-15.35-15.35-23.81-35.76-23.81-57.48,0-44.82,36.46-81.29,81.29-81.29s81.27,36.46,81.27,81.29c0,21.71-8.45,42.12-23.8,57.48-15.35,15.35-35.76,23.81-57.47,23.81ZM440.97,98.95c-43.8,0-79.43,35.63-79.43,79.43,0,21.22,8.26,41.16,23.26,56.16,15,15,34.95,23.26,56.16,23.26s41.16-8.26,56.16-23.26c15-15,23.26-34.95,23.26-56.16,0-43.8-35.63-79.43-79.42-79.43Z"/>
    <path class="cls-2" d="M440.97,290.43c-29.93,0-58.06-11.65-79.23-32.82-21.16-21.16-32.82-49.3-32.82-79.23s11.65-58.06,32.82-79.22c21.16-21.16,49.3-32.82,79.23-32.82s58.06,11.65,79.22,32.82c21.16,21.16,32.81,49.3,32.81,79.22s-11.65,58.07-32.81,79.23c-21.16,21.16-49.29,32.82-79.22,32.82ZM440.97,68.2c-29.43,0-57.1,11.46-77.91,32.27-20.81,20.81-32.27,48.48-32.27,77.91s11.46,57.1,32.27,77.92c20.81,20.81,48.48,32.27,77.91,32.27s57.1-11.46,77.9-32.27c20.81-20.81,32.27-48.48,32.27-77.92s-11.46-57.1-32.27-77.91c-20.81-20.81-48.48-32.27-77.9-32.27Z"/>
    <g>
      <path class="cls-2" d="M369.8,229.57l2.42,2.77-1.93,3.63,4.49,5.13,3.82-1.49,2.41,2.75-17.05,6.27-2.4-2.75,8.24-16.32ZM368.85,238.7l-3.13,5.94,6.22-2.43-3.09-3.51Z"/>
      <path class="cls-2" d="M365.1,232.22l-2-2.69c.85-.75,1.35-1.52,1.49-2.31.13-.79-.07-1.64-.61-2.53-.57-.94-1.19-1.54-1.88-1.77-.69-.24-1.29-.19-1.83.13-.34.2-.58.48-.7.83-.11.34-.11.82.01,1.43.08.42.35,1.32.78,2.73.56,1.8.74,3.19.56,4.17-.26,1.36-.97,2.39-2.12,3.08-.74.45-1.56.65-2.45.62-.9-.03-1.75-.34-2.56-.92-.8-.59-1.54-1.44-2.21-2.55-1.09-1.82-1.52-3.43-1.26-4.83.26-1.41,1.04-2.53,2.36-3.39l1.86,2.86c-.68.58-1.05,1.16-1.14,1.77-.08.61.12,1.32.63,2.15.5.85,1.08,1.4,1.72,1.66.4.18.81.15,1.18-.08.34-.21.55-.53.62-.96.1-.57-.12-1.65-.64-3.27-.52-1.62-.81-2.88-.86-3.78-.04-.89.13-1.72.52-2.49.4-.75,1.05-1.41,1.97-1.96.84-.51,1.75-.74,2.75-.72,1,.03,1.93.36,2.8.99.86.63,1.67,1.58,2.43,2.82,1.1,1.83,1.52,3.51,1.27,4.99-.26,1.51-1.14,2.84-2.66,4.01Z"/>
      <path class="cls-2" d="M361.93,215.43l-15.49,6.91-1.38-3.11,15.48-6.91,1.39,3.1Z"/>
      <path class="cls-2" d="M354.9,195.21l1.05,3.51-3.28,2.52,1.95,6.52,4.09.24,1.04,3.5-18.11-1.39-1.05-3.49,14.3-11.4ZM350.23,203.11l-5.34,4.1,6.67.37-1.33-4.47Z"/>
      <path class="cls-2" d="M354.85,194.18l-16.87,1.74-.34-3.3,10.63-8.12-11.35,1.16-.33-3.14,16.87-1.73.35,3.4-10.39,7.99,11.09-1.14.32,3.14Z"/>
      <path class="cls-2" d="M354.67,165.35l-16.72-2.84.58-3.35,16.72,2.83-.57,3.36Z"/>
      <path class="cls-2" d="M355.56,159.21l-16.2-4.96.96-3.18,12.95-3.34-10.9-3.34.93-3.02,16.22,4.97-1.01,3.27-12.68,3.31,10.66,3.27-.93,3.02Z"/>
      <path class="cls-2" d="M355.33,141.98l1.24-3.1c1.08.34,2,.35,2.75.05.75-.3,1.36-.91,1.83-1.83.5-.98.68-1.82.52-2.53-.15-.72-.5-1.21-1.06-1.5-.35-.19-.71-.25-1.07-.16-.36.08-.76.33-1.21.75-.3.3-.95.99-1.92,2.1-1.24,1.42-2.33,2.3-3.25,2.65-1.31.49-2.56.43-3.74-.19-.77-.41-1.37-.98-1.82-1.76-.44-.78-.62-1.67-.56-2.67.08-.99.42-2.07,1.01-3.22.98-1.89,2.13-3.08,3.46-3.61,1.32-.52,2.7-.44,4.11.24l-1.46,3.09c-.85-.27-1.54-.29-2.1-.04-.56.25-1.07.8-1.51,1.65-.45.87-.63,1.65-.53,2.34.08.44.3.77.7.97.35.18.73.19,1.15.02.52-.21,1.33-.96,2.44-2.25,1.11-1.3,2.03-2.2,2.77-2.72.73-.5,1.54-.79,2.39-.86.85-.06,1.75.15,2.7.64.86.46,1.55,1.11,2.05,1.98.51.86.71,1.83.63,2.9-.09,1.07-.47,2.25-1.14,3.55-.99,1.91-2.19,3.13-3.59,3.69-1.41.56-3.02.49-4.81-.18Z"/>
      <path class="cls-2" d="M370.1,127.41l-11.26-8.45-3.02,4-2.29-1.72,8.06-10.74,2.3,1.72-3,4.01,11.27,8.45-2.05,2.72Z"/>
      <path class="cls-2" d="M376.41,119.64l-12.32-11.66,2.35-2.47,12.3,11.67-2.33,2.47Z"/>
      <path class="cls-2" d="M383.59,112.62l-9.06-10.79-3.83,3.23-1.85-2.21,10.29-8.63,1.84,2.21-3.83,3.22,9.05,10.79-2.61,2.19Z"/>
      <path class="cls-2" d="M382.74,91.68l2.95-1.71,4.63,7.96c.74,1.28,1.24,2.07,1.54,2.41.48.53,1.07.83,1.75.92.68.09,1.44-.11,2.27-.58.82-.5,1.36-1.03,1.59-1.62.23-.59.24-1.16.03-1.71-.2-.55-.65-1.41-1.32-2.58l-4.73-8.14,2.94-1.71,4.49,7.72c1.02,1.77,1.67,3.06,1.93,3.88.27.82.33,1.6.2,2.35-.14.76-.48,1.49-1.02,2.2-.54.71-1.39,1.41-2.55,2.08-1.4.81-2.54,1.27-3.45,1.37-.91.09-1.72,0-2.44-.27-.72-.28-1.31-.66-1.77-1.16-.68-.72-1.5-1.91-2.46-3.55l-4.56-7.84Z"/>
      <path class="cls-2" d="M409.12,97.11l-4.89-13.2-4.69,1.75-1-2.7,12.59-4.67,1,2.7-4.7,1.74,4.89,13.2-3.2,1.18Z"/>
      <path class="cls-2" d="M418.5,93.81l-3.2-16.65,12.31-2.34.54,2.82-8.96,1.71.7,3.67,8.35-1.6.54,2.83-8.35,1.59.87,4.52,9.28-1.77.54,2.83-12.62,2.4Z"/>
      <path class="cls-2" d="M446.34,82.59c.25-1.7.71-3.11,1.38-4.19.5-.8,1.12-1.49,1.88-2.09.76-.57,1.55-.98,2.38-1.19,1.11-.3,2.34-.36,3.72-.16,2.47.34,4.33,1.4,5.6,3.15,1.26,1.74,1.7,3.98,1.32,6.72-.39,2.71-1.42,4.72-3.11,6.04-1.69,1.33-3.77,1.81-6.24,1.46-2.48-.35-4.36-1.39-5.61-3.12-1.26-1.74-1.69-3.94-1.31-6.61ZM449.85,82.98c-.27,1.91-.04,3.42.7,4.52.73,1.12,1.78,1.77,3.13,1.96,1.35.18,2.52-.15,3.53-1,.99-.85,1.64-2.25,1.91-4.2.28-1.92.07-3.43-.64-4.49-.71-1.07-1.77-1.7-3.16-1.91-1.4-.19-2.6.13-3.58.97-.99.84-1.62,2.23-1.89,4.15Z"/>
      <path class="cls-2" d="M463.24,93.83l5.32-16.1,11.04,3.66-.9,2.72-7.8-2.58-1.26,3.79,6.75,2.23-.9,2.73-6.75-2.23-2.26,6.86-3.24-1.07Z"/>
      <path class="cls-2" d="M490.45,106.47l8.22-11.43-4.07-2.93,1.67-2.33,10.91,7.83-1.97,2.67-3.77-3.26-8.22,11.44-2.77-1.99Z"/>
      <path class="cls-2" d="M498.43,112.42l12.01-11.97,8.85,8.88-2.04,2.02-6.43-6.47-2.65,2.64,5.99,6.01-2.04,2.03-5.99-6.02-3.26,3.25,6.66,6.69-2.03,2.03-9.07-9.1Z"/>
      <path class="cls-2" d="M520.2,128.56l1.03,3.32c-1.82.64-3.43.73-4.84.27-1.42-.46-2.65-1.44-3.68-2.95-1.28-1.84-1.71-3.8-1.27-5.87.44-2.07,1.75-3.85,3.94-5.37,2.32-1.6,4.54-2.25,6.64-1.93,2.11.31,3.85,1.44,5.19,3.41,1.19,1.69,1.65,3.44,1.38,5.2-.16,1.04-.68,2.1-1.56,3.19l-2.59-2.3c.61-.67.93-1.41.98-2.23.06-.81-.17-1.6-.69-2.35-.73-1.03-1.68-1.63-2.86-1.75-1.19-.14-2.61.37-4.28,1.51-1.75,1.22-2.8,2.4-3.1,3.55-.31,1.15-.11,2.24.59,3.25.52.75,1.2,1.22,2.05,1.44.85.21,1.87.07,3.07-.4Z"/>
      <path class="cls-2" d="M517.95,136.73l15.49-6.9,1.4,3.12-6.12,2.71,2.73,6.15,6.12-2.72,1.39,3.12-15.49,6.9-1.38-3.11,6.75-3.01-2.74-6.15-6.76,3.01-1.38-3.12Z"/>
      <path class="cls-2" d="M524.34,151.7l16.51-3.9.77,3.23-9.5,9.42,11.1-2.63.71,3.09-16.49,3.9-.78-3.33,9.27-9.26-10.85,2.56-.73-3.08Z"/>
      <path class="cls-2" d="M536.19,166.56c1.73-.07,3.19.15,4.38.61.87.35,1.67.85,2.38,1.49.71.63,1.25,1.34,1.61,2.13.48,1.04.76,2.24.8,3.62.1,2.5-.61,4.52-2.1,6.08-1.49,1.55-3.61,2.37-6.38,2.48-2.72.1-4.9-.57-6.49-1.98-1.6-1.44-2.44-3.39-2.54-5.87-.1-2.52.59-4.55,2.08-6.09,1.48-1.55,3.57-2.37,6.26-2.46ZM536.43,170.08c-1.91.07-3.36.57-4.31,1.49-.96.92-1.42,2.07-1.37,3.42.05,1.36.59,2.46,1.6,3.3,1.02.84,2.52,1.22,4.5,1.14,1.92-.06,3.36-.55,4.28-1.44.94-.88,1.37-2.03,1.32-3.43-.06-1.41-.58-2.52-1.58-3.36-1.01-.82-2.48-1.2-4.44-1.12Z"/>
      <path class="cls-2" d="M528.11,185.29l16.63,2.35-.47,3.37-13.79-1.96-1.2,8.46-2.85-.4,1.68-11.82Z"/>
      <path class="cls-2" d="M534.27,200.74c1.64.54,2.94,1.24,3.89,2.1.7.63,1.27,1.37,1.7,2.22.45.85.71,1.7.76,2.56.1,1.14-.08,2.37-.5,3.68-.78,2.37-2.15,4.02-4.08,4.96-1.95.94-4.23.96-6.85.09-2.61-.85-4.39-2.23-5.4-4.13-1-1.89-1.11-4.03-.32-6.38.79-2.39,2.15-4.06,4.08-4.99,1.92-.92,4.17-.96,6.73-.11ZM533.28,204.13c-1.83-.61-3.36-.65-4.58-.11-1.21.54-2.04,1.43-2.47,2.74-.42,1.28-.31,2.5.35,3.63.66,1.14,1.93,2.02,3.79,2.64,1.86.61,3.37.67,4.54.16,1.18-.5,2-1.43,2.43-2.77.45-1.33.34-2.56-.31-3.68-.65-1.12-1.91-1.98-3.75-2.6Z"/>
      <path class="cls-2" d="M521.77,225.3l2.5,1.43-3.64,6.33-5.85-3.35c-.24-.96-.25-2.17-.03-3.61.22-1.44.68-2.76,1.37-3.97.89-1.53,1.97-2.68,3.27-3.45,1.29-.76,2.71-1.1,4.24-.98,1.53.12,3.01.57,4.42,1.39,1.53.88,2.7,1.98,3.53,3.3.82,1.32,1.19,2.79,1.13,4.4-.06,1.22-.48,2.53-1.29,3.93-1.04,1.82-2.25,3.03-3.61,3.62-1.36.57-2.8.61-4.33.13l1.17-3.26c.85.21,1.64.15,2.4-.17.74-.32,1.36-.92,1.84-1.77.75-1.3.92-2.56.54-3.78-.39-1.23-1.4-2.33-3.01-3.25-1.75-1.01-3.29-1.37-4.61-1.1-1.32.28-2.33,1.05-3.06,2.29-.36.63-.58,1.32-.71,2.09-.12.76-.14,1.47-.05,2.11l1.86,1.07,1.94-3.38Z"/>
      <path class="cls-2" d="M508.43,233.76l5.43,4.65,11.5,1.66-2.62,3.06-7.71-1.36,2.58,7.35-2.57,2.98-3.43-11.12-5.4-4.63,2.21-2.59Z"/>
    </g>
    <path class="cls-2" d="M421.48,281.03l-3.18-.62,2.34-12.01c-1.38.87-2.9,1.4-4.59,1.62l.57-2.9c.87-.11,1.88-.45,3-1.02,1.12-.56,1.96-1.33,2.52-2.25l2.58.5-3.25,16.68Z"/>
    <path class="cls-2" d="M426.12,277.89l3.16-.24c.07.64.25,1.12.56,1.44.31.32.73.48,1.24.5.66.02,1.24-.26,1.72-.88.49-.6.83-1.87,1.02-3.83-.85.94-1.87,1.37-3.09,1.32-1.33-.03-2.46-.58-3.39-1.65-.93-1.04-1.36-2.4-1.31-4.04.06-1.7.61-3.07,1.66-4.09,1.06-1.01,2.37-1.49,3.94-1.44,1.72.06,3.1.77,4.15,2.13,1.05,1.37,1.55,3.57,1.45,6.61-.1,3.1-.75,5.31-1.94,6.65-1.19,1.35-2.7,1.97-4.54,1.92-1.32-.04-2.38-.44-3.17-1.17-.78-.74-1.27-1.81-1.46-3.23ZM433.66,271.03c.03-1.03-.18-1.85-.63-2.42-.46-.6-1-.91-1.63-.93-.6-.01-1.1.21-1.51.66-.4.45-.63,1.21-.66,2.28-.03,1.09.15,1.89.55,2.41.42.52.94.79,1.59.82.61.02,1.14-.21,1.58-.69.45-.48.68-1.19.71-2.14Z"/>
    <path class="cls-2" d="M439.52,278.67l3.22-.55c.13.73.45,1.29.93,1.68.48.4,1.02.58,1.6.55.68-.05,1.23-.36,1.66-.95.44-.59.62-1.44.54-2.57-.07-1.05-.36-1.83-.87-2.32-.5-.49-1.13-.71-1.89-.67-.95.07-1.76.52-2.46,1.39l-2.63-.21,1.1-8.9,8.61-.56.19,3.03-6.14.4-.36,2.91c.71-.4,1.44-.62,2.2-.68,1.45-.09,2.71.35,3.79,1.35,1.08.98,1.67,2.31,1.78,3.99.1,1.4-.23,2.68-.96,3.83-1,1.57-2.47,2.43-4.42,2.55-1.55.1-2.86-.23-3.88-1-1.05-.78-1.7-1.86-1.99-3.25Z"/>
    <path class="cls-2" d="M453.76,277.14l3.11-.69c.15.63.39,1.09.75,1.35.34.28.77.39,1.3.34.66-.09,1.18-.44,1.58-1.11.39-.67.56-1.98.47-3.93-.71,1.03-1.67,1.6-2.88,1.74-1.31.14-2.51-.24-3.58-1.17-1.07-.91-1.68-2.18-1.86-3.82-.18-1.7.18-3.12,1.08-4.28.9-1.15,2.14-1.8,3.71-1.98,1.7-.18,3.17.33,4.41,1.54,1.23,1.2,2,3.32,2.33,6.36.34,3.07,0,5.36-.99,6.85-1,1.49-2.41,2.33-4.24,2.53-1.31.14-2.41-.1-3.29-.73-.9-.61-1.52-1.62-1.91-2.99ZM460.27,269.31c-.11-1.04-.44-1.82-.97-2.34-.54-.51-1.11-.75-1.73-.68-.59.06-1.06.35-1.4.85-.35.51-.45,1.29-.35,2.36.12,1.08.41,1.84.9,2.3.48.45,1.04.65,1.68.57.61-.06,1.1-.36,1.47-.89.38-.52.5-1.27.4-2.19Z"/>
    <path class="cls-2" d="M442.55,259.53l-.85-.34v-.38c0-.37.04-40.53.11-81.12.04-23.15.08-41.58.11-54.79.02-7.46.04-13.67.07-18.01.01-2.17.02-3.88.04-5.05,0-.58.01-1.03.02-1.33.01-.5.02-.98.53-1l.23-.03.19.17c.28.25,6.48,9.64,12.61,25,5.5,13.78,11.93,35.15,11.33,58.72-.39,15.15-2.88,37.66-12.54,58.83-5.79,12.69-11.52,18.98-11.57,19.04l-.26.28ZM443.14,99.86c-.16,15.26-.29,126.27-.32,157.65,1.77-2.2,6.15-8.1,10.58-17.83,5.28-11.59,11.72-31.11,12.42-58.34.59-23.2-5.7-44.27-11.09-57.86-4.65-11.73-9.56-20.33-11.6-23.61Z"/>
    <path class="cls-2" d="M442.25,259.91l-.4-.44c-.07-.05-.2-.14-.39-.27-6.8-4.65-23.71-17.86-33.75-40.07-10.06-22.22-9.11-58.46-9.1-58.83l1.11.03c-.01.36-.94,36.35,9,58.34,8.79,19.44,22.91,31.91,30.69,37.7-1.67-2.3-4.03-5.9-6.6-10.83-4.39-8.44-10.17-22.51-12.81-41.65-.96-6.9-1.38-17.56-1.23-23.88l1.11.03c-.15,6.28.26,16.86,1.22,23.7,2.62,18.95,8.34,32.89,12.68,41.24,4.53,8.72,8.54,13.34,8.86,13.7.11.11.14.19.16.33l.03.25-.59.64Z"/>
    <path class="cls-2" d="M441.91,259.71c-.33,0-8.15-.25-19.23-4.76-10.21-4.16-25.18-12.89-38.48-30.91-8.65-11.69-12.75-25.5-13.7-46.18-.16-3.41.05-7.08.61-10.89l1.1.16c-.55,3.74-.75,7.33-.6,10.68.94,20.44,4.98,34.06,13.49,45.57,13.14,17.78,27.89,26.41,37.96,30.51,5.91,2.41,10.93,3.59,14.31,4.16-7.56-3.16-23.4-11.39-36.24-28.7-14.83-20.04-17.25-55.73-17.27-56.09l1.11-.07c.02.35,2.42,35.72,17.06,55.49,17.2,23.2,39.84,29.86,40.07,29.93l-.17,1.09Z"/>
    <path class="cls-2" d="M442.53,259.7l-.31-1.07c.09-.03,8.78-3.29,18.28-13.54,8.77-9.47,20.05-27,23.95-56.8,1.37-10.49,0-21.71-4.08-33.36-3.27-9.34-8.28-18.98-14.89-28.64-11.26-16.46-23.4-27.41-23.52-27.52l.61-.92c.15.07,14.85,7.21,29.23,20.94,8.45,8.07,15.14,16.82,19.89,26,5.94,11.48,8.84,23.67,8.6,36.22-.28,15.03-3.48,28.53-9.53,40.1-4.84,9.27-11.5,17.33-19.79,23.97-14.12,11.3-28.29,14.58-28.43,14.61ZM445.64,100.77c4.33,4.3,12.77,13.23,20.75,24.9,6.66,9.74,11.71,19.46,15.02,28.9,4.14,11.82,5.53,23.21,4.13,33.87-2.18,16.63-8.16,40.1-24.29,57.47-4.82,5.19-9.39,8.6-12.79,10.72,5.39-2.04,13.62-5.86,21.84-12.44,8.16-6.54,14.72-14.48,19.48-23.61,5.96-11.42,9.12-24.73,9.39-39.58.23-12.36-2.62-24.36-8.47-35.67-4.69-9.06-11.3-17.71-19.65-25.7-10.02-9.58-20.19-15.92-25.4-18.86Z"/>
    <path class="cls-2" d="M442.93,259.9l-.19-1.1c.17-.03,17.24-3.06,34.11-14.35,9.89-6.62,17.78-14.74,23.45-24.14,7.09-11.74,10.72-25.53,10.8-40.98-1.4-16.94-5.95-31.7-13.54-43.86-6.06-9.73-14.07-17.83-23.79-24.08-16.56-10.65-32.56-12.25-32.72-12.27l.1-1.11c.16.02,16.43,1.65,33.21,12.44,9.86,6.34,17.98,14.56,24.13,24.43,7.68,12.32,12.29,27.25,13.7,44.38v.05c-.07,15.68-3.76,29.67-10.97,41.6-5.76,9.54-13.77,17.78-23.81,24.49-17.07,11.41-34.33,14.47-34.51,14.5Z"/>
    <path class="cls-2" d="M416.31,255.21l-.34-1.06c.12-.04,12.07-3.76,26.35-3.76s26.62,3.31,26.74,3.34l-.29,1.08c-.12-.03-12.34-3.3-26.45-3.3s-25.89,3.67-26.01,3.71Z"/>
    <path class="cls-2" d="M398.86,246.51l-.1-1.11c.2-.02,20.5-1.84,43.63-2.38,22.57-.52,41.29,2.36,41.48,2.39l-.17,1.1c-.19-.03-18.82-2.9-41.28-2.37-23.09.54-43.35,2.36-43.55,2.38Z"/>
    <path class="cls-2" d="M436,227.78c-32.3,0-62.39-3.26-62.71-3.29l.12-1.11c.34.04,34.44,3.73,68.99,3.24,28.32-.4,50.77-2.19,66.72-5.32l.21,1.09c-16.02,3.14-38.53,4.94-66.92,5.34-2.14.03-4.28.04-6.41.04Z"/>
    <path class="cls-2" d="M442.74,217.84c-23.43,0-42.77-2.04-54.87-3.75-13.12-1.85-20.8-3.73-20.88-3.75l.27-1.08c.08.02,7.72,1.89,20.79,3.73,12.06,1.7,31.34,3.73,54.7,3.73,34.45,0,72.23-7.4,72.61-7.47l.22,1.09c-.38.07-38.26,7.49-72.82,7.49Z"/>
    <path class="cls-2" d="M440.31,205.8c-42.89,0-77.15-9.07-77.49-9.17l.29-1.08c.35.09,34.47,9.13,77.2,9.13.81,0,1.61,0,2.43,0,37.85-.3,49.29-3.03,61.41-5.91,4.52-1.08,9.2-2.19,15.38-3.22l.18,1.1c-6.14,1.02-10.8,2.13-15.31,3.2-12.18,2.9-23.68,5.64-61.66,5.94-.81,0-1.63,0-2.44,0Z"/>
    <path class="cls-2" d="M445.43,192.5c-.89,0-1.79,0-2.69-.01-47.31-.39-81.66-10.31-82.01-10.41l.31-1.07c.34.1,34.55,9.97,81.7,10.36.9,0,1.8.01,2.69.01,48.32,0,75.78-10.66,76.05-10.77l.41,1.04c-.28.11-27.92,10.85-76.47,10.85Z"/>
    <path class="cls-2" d="M447.38,178.83c-1.67,0-3.36-.01-5.07-.04-46.82-.84-80.82-9.48-81.15-9.57l.28-1.08c.34.09,34.22,8.7,80.89,9.54,45.9.83,78.03-9.83,78.35-9.93l.36,1.06c-.31.1-30.27,10.04-73.66,10.04Z"/>
    <path class="cls-2" d="M437.18,165.94c-38.97,0-72.79-10.35-73.14-10.46l.33-1.06c.36.11,36.56,11.18,77.11,10.36,45.93-.93,76.42-10.27,76.72-10.36l.33,1.06c-.3.09-30.95,9.48-77.03,10.41-1.45.03-2.89.04-4.32.04Z"/>
    <path class="cls-2" d="M445.84,151.82c-1.44,0-2.89-.01-4.36-.05-20.52-.43-45.49-3.73-70.31-9.29-.63-.14-1.13-.25-1.22-.27l.14-1.11c.11.01.39.07,1.33.29,24.75,5.55,49.64,8.84,70.09,9.27,39.31.82,69.31-9.83,69.61-9.94l.38,1.05c-.29.1-28.28,10.05-65.65,10.05Z"/>
    <path class="cls-2" d="M432.13,139.07l-.02-1.11c25.07-.41,28.6-.89,34.46-1.69,1.38-.19,2.94-.4,4.94-.63.77-.09,1.54-.18,2.3-.26,9.46-1.07,18.4-2.09,30.25-6.3l.37,1.05c-11.98,4.25-20.98,5.27-30.5,6.35-.76.09-1.53.17-2.3.26-1.98.23-3.54.44-4.91.63-5.89.8-9.45,1.28-34.59,1.7Z"/>
    <path class="cls-2" d="M443.28,127.48l-.02-.21c.19-.02,18.91-1.6,29.39-1.93,13.13-.41,23.55-4.93,23.65-4.97l.08.19c-.1.05-10.55,4.58-23.73,4.99-10.47.33-29.19,1.91-29.38,1.93Z"/>
    <path class="cls-2" d="M457.09,114.83l-.02-.21c.13-.01,13.03-1.51,17.46-2.49,4.44-.99,8.27-2.48,8.31-2.49l.07.19s-3.89,1.51-8.34,2.5c-4.44.98-17.35,2.48-17.48,2.49Z"/>
    <path class="cls-2" d="M396.68,261.34c0,2.37-1.92,4.31-4.31,4.31s-4.3-1.93-4.3-4.31,1.92-4.31,4.3-4.31,4.31,1.93,4.31,4.31Z"/>
    <path class="cls-2" d="M495.12,259.98c0,2.38-1.93,4.32-4.3,4.32s-4.31-1.93-4.31-4.32,1.93-4.3,4.31-4.3,4.3,1.92,4.3,4.3Z"/>
    <path class="cls-2" d="M457.58,201.31s.29-.43.59-.13c.3.3.59.35.46.53-.13.17-.61.11-.61.11,0,0-.33-.22-.44-.5Z"/>
    <path class="cls-2" d="M466.45,178.19l.45-.62s.31-.28.54-.47c.22-.18.1-.87.59-.84.51.04.73,0,.83.72-.1.26-.03,1.01-.03,1.01,0,0-.1.59-.59,1.08-.64.11-1.11.04-1.11.04,0,0-.68-.07-.68-.92Z"/>
    <rect class="cls-2" x="385.91" y="235.48" width="111.99" height="1.11" transform="translate(-1.53 2.88) rotate(-.37)"/>
    <path class="cls-2" d="M375.98,148.31s.33-.57.65-.65.73.33.73.33c0,0-.16.41-.16.64s-.25.56-.49.56-.81.16-.81.16l-.57-.65.64-.4Z"/>
    <path class="cls-2" d="M382.99,204.45s.34,1.35.84,2.02c.51.67.34,2.02.34,2.02h-.67s-.34,1.18-.5,2.37c-.16,1.17-1.18,2.7-1.18,4.04s-.34,2.36-.34,3.03-.18,1.53-1.19,2.03c-1.01.5-1.51.33-1.85-.17-.34-.51.17-.84.17-1.86s-.34-2.02-.34-2.02c0,0,.84-.84.84-1.68s-.33-1.35-.33-1.35l-.34-1.01s.17-1.18.34-1.68c.16-.51.67-.84,1.69-1.35,1.01-.5,1.51-.68,1.51-1.52s.34-2.19.34-2.19c0,0,.34-.5.67-.67Z"/>
    <path class="cls-2" d="M424.49,188.84c-.53.24-2.53,2.49-2.59,3.48-.06,1,.11,1.53.82,1.77.7.24,1.53.06,1.77-.82.24-.89.59-1.71.47-2.83-.11-1.13.06-1.83-.47-1.6Z"/>
    <g>
      <path class="cls-2" d="M488.89,131.74s.9.3,2.1,1.81c1.2,1.5,1.7,2.4,2.5,2.7.8.3,2.4,1.2,2.4,1.6s-1.7.2-1.7.2l-.2.9-.9.1s-1-2-1.69-3c-.71-1-1.6-1.7-2.11-2.5-.5-.81-1.1-1.3-.4-1.81Z"/>
      <path class="cls-2" d="M494.59,139.24s1.4.1,1.8.91c.4.8.59,1.3.59,1.3h-.8l.1.9s-.7-.5-1.2-1.2c-.5-.7-.7-1.3-.5-1.91Z"/>
      <path class="cls-2" d="M496.99,143.25s2.2,1.3,2.91,1.2c.7-.1,1.2-.59,1.2-.59,0,0-.4.69.1,1.09.5.4.4,1.3.1,1.3s-.4.59-1.1.59-.8-.3-1.7-1.2c-.9-.9-2.4-1.6-1.5-2.4Z"/>
      <path class="cls-2" d="M496.4,145.85s1.1-.1,1.5.5c.4.59,1,.69.5.99-.5.3-.3.51-.9,0-.61-.5-.61-.3-.9-.7-.3-.39-.8.11-.2-.8Z"/>
      <path class="cls-2" d="M498.09,148.26s2.01-.2,2.2.2c.2.4.7,1.5.7,2.9s-.1,2.1.3,2.9c.4.8,1.1,1.4.5,2-.61.6-2,1-2,1v.6h-1.1s-1-.8-1.4-.9c-.4-.1-3.2.6-3.2.6h-.6s0-1.7.8-1.8c.81-.1,3.6,0,3.71-.8.1-.8-.2-1.2-.11-1.7.11-.5.8-.5.8-.99s-.9-3.41-.6-4Z"/>
      <path class="cls-2" d="M496.19,157.79c.47-.31.93-.32,1.17,0,.23.32.81.96.35,1.28-.46.32-.7.86-1.4.22-.7-.65-.7-1.29-.7-1.29,0,0-.58.54.59-.22Z"/>
      <path class="cls-2" d="M492.98,159.63s.13-1.43,1-1.43,1.13.8,1.13,1.6,1.42,2.53.57,2.38c-.85-.15-1.28-.79-1.7-1.27-.44-.48-1,.64-1-1.27Z"/>
    </g>
    <path class="cls-2" d="M481.69,167.47c.64-.09.81.79.72,1.91-.03.64-.21,1.14-.31,1.34-.42.88-.22.87-.57,1.4-.63-.08-1.29-.72-1.22-2,.08-1.28.13-2.46,1.38-2.64Z"/>
    <path class="cls-2" d="M448.89,199.79s1.57.1,2.56.11c.99.02.82.64,2.17,1.27,1.36.63,1.95.49,3.32.89,1.37.4,1.96.26,2.58,1.2.61.94,1.32,1.84,1.32,1.84,0,0,.61.41,1.05.43.45.03.54.76.54.76l1.42.27s1.02,2.41,1.44,2.89c.42.48.11.5.11.5l-1.54.76s-1.08-.74-1.69-.91c-.63-.18-.81.44-1.72-.7-.91-1.14-3.85-3.17-4.18-3.69-.33-.51-.8-.32-1.22-.8-.42-.47-.37-1.14-.89-1.59-.52-.44-1-.02-1-.02,0,0-1.63-1.28-1.93-1.47-.3-.2-1.82-1.2-2.14-1.17-.31.02-.22-.56-.22-.56Z"/>
    <path class="cls-2" d="M463.19,212.47s.65-.85.77-1.28c.12-.44,2.99.13,3.3.08.29-.06.11.59.37.33s1.01-.61,1.01-.61c0,0-.12-.08.78-.16s1.61-.11,1.61-.11l-.12.94,1.7.29.37.33s1.29-.26,1.08.3c-.2.55-.23.35-.82.47-.59.12-.91.08-1.92.18-1,.09-1.09.21-2.19.33-1.11.11-1.58-.72-2.13-.4-.56.31-1.45.49-1.45.49,0,0-2-.83-2.38-1.17Z"/>
    <path class="cls-2" d="M469.46,207.81s.7-.8,1.3-.7c.6.1-.1.5.5.5s1.4-.3,1.51.1c.1.4.61,1.1.61,1.1,0,0,1.2-.7,1.31-1.21.1-.5,0-1.1.2-1.81.2-.71.61-1.61.61-2.11s.4-.7.8-1.11c.4-.4.9-.61.9-1.01s.3-.2.1-.8c-.2-.6-1.31-2.01-1-2.81.3-.81,1-1.11,1-1.11,0,0-.61-.3-.5-.61.11-.31,1.1.1,1.21-.5.1-.61-.81-.61-1.31-1.3-.5-.71-1.11-1.72-1.11-1.72,0,0-.49.41-1.1,1.21-.61.8-1.21.4-1.21.91v.81s-.61-.71-1,0c-.4.7-1.2,2.11-1.2,2.11,0,0-.71.61-1,.7-.31.1-.11,1.31-.4,1.71-.31.4-1.22-.3-1.72.2-.5.5-.71.4-.61,1.2.1.81,0,1.91-.1,2.62-.1.7.81.3.91,1.2.1.91-.1,1.21.3,1.31.41.1.81.1.81.1,0,0-.3.71.21,1Z"/>
    <path class="cls-2" d="M477.1,203.96l-1,.5s-.71,2.31-.71,3.01.81.3.91.9c.1.61-.3,2.42.3,2.52.6.1.71-.2.71-.2,0,0-.11-1.91.39-2.21.5-.3.4.1.5.7.1.6,1.31,1.51,1.31,1.51,0,0,.5-.61.6-1.21.11-.6-1-1.01-1-1.41s.11-.8.11-.8c0,0-.71-.7-1.12-1.4-.4-.71-.2-1.11-1-1.91Z"/>
    <path class="cls-2" d="M478.84,205.68s.44-1.13.96-.96,1.22.35,1.92,0c.7-.35,1.57-1.12,1.57-1.12,0,0,0,.69-.53,1.38-.52.7-1.22.61-1.22.61l-.7.18s-1.48-.18-2.01-.09Z"/>
    <path class="cls-2" d="M476.62,214.47s.71-.38.98-.29c.27.1.89.77.89.77v.77h-.62s-.36,0-.63-.29c-.27-.28-.72-.28-.63-.95Z"/>
    <path class="cls-2" d="M474.67,213.1s.71-.77,1.15-.77.89-.29,1.6.19c.72.47,1.07.1,1.07.38,0,.29-.62.39-.98.67-.35.29-.09.11-.62.2-.54.09-1.33,0-2.23-.67Z"/>
    <path class="cls-2" d="M479.13,214.31c-.43-.23.27-.77.27-1.06v-1.24s1.06-.28,1.42-.57c.35-.29.98-.76.98-.76,0,0,1.24,0,1.24.28s-1.24.87-1.51,1.15c-.26.29-.71.96-.89,1.24-.18.29-.45,1.53-1.51.96Z"/>
    <path class="cls-2" d="M481.4,207.86s1.66.17,2.09.23c.42.06,1.28.33,1.28.33,0,0-.25.73.06,1.03.3.31,1.14.43,1.14.43,0,0,.35-1.41.9-1.53.55-.11,1.34-.21,2.06.15.74.37,1.46.74,1.94.71.49-.03,1.17-.25,1.49-.32.31-.06,1.38.38,1.72.84.34.45.2.93.52.93.33,0,1.52.27,1.48.51-.03.22-.62.5-.26,1.03.35.52.99.84,1.39,1.57.4.74,1.22,1.54,1.22,1.54,0,0-.95-.25-1.57-.11-.62.13-.96.05-.96.05,0,0-.07-.73-.41-.81-.35-.08-.76-.13-.76-.13,0,0-.08-.36-.2-.56-.12-.2-.3-.68-.3-.68,0,0-.13.17-.47.09-.34-.07-.54-.26-.57-.03-.03.23.27.54.04.96-.23.42-.57.34-.57.34l.41.44s-.22.12-.53.18c-.31.07-.99-.01-1.36.14-.37.15-.68.22-.68.22,0,0-.54-.26-.71-1.04-.17-.78-.89.04-1.18-.2-.29-.24.34-.67-.16-1.16-.52-.49-1.01-.91-1.01-.91l-.96-.32s-1.1-.22-2.03-.77c-.93-.55-1.07-.82-1.07-.82l-.17-.41-1.05-.38s-1.4-1.05-.81-1.54"/>
    <path class="cls-2" d="M484.38,196.79c.3,0,2.01.8,2.01.8,0,0-.61-1.8,0-1.61.6.2,1,.1,1,.1,0,0-1.2-2.11-1-2.51.2-.41.2-.71.2-.71l-.71-1s-1.3.8-1.3,1.8-.31,1.01-.31,1.01l.71.31-.6,1.5"/>
    <path class="cls-2" d="M479.34,188.25s.71.1.71.7,0,1.41-.1,1.81-.11.3-.5,1c-.4.71-.4,2.01-1.21,1.41-.8-.6-.4-.9.1-1.91.5-1.01.61-.91.61-1.51s-.11-.91.39-1.51Z"/>
    <path class="cls-2" d="M482.36,188.55s1.11.21,1.51.71c.4.5.4,1.7.4,2.21s-.3.81-.3.81c0,0-1.61-1.31-1.81-2.11-.21-.8-.1-1.2.2-1.61Z"/>
    <path class="cls-2" d="M484.27,188.25s.5-.31,1-.11c.5.21.81.41.81.91s.5,1.41.11,1.41-.71.3-1.01-.2c-.3-.5-.8-.5-.9-1.1-.1-.61-.8.3,0-.91Z"/>
    <path class="cls-2" d="M482.46,185.13l-.5.91s.41.6.91.8c.5.2.4.8,1.01.2.61-.6.4-1.2,0-1.51-.4-.31-1.01-.8-1.51-.7"/>
    <path class="cls-2" d="M479.95,185.73s1.31.5,1.51.8c.21.3.71.91.31,1.31-.4.41-1.51.5-1.72-.51-.2-1-.81-.8-.1-1.6Z"/>
    <path class="cls-2" d="M481.26,185.22s.61-.6.41-1.6c-.21-1.01.1-.91.1-1.31s.19-.7-.21-1.1c-.4-.4-1.31-1.61-1.31-1.61,0,0-.5-.41-1.1-.41s-1.31.3-1,.81c.29.5.4.5.29,1.1-.1.6-.59.91-.4,1.4.2.51,1.2.51,1.11,1.21-.11.7-.91.9-.11,1.01.81.1.81,1.2,2.21.49Z"/>
    <path class="cls-2" d="M483.36,194.28s.21.5.11.91c-.11.4-.5,1-.5,1,0,0-.61.4-.61-.6s-.2-1.61.91-1.61"/>
    <path class="cls-2" d="M489.27,219.84s1.18-.41,1.53-.25c.34.17.14,1.37.14,1.37l-.89,1.7s.07,2.29-.26,3.05c-.31.71-1.17,2.59-1.17,2.59l-1.2,1.38-.17,1.29.04.89-.94,1.74s-1.09,1.75-1.44,2.22c-.35.47-1.77,1.66-1.77,1.66,0,0-4.09,2.46-4.5,2.52-.41.05-2.75,1.09-3.21,1.4-.47.32-3.8,2.38-4.93,2.7-1.13.32-4.31.8-4.31.8l-2.34-.44-.58-1.18,2.21-.38.62-.43-2.65-.89.79-1.34s-3.37-.63-3.77-.7c-.38-.07-1,.34-1,.34l-2.35-.3-1.39.95s-1.47-.01-2.12-.13-1.05.61-1.7.49c-.64-.12-2.7-.64-2.7-.64l-.84.92s-.8-.02-.99-.46c-.19-.44-1.28-1.04-1.28-1.04,0,0,.39-.6,1.15-1.13.77-.53,1.54-1.05,1.54-1.05l.1-1.19-.8-.03-.27-.72s.95-.76,1.04-1.28c.1-.52.76-1.87.76-1.87l.11-.65-.57-.5.9-1.18,1.23-.16s1.29-.44,1.91-.18l.63.25s1.01.32,1.96-.44c.95-.77,1.82-1.81,1.82-1.81,0,0,.19-1.04.76-1.2.57-.16,2.17-.13,2.17-.13l-.24,1.3.39.07,1.21-.71s-.24-.86.63-1.23c.87-.38,1.59-.64,1.59-.64l.07-.39,2.52.2-.14,1.45.82-.79,1.29.24.71-.94.29-1.56s.36-.47,1.26-.97c.9-.5,3.27-.33,3.27-.33l.62-.42,1.53.42.45-.99.67-1.48.78-.52,1.95.36-.28.76.78.15.48-.44s.78.81,1.92.49c1.13-.32,2.51.2,2.51.2l-.11,1.32-.47,1.12-1.2-.08-1.18.58.09.96.59.38.82-.11.66.12-.27,1.42.9-.5s.8-.66,1.36-1.49c.55-.84,1.23-.84,1.45-2.02.22-1.16.52-1.2.86-1.71.34-.52.08.28.15-.78Z"/>
    <path class="cls-2" d="M479.32,244.64c-.42-.87,1.26-1.08,1.78-1.95.52-.87,2.83-.77,3.24-1.52.42-.76,4.29-1.52,4.19-1.96-.1-.43.83-1.19,1.46-.97.63.22-.63,1.3-1.36,2.06-.73.76-3.65,2.71-4.81,3.14-1.15.43-2.2.87-2.93,1.3-.73.44-1.15.76-1.56-.11Z"/>
    <path class="cls-2" d="M491.13,235.81s-.46.92-.34,1.61c.11.7,1.04-.23,1.5-.7.47-.47,1.39-.81,1.39-1.38s1.51-1.74.47-2.43c-1.04-.69-1.51,1.39-1.97,1.85-.47.46-.58.69-1.05,1.05Z"/>
    <path class="cls-2" d="M464.19,245.69s1.32-1.07,2.03-.36c.72.72.72,1.55-.24,1.55s-1.91.12-1.79-1.19Z"/>
  </g>
</svg>