<?xml version="1.0" encoding="UTF-8"?>
<svg id="Layer_1" data-name="Layer 1" xmlns="http://www.w3.org/2000/svg" version="1.1" viewBox="0 0 841.89 595.28">
  <defs>
    <style>
      .cls-1 {
        fill: #3f6432;
      }

      .cls-1, .cls-2 {
        stroke-width: 0px;
      }

      .cls-2 {
        fill: none;
      }
    </style>
  </defs>
  <rect class="cls-1" x="329.13" y="310.5" width="225" height="1.35"/>
  <g>
    <path class="cls-1" d="M373.5,222.21s.38-1.99.8-2.84c.41-1.08.41-2.7-.26-4.05.41-2.03-.95-3.2-.95-4.05s-.13-3.51-1.08-4.46c1.08-4.59,5.12-9.25,4.46-8.64-.59.54,1.67-1.84,1.67-1.84,0,0,1.28-1.56,1.85-1.99.57-.43,2.56-4.12,2.85-4.83.28-.72,0-2.14.71-2.56.71-.43,1.17-2.42,1.99-3.98.33-.63,1-1.7.56-1.99-.42-.28.24-3.06.24-3.06,0,0-2.01,1.75-2.43,1.89-.42.14-.93.47-1.5.61-.57.14-1.99,0-1.99,0h-1.56c-.43,0-.71-1-.71-1,0,0-.84-1.24-.41-1.25.44-.02-.4-1.73-.51-2.34-.08-.49-.51-1.24-1.07-1.95-.57-.71-.83-1.85-1.06-3.24-.39-.66-.79-1.74-.79-2.17s.22-.75-.03-2.31c-.81-1.01-.98-2.24-.98-2.24l.57-3.84s-.28-2.13-.14-2.7c.14-.57-.29-.66-.07-1.19.22-.53.55-3.01.71-2.85.17.17.52,2.54.31,3.56-.15.78.51-1.95.51-1.52s-.59,3.45-.3,4.17c.29.72.87,3.6,1.22,4.48.35.87-.1,1.72.41,3.25.41.71.92,2.04,1.19,3.18.3,1.14.57,2.14.57,2.7s.29,3.7.29,3.7c0,0,.39-.73-.32,1.4,1.37.11,1.76.07,2.34-.1,1.01-.3,1.96.18,2.44,0,1.32-.51,1-1.52,2.14-1.52s.64-.16,1.62-.31c1-.14,1.51-1.18,1.93-1.32.43-.14.81-.12,1.23-.3.91-.41,1.11-1.12,1.11-1.12,0,0,.58-.28,1.3-.28s1.28-.43,1.28-.43l.78-.82s.79-.75,1.21-1.32c.43-.57.7-.85.7-.85,0,0,.32-1.19,0-2.56-.8-1.48-.8.16-1.72-1.27-.31-.48.21-2.01.21-2.45s-1.02.61-2.04,1.13c-.7,0-1.32-.41-1.73-.71-.34-.26-.3-1.53-.3-1.53,0,0-.96-.89-.81-1.33.14-.43-.52-.41-.21-1.02.3-.61.81-1.62,1.76-.51.44.51.27,1.42.27,1.42,0,0,.59.85,1.01.71.43-.14.59.67,1.02.81.43.15,1.54.75,1.54.75l.28,1.85,1.42.29,1.71-.14,2.28.29s1.31-.21,2.03-.28c.72-.07,1.13.1,1.63.72.51.61.84,1.18,1.03,1.55.19.38,1,.78,1.62.99.61.2,1.73-1.02,2.24-.51-.51.51-.92,1.01-.92,1.01l-.91.2s.66,1.11,1.11,1.53c.46.41.5.54,1.42.3,1.02-1.12.17.52.1,1.22.3,1.62,2.34,3.91,2.34,4.48s1.31,4.36,1.73,4.78c.71.71.79,1.77.79,1.77,0,0,1,1.42,1.42,1.57.42.14.81,1.51.81,2.36s1.04,2.74,1.04,2.74l.38,1.83.95.65,1.08-1.61s.23-1.02,1-2.43c.77-1.4,2.26-4,2.8-4.96.91-1.62,0-1.92,0-1.92l.81.1s-.05.06.51-.1c.57-.17.91,0,.91-.71s.37-.64.37-.64l1.28-.29s-.15,0,.85-.85c1-.85,1.57-1.56,2.42-2.13.85-.57.92-1.01.78-1.58-.15-.58.93-1.67.93-1.67,0,0,.8.68,2.17.11,1.38-.57,2.7-.63,3.27-1.06.56-.42.68-.74,1.1.11.42.85.68,1.93.83,2.33.28.78.89,1.17.89,1.17,0,0,.78.83,1.11,1.27.34.44.67.22.67.22l.55.28.16.88s0,1.96,0,1.39c0-.74-.22,2.78-.22,3.78.22.49,1,.61,1.61.61.45-.61,1.91-2.21,2.55-2.72.11.66.95.55,1.06.94,0,.42.38,1.6.38,1.6,0,0,.48.62.66,1.06.56.56.34.61.34.61,0,0,.61.7.61,1.55s0,1.67-.22,2.56c-.11.44-.49,3.05-.49,3.05l.31-.43.68,1.59.94,1.28.67.62.72.83s.75.87.89,1.44.71.78,1.5,1.38c1.42.57,2.01.94,2.21,1.05.21.12.83.39,1.5.5.28.22.45-.11.61-.5-.77-.83-1.1-1.55-1.61-2.44-.14-1-.83-1.22-.83-2.05-.57-.57-2.21-1.27-3.48-1.83-.28.61-1.28-.33-1.95-.73-.43-.99-.72-.83-.72-1.83s-.15-2.24.27-2.67c.43-.43.97-1.75,1.11-2.6.14-.85.2-1.61.61-1.99.44.11,1.57-.03,1.72.22.28.45.37,1.28.5,1.83.22,1,.77,2.05.77,2.05,0,0,.28-.22.78.56.31.48.92.87.92.87h1.14c.42,0,1,2.13,1,2.55s1,.29,1.99-.56c.99-.86,1.28-.71,1.99-1.42.71-.71,2.14-1.85,2.14-3.27s.99-2.27.56-3.55c-.42-1.28-1.56-2.84-1.99-3.56-.43-.7-1.14-1.56-1.85-1.98-.72-.43-.85-1.57-.57-1.99.28-.43,1.6-1.4,2.6-1.55-.06,1.02.86,1.21,1.2,1.68.39-.17.48-.04.93-.55-.39-.51-.25-1.29.21-1.26.46.03,1.74-.1,2.46-.1s2.58-.01,3.05-.58c.48-.56,1.49-.49,2.92-1.91,1.42-1.43,1.99-2.42,3.12-3.7,1.14-1.28,2.14-1.28,2.28-3.98.14-2.7.82-2.4.67-4.47-.43-.99-1.18-4.13-1.18-4.13,0,0-1.49-1.63-2.06-1.91-.57-.29-1.41-.02-1.13-.59.29-.57.98-1.18.98-1.18,0,0,1.03-1.77,1.32-2.66-1.18-1.33-2.23-.73-2.95-.73s-2.06-.41-2.06-.41l-.71-1,.43-.85s.88-1.37,2.05-1.87c2.8-1.17,2.49,2.59,2.78,3.02.28.42,1.79.37,1.79.37l1.62,1.76s1.32.63,1.32,1.34c-.15.74.24,1.36.24,1.79s.57,1.13.57,1.56.85,2.14.85,2.14c0,0,1.62-.21,2.61-.91,1-.71.44-3.98.44-3.98,0,0-1.36-2.67-2.36-3.24-1-.56-2.5-1.32-2.5-3.38,0-.86.15-2.8,1.47-2.95,1.33-.15,1.12,1.28,2.33,1.67,1.21.4,2.39-1.57,2.54-2.85.15-1.28-.97-2.55-.97-2.55l.57-1.14-.15-2.13s-1.13-2.42-1.85-3.84c-.71-1.42-.57-2.13-.99-2.69-.43-.57-2.56-2.99-2.56-2.99l-.86-.15-.42,1.29h-1.28s-1.42-.71-.71-1.42c.71-.71.85-2.14.85-2.14l-.85-1.28v-1.28s1.56.85,2.7.7c1.14-.14,2.84.15,2.84.15l.99,1,2.42-.14-.57-1.57-.85-.99-.15-.29,1.28-.14.29-.43s.42.57.85,1.56c.42,1,.99,3.13,1.13,3.98.15.85,1,2.27,2.28,3.12,1.28.85,2.13,2.13,2.13,2.13l1.14,1.28.71.71s.15-1.43.15-2.42-1.14-1.99-1.28-2.42c-.15-.42-.15-1.85-.15-1.85,0,0-.99-1.28-1.7-1.42-.72-.14-1.28-1.42-1.28-1.42v-.71l1.41.43.57-.85-.85-.86-.85-.85,1.13.29h.86l-.25-.78-2.1-2.25s-25.89-25.6-66.16-19.15c-43.87,7.63-59.44,44.31-59.44,44.31,0,0,.49.96,1.8,1.49,1.33.53,1.23.71,1.8.81.57.09,1.04.09,1.04.09,0,0-.16-.47.62-.07.78.39.59,1.05.59,1.05l.8.77.79.43,1.21-.12s.71-.15,1.2.21c.29.22-.1,1.97-.64,3.19-.49,1.12-.98.56-1.62,1.34-.56.69-.85.84-1.35.71-.54-.16-.6.41-1.2,0-.63-.43-.68-.32-1.6-.32s-1.65-.49-2.04-.49-.54-.38-1.21-.63c-.67-.27-.36.06-.9-.24-.55-.29-1.28.09-1.28.09l-.54-2.62s-7.4,13.09-5.69,36.38c1.91,25.96,12.69,37.89,12.69,37.89Z"/>
    <path class="cls-1" d="M441.62,260.67c-45.22,0-82.01-36.79-82.01-82.01s36.79-82.02,82.01-82.02,82.02,36.79,82.02,82.02-36.79,82.01-82.02,82.01ZM441.62,99.2c-43.81,0-79.45,35.64-79.45,79.46s35.64,79.45,79.45,79.45,79.46-35.64,79.46-79.45-35.64-79.46-79.46-79.46Z"/>
    <path class="cls-1" d="M441.62,291.32c-62.12,0-112.65-50.54-112.65-112.66s50.53-112.66,112.65-112.66,112.67,50.54,112.67,112.66-50.54,112.66-112.67,112.66ZM441.62,68.04c-60.99,0-110.61,49.62-110.61,110.62s49.62,110.63,110.61,110.63,110.63-49.63,110.63-110.63-49.63-110.62-110.63-110.62Z"/>
    <g>
      <path class="cls-1" d="M370.12,230.08l2.43,2.79-1.94,3.65,4.51,5.15,3.84-1.5,2.42,2.76-17.13,6.31-2.41-2.76,8.28-16.4ZM369.17,239.27l-3.15,5.96,6.24-2.44-3.1-3.52Z"/>
      <path class="cls-1" d="M365.4,232.74l-2.01-2.7c.86-.75,1.35-1.54,1.49-2.32.14-.79-.07-1.65-.6-2.54-.57-.95-1.2-1.54-1.9-1.78-.69-.24-1.3-.2-1.83.13-.34.21-.58.48-.7.82-.12.35-.12.85.01,1.44.08.42.35,1.33.78,2.74.56,1.81.74,3.2.56,4.18-.26,1.38-.98,2.41-2.13,3.11-.74.46-1.57.65-2.46.62-.9-.02-1.75-.33-2.58-.92-.8-.59-1.55-1.44-2.22-2.57-1.09-1.82-1.52-3.44-1.27-4.86.26-1.41,1.04-2.54,2.37-3.4l1.87,2.88c-.68.57-1.06,1.17-1.14,1.78-.08.61.13,1.32.62,2.15.51.86,1.08,1.41,1.73,1.68.41.18.81.15,1.19-.08.34-.2.55-.53.62-.96.09-.57-.13-1.66-.65-3.29-.52-1.62-.81-2.89-.86-3.8-.05-.9.13-1.74.52-2.49.4-.77,1.05-1.43,1.97-1.98.85-.51,1.76-.74,2.77-.72,1.01.04,1.95.36,2.81,1,.87.64,1.68,1.59,2.45,2.85,1.1,1.83,1.53,3.51,1.27,5.01-.26,1.51-1.15,2.85-2.67,4.03Z"/>
      <path class="cls-1" d="M362.22,215.87l-15.56,6.95-1.39-3.13,15.55-6.94,1.4,3.11Z"/>
      <path class="cls-1" d="M355.16,195.56l1.05,3.53-3.29,2.52,1.96,6.55,4.12.24,1.04,3.51-18.2-1.4-1.05-3.51,14.36-11.45ZM350.46,203.5l-5.35,4.12,6.7.38-1.35-4.5Z"/>
      <path class="cls-1" d="M355.11,194.53l-16.95,1.74-.34-3.31,10.68-8.16-11.4,1.16-.33-3.15,16.96-1.75.35,3.42-10.44,8.03,11.14-1.15.33,3.16Z"/>
      <path class="cls-1" d="M354.93,165.56l-16.8-2.85.57-3.38,16.8,2.85-.57,3.38Z"/>
      <path class="cls-1" d="M355.82,159.39l-16.29-4.99.97-3.19,13.01-3.36-10.95-3.35.92-3.04,16.3,5-1.01,3.28-12.74,3.32,10.71,3.3-.93,3.03Z"/>
      <path class="cls-1" d="M355.58,142.08l1.25-3.12c1.08.35,2,.36,2.75.05.76-.3,1.37-.92,1.85-1.84.51-.99.69-1.83.54-2.54-.16-.72-.52-1.22-1.08-1.51-.35-.18-.71-.24-1.08-.15-.35.08-.76.34-1.21.76-.31.3-.95,1-1.92,2.11-1.25,1.41-2.34,2.31-3.27,2.66-1.32.49-2.57.44-3.76-.19-.77-.4-1.38-.98-1.82-1.77-.44-.78-.63-1.67-.55-2.67.07-1,.41-2.08,1.01-3.25.99-1.88,2.14-3.09,3.48-3.61,1.33-.52,2.71-.45,4.13.22l-1.46,3.11c-.85-.28-1.56-.29-2.11-.04-.57.25-1.07.8-1.52,1.66-.45.88-.63,1.66-.53,2.36.07.44.3.77.7.96.36.2.74.2,1.15.03.52-.21,1.34-.97,2.45-2.27,1.11-1.31,2.05-2.21,2.79-2.73.74-.51,1.54-.8,2.4-.87.85-.06,1.77.16,2.72.65.87.45,1.55,1.11,2.06,1.98.5.87.72,1.84.62,2.91-.09,1.07-.47,2.26-1.15,3.57-.98,1.92-2.19,3.15-3.6,3.71-1.41.57-3.02.51-4.82-.17Z"/>
      <path class="cls-1" d="M370.43,127.44l-11.33-8.49-3.01,4.02-2.31-1.72,8.09-10.79,2.32,1.74-3.03,4.02,11.32,8.49-2.06,2.74Z"/>
      <path class="cls-1" d="M376.77,119.64l-12.37-11.72,2.36-2.49,12.37,11.72-2.35,2.49Z"/>
      <path class="cls-1" d="M383.97,112.58l-9.09-10.84-3.86,3.24-1.85-2.21,10.34-8.67,1.85,2.21-3.85,3.24,9.09,10.84-2.63,2.19Z"/>
      <path class="cls-1" d="M383.13,91.55l2.96-1.72,4.66,8c.74,1.28,1.25,2.08,1.54,2.42.48.54,1.06.84,1.76.92.69.09,1.44-.11,2.28-.59.83-.49,1.37-1.03,1.6-1.63.22-.59.23-1.16.03-1.71-.21-.56-.65-1.42-1.33-2.59l-4.76-8.17,2.97-1.73,4.51,7.76c1.03,1.77,1.68,3.07,1.94,3.89.27.83.33,1.61.2,2.36-.14.76-.49,1.49-1.03,2.21-.55.71-1.4,1.42-2.57,2.09-1.4.82-2.56,1.27-3.47,1.36-.91.1-1.72,0-2.45-.27-.73-.28-1.31-.66-1.79-1.16-.68-.72-1.51-1.91-2.46-3.56l-4.58-7.88Z"/>
      <path class="cls-1" d="M409.64,97l-4.91-13.27-4.72,1.75-1-2.71,12.64-4.69,1.01,2.71-4.72,1.76,4.91,13.27-3.21,1.18Z"/>
      <path class="cls-1" d="M419.05,93.69l-3.21-16.74,12.37-2.36.54,2.83-9,1.72.7,3.69,8.39-1.6.54,2.83-8.4,1.61.87,4.54,9.32-1.79.54,2.84-12.68,2.42Z"/>
      <path class="cls-1" d="M447.03,82.41c.24-1.71.71-3.12,1.38-4.21.5-.8,1.14-1.49,1.89-2.09.76-.58,1.56-.99,2.39-1.2,1.12-.29,2.36-.35,3.74-.15,2.47.35,4.36,1.4,5.63,3.16,1.27,1.76,1.72,4,1.32,6.75-.39,2.72-1.44,4.74-3.13,6.07-1.7,1.33-3.78,1.82-6.26,1.47-2.5-.35-4.39-1.4-5.64-3.14-1.27-1.74-1.71-3.96-1.33-6.65ZM450.56,82.79c-.28,1.92-.04,3.43.71,4.55.73,1.11,1.78,1.77,3.14,1.96,1.36.19,2.54-.15,3.55-1.01,1.01-.85,1.65-2.26,1.93-4.22.27-1.93.06-3.44-.65-4.51-.71-1.08-1.77-1.71-3.17-1.91-1.4-.2-2.6.13-3.6.97-1,.84-1.63,2.24-1.91,4.17Z"/>
      <path class="cls-1" d="M464.01,93.7l5.35-16.18,11.09,3.67-.91,2.74-7.83-2.6-1.26,3.8,6.78,2.25-.91,2.73-6.78-2.24-2.28,6.89-3.25-1.07Z"/>
      <path class="cls-1" d="M491.35,106.4l8.26-11.48-4.08-2.94,1.68-2.34,10.95,7.87-1.98,2.67-3.79-3.27-8.26,11.49-2.78-2Z"/>
      <path class="cls-1" d="M499.37,112.38l12.07-12.01,8.88,8.92-2.05,2.03-6.46-6.5-2.66,2.66,6.02,6.04-2.05,2.05-6.02-6.05-3.28,3.27,6.69,6.71-2.04,2.04-9.11-9.15Z"/>
      <path class="cls-1" d="M521.24,128.6l1.04,3.33c-1.83.64-3.45.74-4.88.26-1.42-.46-2.65-1.44-3.69-2.95-1.29-1.86-1.71-3.83-1.27-5.9.44-2.07,1.76-3.88,3.96-5.39,2.34-1.61,4.56-2.26,6.67-1.94,2.13.32,3.86,1.45,5.22,3.42,1.19,1.71,1.64,3.46,1.38,5.23-.16,1.04-.68,2.11-1.58,3.2l-2.6-2.31c.6-.67.94-1.41.99-2.23.05-.82-.18-1.61-.7-2.36-.73-1.04-1.69-1.64-2.87-1.77-1.2-.13-2.63.37-4.3,1.53-1.76,1.22-2.8,2.4-3.11,3.56-.31,1.16-.11,2.25.59,3.26.52.75,1.2,1.24,2.06,1.45.85.21,1.87.07,3.08-.4Z"/>
      <path class="cls-1" d="M518.98,136.81l15.57-6.94,1.39,3.13-6.15,2.73,2.75,6.18,6.14-2.73,1.41,3.14-15.56,6.93-1.4-3.13,6.78-3.02-2.75-6.18-6.79,3.03-1.39-3.13Z"/>
      <path class="cls-1" d="M525.4,151.85l16.59-3.92.77,3.24-9.54,9.47,11.16-2.64.72,3.1-16.57,3.91-.79-3.34,9.32-9.31-10.9,2.58-.74-3.1Z"/>
      <path class="cls-1" d="M537.31,166.76c1.73-.06,3.2.15,4.39.62.88.35,1.67.85,2.39,1.49.72.65,1.26,1.36,1.62,2.15.48,1.03.75,2.24.81,3.63.09,2.5-.61,4.54-2.11,6.1-1.5,1.57-3.64,2.39-6.41,2.5-2.75.1-4.93-.58-6.53-1.99-1.62-1.44-2.45-3.4-2.56-5.9-.1-2.53.61-4.57,2.09-6.12,1.49-1.55,3.59-2.38,6.3-2.48ZM537.55,170.31c-1.92.07-3.38.58-4.34,1.49-.96.93-1.42,2.08-1.37,3.44.06,1.37.59,2.47,1.62,3.31,1.03.84,2.52,1.22,4.5,1.15,1.94-.07,3.39-.56,4.32-1.44.93-.89,1.37-2.03,1.33-3.45-.06-1.42-.59-2.54-1.59-3.37-1.01-.82-2.49-1.2-4.46-1.13Z"/>
      <path class="cls-1" d="M529.19,185.6l16.71,2.36-.48,3.39-13.86-1.97-1.2,8.5-2.86-.41,1.68-11.88Z"/>
      <path class="cls-1" d="M535.37,201.13c1.65.54,2.96,1.23,3.91,2.11.7.64,1.28,1.38,1.71,2.23.45.86.71,1.71.77,2.58.1,1.15-.08,2.38-.51,3.69-.79,2.39-2.16,4.05-4.11,4.99-1.95.93-4.24.96-6.88.09-2.6-.85-4.41-2.24-5.42-4.15-1.01-1.91-1.11-4.05-.32-6.41.79-2.4,2.15-4.08,4.09-5,1.94-.93,4.19-.97,6.77-.11ZM534.37,204.53c-1.84-.62-3.37-.65-4.6-.11-1.22.54-2.05,1.44-2.48,2.75-.44,1.29-.31,2.51.35,3.65.67,1.14,1.94,2.02,3.81,2.65,1.86.62,3.39.67,4.56.16,1.18-.5,1.99-1.44,2.43-2.78.45-1.34.35-2.58-.3-3.71-.66-1.12-1.91-1.99-3.78-2.61Z"/>
      <path class="cls-1" d="M522.82,225.79l2.51,1.44-3.66,6.37-5.87-3.39c-.25-.96-.26-2.18-.04-3.62.22-1.44.68-2.76,1.37-3.99.88-1.53,1.98-2.69,3.29-3.46,1.3-.77,2.73-1.1,4.25-.99,1.54.12,3.02.59,4.44,1.41,1.54.88,2.72,1.99,3.55,3.32.83,1.33,1.2,2.8,1.13,4.41-.06,1.22-.49,2.55-1.29,3.95-1.06,1.83-2.26,3.04-3.63,3.63-1.36.58-2.81.62-4.34.14l1.16-3.29c.85.22,1.65.16,2.4-.17.75-.33,1.37-.92,1.86-1.78.75-1.3.92-2.57.54-3.8-.39-1.24-1.4-2.33-3.02-3.27-1.75-1.01-3.3-1.37-4.63-1.1-1.32.28-2.35,1.05-3.07,2.3-.36.63-.6,1.33-.72,2.1-.13.77-.14,1.47-.05,2.11l1.86,1.08,1.95-3.4Z"/>
      <path class="cls-1" d="M509.41,234.3l5.45,4.67,11.56,1.67-2.64,3.08-7.74-1.37,2.59,7.39-2.57,3-3.46-11.17-5.42-4.65,2.22-2.6Z"/>
    </g>
    <path class="cls-2" d="M545.55,178.65c0,57.48-46.6,104.07-104.08,104.07s-104.07-46.59-104.07-104.07,46.59-104.07,104.07-104.07,104.08,46.59,104.08,104.07Z"/>
    <path class="cls-1" d="M422.05,281.79l-3.2-.62,2.36-12.07c-1.39.87-2.92,1.41-4.61,1.63l.57-2.92c.88-.11,1.9-.45,3.02-1.02,1.12-.56,1.97-1.33,2.53-2.27l2.6.51-3.26,16.75Z"/>
    <path class="cls-1" d="M426.71,278.63l3.19-.24c.06.63.24,1.12.55,1.45.3.31.74.48,1.25.5.67.02,1.24-.27,1.73-.88.49-.61.84-1.88,1.03-3.84-.85.93-1.89,1.37-3.11,1.32-1.33-.03-2.46-.59-3.4-1.65-.93-1.05-1.37-2.42-1.31-4.07.06-1.72.62-3.09,1.67-4.11,1.06-1.01,2.38-1.49,3.96-1.45,1.72.06,3.11.77,4.17,2.14,1.06,1.37,1.55,3.58,1.44,6.64-.1,3.11-.74,5.34-1.94,6.68-1.2,1.34-2.71,1.99-4.56,1.93-1.33-.04-2.39-.44-3.19-1.17-.79-.74-1.28-1.83-1.47-3.26ZM434.29,271.75c.03-1.04-.18-1.86-.64-2.44-.46-.6-1-.91-1.63-.93-.6-.02-1.09.2-1.51.67-.41.45-.63,1.22-.67,2.29-.03,1.09.15,1.9.56,2.42.42.52.94.79,1.59.81.61.03,1.15-.2,1.59-.69.45-.47.69-1.18.71-2.13Z"/>
    <path class="cls-1" d="M440.18,279.42l3.23-.55c.14.73.45,1.29.93,1.69.49.4,1.03.58,1.62.54.69-.05,1.23-.36,1.67-.95.44-.6.62-1.45.54-2.58-.07-1.05-.36-1.84-.88-2.34-.49-.49-1.13-.71-1.89-.67-.95.07-1.76.54-2.47,1.41l-2.65-.21,1.11-8.95,8.65-.56.2,3.04-6.18.39-.36,2.93c.71-.41,1.44-.63,2.21-.69,1.45-.09,2.72.35,3.8,1.36,1.09.98,1.68,2.32,1.79,4.01.09,1.41-.23,2.69-.96,3.84-1,1.59-2.49,2.44-4.44,2.57-1.56.1-2.87-.24-3.91-1.01-1.04-.78-1.7-1.87-1.99-3.27Z"/>
    <path class="cls-1" d="M454.48,277.87l3.12-.69c.15.64.39,1.09.75,1.36.35.28.79.39,1.31.34.66-.09,1.19-.45,1.59-1.12.39-.67.55-1.98.47-3.95-.7,1.03-1.68,1.61-2.89,1.75-1.33.14-2.52-.24-3.6-1.17-1.08-.92-1.69-2.2-1.87-3.84-.18-1.71.18-3.13,1.08-4.3.91-1.15,2.16-1.81,3.73-1.99,1.71-.18,3.18.33,4.43,1.54,1.23,1.2,2.02,3.34,2.34,6.38.33,3.09,0,5.39-1,6.89-1,1.5-2.42,2.34-4.26,2.54-1.32.14-2.42-.1-3.3-.73-.89-.62-1.53-1.62-1.92-3.01ZM461.02,270.01c-.1-1.05-.43-1.82-.98-2.34-.53-.52-1.11-.75-1.74-.68-.59.06-1.06.35-1.4.86-.35.51-.45,1.31-.35,2.38.12,1.08.42,1.85.91,2.31.48.46,1.04.65,1.68.58.61-.06,1.11-.36,1.48-.89.37-.53.51-1.27.4-2.21Z"/>
    <path class="cls-1" d="M443.27,260.26l-.99-.33v-.46s.04-40.38.11-80.76c.03-20.19.07-40.38.11-55.52.02-7.57.04-13.88.07-18.3q.04-7.56.69-7.58h.26s.2.17.2.17c.26.24,25.24,38.57,24.07,84.17-.71,27.6-7.25,47.4-12.61,59.14-5.82,12.77-11.4,18.9-11.64,19.15l-.28.3ZM443.89,100.07c-.16,17.63-.3,142.59-.32,157.88,1.85-2.32,6.15-8.2,10.49-17.74,5.3-11.63,11.76-31.24,12.46-58.59,1.03-40.1-17.87-73.77-22.63-81.56Z"/>
    <path class="cls-1" d="M443.74,261.59l-1.27-1.4c-.07-.05-.19-.13-.38-.26-6.84-4.67-23.84-17.94-33.96-40.29-10.11-22.35-9.16-58.78-9.15-59.15l1.28.04c-.01.36-.95,36.51,9.04,58.58,8.71,19.24,22.58,31.66,30.47,37.58-4.96-7.01-15.43-24.56-19.28-52.38-.97-7.02-1.38-17.72-1.23-24.01l1.28.03c-.15,6.24.26,16.85,1.22,23.81,4.96,35.94,21.01,54.47,21.62,55.16.13.12.16.22.18.39l.18,1.91Z"/>
    <path class="cls-1" d="M442.57,260.45c-.32,0-32.43-1.19-58.06-35.86-8.71-11.78-12.83-25.67-13.78-46.44-.15-3.43.05-7.12.61-10.95l1.27.18c-.55,3.76-.76,7.36-.6,10.71.94,20.5,4.99,34.18,13.53,45.74,19.01,25.72,41.57,32.74,51.69,34.64-7.86-3.39-23.21-11.68-35.72-28.55-14.92-20.16-17.35-56.04-17.37-56.4l1.27-.08c.02.36,2.43,35.87,17.12,55.72,17.28,23.32,39.98,29.98,40.21,30.04l-.19,1.26Z"/>
    <path class="cls-1" d="M443.22,260.43l-.36-1.23c.35-.13,34.89-13.38,42.38-70.6,3.12-23.85-8.62-47-19.03-62.21-11.31-16.54-23.52-27.55-23.64-27.66l.7-1.05c.59.29,59.05,28.97,58.04,83.62-1.22,65.59-57.53,79.01-58.1,79.14ZM446.84,101.07c4.47,4.47,12.65,13.24,20.4,24.57,10.54,15.41,22.43,38.87,19.26,63.13-3.96,30.3-15.47,48.15-24.42,57.78-4.48,4.82-8.73,8.11-12.06,10.27,15.09-6,49.08-25.1,50.01-75.55.84-45.3-39.91-72.54-53.19-80.2Z"/>
    <path class="cls-1" d="M443.62,260.63l-.21-1.26c.68-.12,68.3-12.52,68.62-79.8-6.07-73.58-69.67-80.43-70.31-80.49l.12-1.27c.65.06,65.3,6.98,71.47,81.71-.33,68.42-68.99,80.99-69.68,81.11Z"/>
    <path class="cls-1" d="M416.89,255.92l-.39-1.22c.12-.04,12.14-3.78,26.49-3.78s26.77,3.33,26.89,3.36l-.33,1.23c-.12-.03-12.39-3.32-26.56-3.32s-25.99,3.69-26.1,3.72Z"/>
    <path class="cls-1" d="M399.32,247.19l-.11-1.27c.2-.02,20.6-1.85,43.85-2.39,22.68-.51,41.5,2.37,41.69,2.4l-.2,1.26c-.19-.03-18.91-2.89-41.46-2.38-23.21.54-43.56,2.37-43.77,2.38Z"/>
    <path class="cls-1" d="M436.62,228.37c-32.45,0-62.68-3.27-63-3.3l.14-1.27c.34.04,34.54,3.72,69.31,3.25,21.17-.29,45.69-1.15,67.03-5.34l.24,1.26c-21.44,4.2-46.03,5.07-67.25,5.36-2.16.03-4.32.04-6.47.04Z"/>
    <path class="cls-1" d="M443.41,218.37c-45.07,0-75.83-7.45-76.13-7.53l.3-1.24c.31.08,30.93,7.49,75.83,7.49,34.61,0,72.56-7.42,72.94-7.5l.25,1.26c-.38.07-38.45,7.52-73.19,7.52Z"/>
    <path class="cls-1" d="M440.99,206.28c-43.12,0-77.55-9.12-77.9-9.22l.33-1.23c.35.09,34.63,9.17,77.57,9.17.8,0,1.61,0,2.42,0,38.03-.3,49.52-3.04,61.68-5.94,4.55-1.08,9.25-2.2,15.46-3.24l.21,1.26c-6.17,1.03-10.85,2.14-15.37,3.22-12.24,2.92-23.8,5.67-61.97,5.97-.81,0-1.62,0-2.43,0Z"/>
    <path class="cls-1" d="M446.14,192.93c-.9,0-1.82,0-2.74-.01-47.55-.39-82.07-10.36-82.42-10.46l.36-1.23c.34.1,34.71,10.03,82.07,10.41.92,0,1.83.01,2.73.01,48.51,0,76.07-10.71,76.35-10.82l.47,1.19c-.28.11-28.05,10.91-76.83,10.91Z"/>
    <path class="cls-1" d="M448.04,179.18c-1.67,0-3.35-.01-5.06-.04-47.04-.84-81.22-9.54-81.56-9.63l.32-1.24c.34.09,34.37,8.75,81.26,9.58,46.08.79,78.37-9.88,78.69-9.99l.41,1.21c-.31.1-30.44,10.1-74.07,10.1Z"/>
    <path class="cls-1" d="M437.8,166.24c-39.15,0-73.13-10.4-73.48-10.51l.38-1.22c.36.11,36.73,11.24,77.45,10.41,46.12-.93,76.76-10.31,77.06-10.41l.38,1.22c-.31.1-31.1,9.54-77.42,10.47-1.46.03-2.92.04-4.37.04Z"/>
    <path class="cls-1" d="M446.52,152.04c-1.45,0-2.9-.01-4.38-.04-20.6-.43-45.68-3.74-70.63-9.33-.71-.16-1.14-.26-1.25-.27l.16-1.27c.09,0,.56.11,1.37.29,24.87,5.58,49.86,8.88,70.37,9.3,39.51.8,69.62-9.87,69.91-9.98l.43,1.2c-.29.1-28.43,10.1-66,10.1Z"/>
    <path class="cls-1" d="M432.75,139.24l-.02-1.28c25.18-.41,28.72-.9,34.6-1.7,1.41-.19,2.96-.4,4.97-.63l2.3-.26c9.51-1.08,18.49-2.09,30.39-6.32l.43,1.2c-12.04,4.28-21.09,5.3-30.67,6.39l-2.3.26c-2,.23-3.54.44-4.95.63-5.92.81-9.5,1.29-34.75,1.71Z"/>
    <path class="cls-1" d="M444,128.05l-.11-1.27c.19-.01,19.01-1.6,29.56-1.94,13.08-.41,23.46-4.91,23.57-4.96l.51,1.17c-.11.04-10.7,4.64-24.04,5.06-10.52.33-29.3,1.92-29.49,1.93Z"/>
    <path class="cls-1" d="M397.12,262c0,2.39-1.93,4.32-4.32,4.32s-4.33-1.93-4.33-4.32,1.94-4.33,4.33-4.33,4.32,1.94,4.32,4.33Z"/>
    <path class="cls-1" d="M496.05,260.65c0,2.39-1.93,4.33-4.32,4.33s-4.32-1.94-4.32-4.33,1.94-4.32,4.32-4.32,4.32,1.93,4.32,4.32Z"/>
    <path class="cls-1" d="M458.32,201.7s.3-.44.6-.14c.29.31.58.36.45.52-.12.18-.61.12-.61.12,0,0-.33-.22-.44-.5Z"/>
    <path class="cls-1" d="M467.23,178.47l.46-.63s.32-.28.54-.46c.22-.19.1-.88.61-.85.5.04.73,0,.83.73-.11.26-.03,1.02-.03,1.02,0,0-.1.58-.6,1.08-.64.1-1.11.03-1.11.03,0,0-.69-.06-.69-.91Z"/>
    <polygon class="cls-1" points="387.05 237.59 387.05 236.31 499.58 235.58 499.58 236.86 387.05 237.59"/>
    <path class="cls-1" d="M376.34,148.44s.33-.56.65-.65.73.32.73.32c0,0-.16.41-.16.65s-.25.56-.49.56-.81.16-.81.16l-.57-.65.65-.41Z"/>
    <path class="cls-1" d="M383.38,204.84s.34,1.36.85,2.03c.51.68.34,2.03.34,2.03h-.68s-.35,1.19-.52,2.38c-.17,1.18-1.18,2.71-1.18,4.07s-.34,2.37-.34,3.04-.16,1.53-1.18,2.03c-1.02.51-1.52.34-1.86-.17-.34-.51.17-.85.17-1.86s-.34-2.03-.34-2.03c0,0,.84-.85.84-1.69s-.33-1.35-.33-1.35l-.34-1.02s.17-1.19.34-1.7c.17-.51.67-.85,1.69-1.36,1.01-.51,1.52-.68,1.52-1.52s.34-2.2.34-2.2c0,0,.34-.51.67-.68Z"/>
    <path class="cls-1" d="M425.07,189.16c-.53.24-2.55,2.49-2.61,3.5-.05,1.01.12,1.54.83,1.77.71.24,1.54.06,1.78-.83.24-.89.6-1.72.48-2.85-.12-1.12.06-1.83-.48-1.59Z"/>
    <g>
      <path class="cls-1" d="M489.78,131.8s.91.3,2.11,1.81c1.2,1.51,1.71,2.41,2.51,2.71.8.3,2.41,1.2,2.41,1.6s-1.71.2-1.71.2l-.21.91-.9.1s-1-2.01-1.71-3.01c-.7-1.01-1.6-1.71-2.11-2.51-.5-.81-1.1-1.31-.4-1.81Z"/>
      <path class="cls-1" d="M495.51,139.33s1.4.1,1.81.9c.4.81.61,1.31.61,1.31h-.81l.1.91s-.7-.51-1.21-1.21c-.5-.7-.7-1.31-.5-1.91Z"/>
      <path class="cls-1" d="M497.93,143.36s2.21,1.31,2.91,1.21c.71-.1,1.2-.6,1.2-.6,0,0-.4.7.1,1.1.5.41.4,1.31.1,1.31s-.4.61-1.11.61-.8-.3-1.71-1.21c-.91-.9-2.42-1.6-1.51-2.41Z"/>
      <path class="cls-1" d="M497.32,145.97s1.11-.1,1.5.5c.41.6,1.01.7.51,1-.51.3-.31.51-.9,0-.6-.5-.6-.3-.91-.7-.3-.41-.8.1-.2-.8Z"/>
      <path class="cls-1" d="M499.03,148.39s2.02-.2,2.21.2c.21.4.7,1.51.7,2.91s-.1,2.11.3,2.92c.41.81,1.1,1.41.5,2.02-.6.6-2.01,1-2.01,1v.6h-1.11s-1-.8-1.41-.9c-.39-.11-3.21.6-3.21.6h-.61s0-1.71.8-1.81c.81-.1,3.62,0,3.72-.81.1-.8-.2-1.2-.1-1.71.1-.5.81-.5.81-1s-.91-3.42-.61-4.02Z"/>
      <path class="cls-1" d="M497.12,157.97c.48-.31.94-.33,1.17,0,.23.32.82.97.35,1.29-.46.33-.7.87-1.4.23-.7-.65-.7-1.3-.7-1.3,0,0-.58.54.58-.21Z"/>
      <path class="cls-1" d="M493.88,159.81s.14-1.43,1-1.43,1.15.79,1.15,1.6,1.44,2.55.57,2.39c-.86-.16-1.29-.8-1.72-1.28-.43-.47-1,.64-1-1.28Z"/>
    </g>
    <path class="cls-1" d="M482.55,167.69c.63-.09.8.79.73,1.92-.05.65-.23,1.14-.32,1.36-.41.88-.22.86-.58,1.39-.63-.08-1.3-.72-1.22-2.01.08-1.29.13-2.48,1.38-2.66Z"/>
    <path class="cls-1" d="M449.59,200.16s1.58.1,2.57.12c1,.02.83.65,2.18,1.27,1.36.63,1.96.49,3.34.89,1.37.41,1.98.26,2.59,1.21.63.95,1.33,1.85,1.33,1.85,0,0,.61.4,1.06.43.45.03.54.76.54.76l1.43.28s1.02,2.42,1.44,2.9c.43.48.11.51.11.51l-1.54.76s-1.09-.75-1.71-.93c-.62-.17-.79.45-1.72-.69-.92-1.15-3.88-3.19-4.2-3.71-.33-.52-.8-.32-1.22-.8-.42-.48-.38-1.15-.9-1.6-.51-.44-1-.02-1-.02,0,0-1.64-1.28-1.94-1.48-.3-.2-1.83-1.21-2.14-1.18-.32.03-.24-.56-.24-.56Z"/>
    <path class="cls-1" d="M463.95,212.9s.65-.84.77-1.28c.12-.44,3.01.13,3.31.07.29-.06.11.6.37.34.26-.25,1.01-.61,1.01-.61,0,0-.12-.08.79-.15.91-.08,1.62-.11,1.62-.11l-.12.95,1.7.29.37.33s1.28-.24,1.09.3c-.2.56-.24.36-.83.47-.6.12-.91.08-1.92.18-1.01.1-1.09.21-2.2.33-1.11.11-1.59-.72-2.14-.4-.56.32-1.45.49-1.45.49,0,0-2.01-.84-2.39-1.18Z"/>
    <path class="cls-1" d="M470.25,208.23s.71-.81,1.31-.7c.61.1-.1.5.51.5s1.41-.31,1.52.1c.1.4.6,1.11.6,1.11,0,0,1.21-.71,1.32-1.21.1-.5,0-1.11.2-1.82.2-.72.6-1.62.6-2.13s.41-.71.81-1.11c.4-.4.91-.6.91-1.01s.3-.2.1-.8c-.2-.61-1.31-2.02-1.01-2.83.3-.8,1.01-1.11,1.01-1.11,0,0-.6-.3-.5-.6.1-.31,1.11.1,1.21-.51.1-.6-.81-.6-1.31-1.31-.51-.71-1.11-1.72-1.11-1.72,0,0-.5.4-1.11,1.21-.61.81-1.21.41-1.21.91v.81s-.61-.7-1.02,0c-.4.71-1.21,2.12-1.21,2.12,0,0-.71.61-1.01.71-.3.1-.1,1.31-.4,1.72-.31.41-1.22-.3-1.72.2-.51.5-.71.41-.6,1.21.1.81,0,1.93-.11,2.63-.1.71.81.3.91,1.21.1.91-.1,1.21.3,1.31.41.1.81.1.81.1,0,0-.3.71.21,1.01Z"/>
    <path class="cls-1" d="M477.93,204.36l-1.01.5s-.7,2.33-.7,3.04.81.3.91.9c.1.61-.3,2.43.3,2.53.61.1.71-.2.71-.2,0,0-.1-1.92.4-2.22.51-.31.41.1.51.71.1.6,1.32,1.51,1.32,1.51,0,0,.5-.61.6-1.21.1-.61-1.01-1.01-1.01-1.42s.1-.8.1-.8c0,0-.71-.71-1.11-1.42-.41-.7-.2-1.11-1.01-1.92Z"/>
    <path class="cls-1" d="M479.68,206.08s.44-1.14.96-.96c.53.17,1.23.36,1.93,0,.7-.35,1.58-1.13,1.58-1.13,0,0,0,.7-.53,1.39-.53.7-1.23.62-1.23.62l-.7.17s-1.49-.17-2.02-.09Z"/>
    <path class="cls-1" d="M477.46,214.92s.71-.39.98-.29c.26.1.9.77.9.77v.77h-.63s-.35,0-.62-.29c-.27-.29-.72-.29-.63-.95Z"/>
    <path class="cls-1" d="M475.49,213.53s.71-.77,1.16-.77.9-.28,1.61.2c.71.48,1.07.09,1.07.38s-.62.39-.98.67c-.36.3-.09.11-.63.2-.54.1-1.34,0-2.23-.67Z"/>
    <path class="cls-1" d="M479.97,214.75c-.43-.23.27-.77.27-1.06v-1.25s1.08-.29,1.43-.58c.36-.28.98-.76.98-.76,0,0,1.25,0,1.25.28s-1.25.87-1.52,1.15c-.26.29-.71.96-.89,1.25-.18.29-.44,1.54-1.52.96Z"/>
    <path class="cls-1" d="M482.25,208.28s1.67.16,2.09.23c.42.06,1.29.33,1.29.33,0,0-.26.73.06,1.04.31.3,1.15.43,1.15.43,0,0,.35-1.42.9-1.54.54-.11,1.34-.21,2.08.16.73.37,1.46.74,1.95.71.49-.03,1.17-.25,1.49-.32.31-.06,1.39.39,1.72.84.35.45.19.93.53.94.33,0,1.52.27,1.49.51-.03.22-.63.51-.27,1.03.36.52,1,.83,1.39,1.57.4.75,1.23,1.55,1.23,1.55,0,0-.95-.25-1.58-.12-.63.14-.97.06-.97.06,0,0-.07-.73-.42-.81-.34-.08-.76-.13-.76-.13,0,0-.08-.36-.2-.56-.12-.2-.31-.69-.31-.69,0,0-.12.17-.47.1-.34-.07-.54-.26-.57-.02-.03.23.28.54.04.96-.23.42-.58.35-.58.35l.42.44s-.22.12-.54.18c-.31.07-.98-.02-1.36.14-.37.16-.69.22-.69.22,0,0-.55-.27-.71-1.04-.16-.8-.9.03-1.19-.2-.3-.24.35-.68-.17-1.17-.51-.5-1.01-.91-1.01-.91l-.97-.32s-1.11-.22-2.04-.76c-.93-.56-1.08-.83-1.08-.83l-.17-.41-1.05-.38s-1.41-1.06-.81-1.54"/>
    <path class="cls-1" d="M485.24,197.15c.3,0,2.02.81,2.02.81,0,0-.61-1.82,0-1.62.6.2,1.01.1,1.01.1,0,0-1.21-2.12-1.01-2.53.2-.4.2-.71.2-.71l-.71-1s-1.31.81-1.31,1.82-.3,1.01-.3,1.01l.71.3-.61,1.51"/>
    <path class="cls-1" d="M480.19,188.57s.71.1.71.7,0,1.42-.11,1.82c-.1.41-.1.3-.5,1.01-.4.72-.4,2.02-1.21,1.42-.81-.6-.4-.91.1-1.92.51-1.01.61-.91.61-1.52s-.1-.91.41-1.51Z"/>
    <path class="cls-1" d="M483.22,188.87s1.11.21,1.52.7c.4.51.4,1.72.4,2.22s-.3.81-.3.81c0,0-1.62-1.32-1.82-2.13-.2-.81-.1-1.21.2-1.61Z"/>
    <path class="cls-1" d="M485.14,188.57s.51-.31,1.02-.1c.5.2.8.4.8.91s.51,1.41.11,1.41-.71.3-1.01-.2c-.3-.51-.81-.51-.91-1.11-.1-.6-.81.3,0-.9Z"/>
    <path class="cls-1" d="M483.33,185.43l-.5.91s.4.6.9.81c.51.2.41.81,1.01.2.6-.6.4-1.22,0-1.51-.41-.31-1.01-.81-1.52-.71"/>
    <path class="cls-1" d="M480.8,186.04s1.32.51,1.52.8c.2.31.71.91.3,1.32-.4.41-1.51.51-1.71-.51-.21-1.01-.81-.81-.11-1.62Z"/>
    <path class="cls-1" d="M482.11,185.53s.6-.6.41-1.62c-.2-1.01.1-.91.1-1.31s.21-.71-.2-1.11c-.4-.41-1.31-1.61-1.31-1.61,0,0-.51-.41-1.11-.41s-1.31.3-1.01.81c.31.5.41.5.31,1.11-.11.61-.61.9-.41,1.42.2.5,1.21.5,1.11,1.21-.1.71-.91.91-.1,1.01.81.1.81,1.21,2.22.5Z"/>
    <path class="cls-1" d="M484.23,194.63s.21.5.1.91c-.1.4-.5,1.01-.5,1.01,0,0-.61.41-.61-.61s-.2-1.62.91-1.62"/>
    <path class="cls-1" d="M490.15,220.31s1.2-.41,1.54-.25c.34.16.14,1.38.14,1.38l-.89,1.71s.07,2.31-.27,3.08c-.31.7-1.17,2.6-1.17,2.6l-1.2,1.39-.18,1.29.05.9-.95,1.75s-1.08,1.75-1.45,2.23c-.36.47-1.78,1.66-1.78,1.66,0,0-4.1,2.47-4.52,2.53-.41.06-2.77,1.1-3.23,1.41-.46.32-3.82,2.39-4.96,2.71-1.14.33-4.33.81-4.33.81l-2.34-.44-.59-1.18,2.23-.39.62-.42-2.66-.91.79-1.34s-3.39-.63-3.78-.7c-.39-.08-1.01.34-1.01.34l-2.37-.3-1.39.95s-1.48-.01-2.13-.13c-.65-.13-1.06.61-1.71.49-.65-.12-2.71-.64-2.71-.64l-.84.92s-.81-.01-1-.46c-.19-.44-1.29-1.04-1.29-1.04,0,0,.38-.61,1.16-1.13.77-.53,1.54-1.06,1.54-1.06l.1-1.19-.81-.02-.27-.72s.95-.77,1.05-1.29c.1-.52.76-1.88.76-1.88l.12-.65-.58-.51.9-1.18,1.24-.17s1.3-.43,1.92-.19l.63.26s1.02.32,1.97-.44c.95-.77,1.82-1.82,1.82-1.82,0,0,.19-1.04.76-1.21.57-.15,2.18-.13,2.18-.13l-.24,1.3.39.08,1.21-.72s-.25-.86.64-1.24c.87-.37,1.6-.64,1.6-.64l.07-.39,2.53.21-.14,1.46.82-.8,1.3.24.72-.94.29-1.56s.36-.47,1.27-.98c.89-.5,3.29-.33,3.29-.33l.62-.43,1.54.43.46-.99.68-1.5.77-.53,1.96.37-.28.76.78.15.49-.45s.79.82,1.93.49c1.14-.33,2.53.2,2.53.2l-.12,1.32-.48,1.13-1.2-.09-1.19.59.09.96.6.39.83-.12.65.12-.27,1.43.9-.5s.8-.66,1.36-1.5c.56-.84,1.24-.85,1.46-2.02.22-1.17.53-1.21.86-1.72.34-.51.08.29.14-.79Z"/>
    <path class="cls-1" d="M480.16,245.23c-.42-.88,1.27-1.1,1.79-1.96.53-.88,2.84-.76,3.26-1.52.42-.77,4.3-1.53,4.2-1.97-.11-.43.84-1.2,1.47-.97.63.22-.63,1.31-1.37,2.07-.73.76-3.68,2.73-4.83,3.16-1.16.43-2.21.87-2.94,1.31-.73.43-1.16.76-1.58-.11Z"/>
    <path class="cls-1" d="M492.03,236.36s-.47.93-.35,1.63c.11.7,1.04-.23,1.51-.7.47-.46,1.4-.81,1.4-1.39s1.51-1.74.46-2.44c-1.04-.7-1.51,1.4-1.97,1.86-.47.46-.58.69-1.05,1.04Z"/>
    <path class="cls-1" d="M464.97,246.28s1.32-1.08,2.04-.36c.73.71.73,1.56-.24,1.56s-1.92.12-1.8-1.2Z"/>
  </g>
  <g>
    <path class="cls-1" d="M343.24,338.11v7.6h15.36v6.78h-15.36v13.87h-6.59v-35.03h23.55v6.78h-16.96Z"/>
    <path class="cls-1" d="M384.65,350.6v15.76h-6.28v-2.65c-1.65,2.14-4.27,3.26-6.77,3.26-4.9,0-8.68-3.37-8.68-8.41s4.23-8.77,9.57-8.77c1.87,0,3.92.46,5.88,1.33v-.51c0-2.8-1.51-5.25-5.3-5.25-2.14,0-4.14.82-5.97,1.89l-2.18-4.95c3.25-1.89,6.41-2.91,9.62-2.91,6.01,0,10.11,4.33,10.11,11.22ZM378.38,358.04v-2.45c-1.47-.61-3.16-.97-4.94-.97-2.36,0-4.23,1.58-4.23,3.72s1.65,3.47,3.87,3.47c2.49,0,4.85-1.33,5.3-3.77Z"/>
    <path class="cls-1" d="M388.4,353.15c0-7.5,5.79-13.77,12.6-13.77,3.74,0,6.81,1.73,9.04,4.49l-4.32,4.23c-1.16-1.48-2.98-2.45-4.76-2.45-3.38,0-6.23,3.42-6.23,7.45s2.85,7.6,6.28,7.6c1.78,0,3.65-1.02,4.85-2.55l4.32,4.18c-2.27,2.86-5.39,4.64-9.22,4.64-6.81,0-12.56-6.32-12.56-13.82Z"/>
    <path class="cls-1" d="M435.42,339.99v26.36h-6.5v-3.31c-1.38,2.4-3.96,3.93-6.95,3.93-4.99,0-8.55-4.23-8.55-10.2v-16.78h6.28v15.2c0,3.26,1.78,5.51,4.36,5.51,2.72,0,4.81-2.24,4.81-5.1l.04.15v-15.76h6.5Z"/>
    <path class="cls-1" d="M440.54,330.71h6.5v35.65h-6.5v-35.65Z"/>
    <path class="cls-1" d="M465.92,364.67c-1.34,1.38-3.43,2.29-5.3,2.29-4.05,0-6.9-3.32-6.9-8.06v-12.9h-3.16v-6.02h3.16v-7.24h6.23v7.24h4.99v6.02h-4.99v11.73c0,1.73.98,2.96,2.18,2.96.89,0,1.78-.36,2.23-.87l1.56,4.84Z"/>
    <path class="cls-1" d="M469,373.9l1.38-5.1c1.11.71,2.27,1.17,3.03,1.17,1.25,0,2.23-.46,2.72-1.43l.8-1.94-9.57-26.62h6.72l6.05,18.51,5.74-18.51h6.63l-9.44,27.69c-1.74,5.15-4.67,7.85-8.28,7.85-1.91,0-4.23-.66-5.79-1.63Z"/>
    <path class="cls-1" d="M506.53,353.15c0-7.5,5.74-13.77,12.6-13.77s12.51,6.27,12.51,13.77-5.7,13.82-12.51,13.82-12.6-6.32-12.6-13.82ZM525.46,353.15c0-4.08-2.89-7.5-6.32-7.5s-6.37,3.42-6.37,7.5,2.89,7.55,6.37,7.55,6.32-3.47,6.32-7.55Z"/>
    <path class="cls-1" d="M543.31,339.99h4.99v6.02h-4.99v20.35h-6.23v-20.35h-3.16v-6.02h3.16v-2.29c0-4.74,2.85-8.06,6.9-8.06,1.87,0,3.96.92,5.3,2.29l-1.56,4.54c-.45-.51-1.34-.87-2.23-.87-1.2,0-2.18,1.22-2.18,2.96v1.43Z"/>
    <path class="cls-1" d="M266.79,424.85h-13.62l-1.96,5.51h-7.35l12.47-35.03h7.35l12.47,35.03h-7.39l-1.96-5.51ZM264.51,418.48l-4.54-12.8-4.54,12.8h9.08Z"/>
    <path class="cls-1" d="M302.81,394.71v35.65h-6.5v-3.77c-1.83,2.75-4.5,4.39-7.75,4.39-6.14,0-10.6-5.71-10.6-13.82s4.45-13.77,10.6-13.77c3.25,0,5.92,1.63,7.75,4.39v-13.05h6.5ZM296.31,417.15c0-4.38-2.45-7.5-5.88-7.5-3.61,0-6.14,3.11-6.14,7.5s2.54,7.55,6.14,7.55,5.88-3.11,5.88-7.55Z"/>
    <path class="cls-1" d="M305.79,403.99h6.81l6.19,17.8,6.06-17.8h6.77l-9.84,26.36h-6.01l-9.97-26.36Z"/>
    <path class="cls-1" d="M353.48,414.6v15.76h-6.28v-2.65c-1.65,2.14-4.27,3.26-6.77,3.26-4.9,0-8.68-3.37-8.68-8.41s4.23-8.77,9.57-8.77c1.87,0,3.92.46,5.88,1.33v-.51c0-2.8-1.51-5.25-5.3-5.25-2.14,0-4.14.82-5.97,1.89l-2.18-4.95c3.25-1.89,6.41-2.91,9.62-2.91,6.01,0,10.11,4.33,10.11,11.22ZM347.21,422.04v-2.45c-1.47-.61-3.16-.97-4.94-.97-2.36,0-4.23,1.58-4.23,3.72s1.65,3.47,3.87,3.47c2.49,0,4.85-1.33,5.3-3.77Z"/>
    <path class="cls-1" d="M380.38,413.58v16.78h-6.28v-15.2c0-3.26-1.78-5.51-4.36-5.51-2.72,0-4.81,2.24-4.81,5.1l-.04-.15v15.76h-6.5v-26.36h6.5v3.31c1.38-2.4,3.96-3.93,6.95-3.93,4.99,0,8.55,4.23,8.55,10.2Z"/>
    <path class="cls-1" d="M384.12,417.15c0-7.5,5.79-13.77,12.6-13.77,3.74,0,6.81,1.73,9.04,4.49l-4.32,4.23c-1.16-1.48-2.98-2.45-4.76-2.45-3.38,0-6.23,3.42-6.23,7.45s2.85,7.6,6.28,7.6c1.78,0,3.65-1.02,4.85-2.55l4.32,4.18c-2.27,2.86-5.39,4.64-9.22,4.64-6.81,0-12.56-6.32-12.56-13.82Z"/>
    <path class="cls-1" d="M425.53,422.04l4.14,4.84c-2.05,2.45-6.01,4.08-9.4,4.08-6.86,0-12.2-5.76-12.2-13.87s5.12-13.72,11.84-13.72c7.21,0,11.44,6.27,11.44,16.22h-16.61c.76,2.86,2.76,4.79,5.48,4.79,1.82,0,4.05-.97,5.3-2.35ZM414.85,414.24h10.28c-.62-2.6-2.32-4.28-4.94-4.28-2.45,0-4.5,1.63-5.34,4.28Z"/>
    <path class="cls-1" d="M459.02,394.71v35.65h-6.5v-3.77c-1.83,2.75-4.5,4.39-7.75,4.39-6.14,0-10.6-5.71-10.6-13.82s4.45-13.77,10.6-13.77c3.25,0,5.92,1.63,7.75,4.39v-13.05h6.5ZM452.52,417.15c0-4.38-2.45-7.5-5.88-7.5-3.61,0-6.14,3.11-6.14,7.5s2.54,7.55,6.14,7.55,5.88-3.11,5.88-7.55Z"/>
    <path class="cls-1" d="M474.43,425.16l3.78-5.15c2.89,2.86,6.19,4.59,10.06,4.59,3.29,0,4.99-1.73,4.99-3.93,0-2.5-1.78-3.26-6.46-4.49-6.46-1.68-11.04-3.77-11.04-10.56s4.63-10.91,11.31-10.91c4.99,0,8.86,1.79,11.98,4.84l-3.43,5.41c-2.72-2.5-5.79-3.88-8.73-3.88s-4.5,1.68-4.5,3.77c0,2.55,1.83,3.37,6.54,4.59,6.59,1.68,10.95,3.93,10.95,10.4s-4.41,11.12-11.89,11.12c-5.3,0-10.02-2.04-13.58-5.81Z"/>
    <path class="cls-1" d="M502.7,417.15c0-7.5,5.79-13.77,12.6-13.77,3.74,0,6.81,1.73,9.04,4.49l-4.32,4.23c-1.16-1.48-2.98-2.45-4.76-2.45-3.38,0-6.23,3.42-6.23,7.45s2.85,7.6,6.28,7.6c1.78,0,3.65-1.02,4.85-2.55l4.32,4.18c-2.27,2.86-5.39,4.64-9.22,4.64-6.81,0-12.56-6.32-12.56-13.82Z"/>
    <path class="cls-1" d="M527.64,396.29c0-2.09,1.56-3.98,3.56-3.98s3.47,1.89,3.47,3.98c0,2.24-1.56,4.08-3.47,4.08s-3.56-1.83-3.56-4.08ZM527.91,403.99h6.5v26.36h-6.5v-26.36Z"/>
    <path class="cls-1" d="M555.78,422.04l4.14,4.84c-2.05,2.45-6.01,4.08-9.4,4.08-6.86,0-12.2-5.76-12.2-13.87s5.12-13.72,11.84-13.72c7.21,0,11.44,6.27,11.44,16.22h-16.61c.76,2.86,2.76,4.79,5.48,4.79,1.83,0,4.05-.97,5.3-2.35ZM545.09,414.24h10.29c-.62-2.6-2.32-4.28-4.94-4.28-2.45,0-4.5,1.63-5.34,4.28Z"/>
    <path class="cls-1" d="M587.44,413.58v16.78h-6.28v-15.2c0-3.26-1.78-5.51-4.36-5.51-2.72,0-4.81,2.24-4.81,5.1l-.04-.15v15.76h-6.5v-26.36h6.5v3.31c1.38-2.4,3.96-3.93,6.95-3.93,4.99,0,8.55,4.23,8.55,10.2Z"/>
    <path class="cls-1" d="M591.18,417.15c0-7.5,5.79-13.77,12.6-13.77,3.74,0,6.81,1.73,9.04,4.49l-4.32,4.23c-1.16-1.48-2.98-2.45-4.76-2.45-3.38,0-6.23,3.42-6.23,7.45s2.85,7.6,6.28,7.6c1.78,0,3.65-1.02,4.85-2.55l4.32,4.18c-2.27,2.86-5.39,4.64-9.22,4.64-6.81,0-12.56-6.32-12.56-13.82Z"/>
    <path class="cls-1" d="M632.59,422.04l4.14,4.84c-2.05,2.45-6.01,4.08-9.4,4.08-6.86,0-12.2-5.76-12.2-13.87s5.12-13.72,11.84-13.72c7.21,0,11.44,6.27,11.44,16.22h-16.61c.76,2.86,2.76,4.79,5.48,4.79,1.83,0,4.05-.97,5.3-2.35ZM621.91,414.24h10.29c-.62-2.6-2.32-4.28-4.94-4.28-2.45,0-4.5,1.63-5.34,4.28Z"/>
    <path class="cls-1" d="M291.14,478.6v15.76h-6.28v-2.65c-1.65,2.14-4.27,3.26-6.77,3.26-4.9,0-8.68-3.37-8.68-8.41s4.23-8.77,9.57-8.77c1.87,0,3.92.46,5.88,1.33v-.51c0-2.8-1.51-5.25-5.3-5.25-2.14,0-4.14.82-5.97,1.89l-2.18-4.95c3.25-1.89,6.41-2.91,9.62-2.91,6.01,0,10.11,4.33,10.11,11.22ZM284.86,486.04v-2.45c-1.47-.61-3.16-.97-4.94-.97-2.36,0-4.23,1.58-4.23,3.72s1.65,3.47,3.87,3.47c2.49,0,4.85-1.33,5.3-3.77Z"/>
    <path class="cls-1" d="M318.04,477.58v16.78h-6.28v-15.2c0-3.26-1.78-5.51-4.36-5.51-2.72,0-4.81,2.24-4.81,5.1l-.04-.15v15.76h-6.5v-26.36h6.5v3.31c1.38-2.4,3.96-3.93,6.95-3.93,4.99,0,8.55,4.23,8.55,10.2Z"/>
    <path class="cls-1" d="M346.76,458.71v35.65h-6.5v-3.77c-1.83,2.75-4.5,4.39-7.75,4.39-6.14,0-10.6-5.71-10.6-13.82s4.45-13.77,10.6-13.77c3.25,0,5.92,1.63,7.75,4.39v-13.05h6.5ZM340.26,481.15c0-4.38-2.45-7.5-5.88-7.5-3.61,0-6.14,3.11-6.14,7.5s2.54,7.55,6.14,7.55,5.88-3.11,5.88-7.55Z"/>
    <path class="cls-1" d="M372.1,466.11h-9.53v-6.78h25.65v6.78h-9.53v28.25h-6.59v-28.25Z"/>
    <path class="cls-1" d="M408.17,486.04l4.14,4.84c-2.05,2.45-6.01,4.08-9.39,4.08-6.86,0-12.2-5.76-12.2-13.87s5.12-13.72,11.84-13.72c7.21,0,11.44,6.27,11.44,16.22h-16.61c.76,2.86,2.76,4.79,5.48,4.79,1.83,0,4.05-.97,5.3-2.35ZM397.48,478.24h10.29c-.62-2.6-2.31-4.28-4.94-4.28-2.45,0-4.5,1.63-5.34,4.28Z"/>
    <path class="cls-1" d="M416.67,481.15c0-7.5,5.79-13.77,12.6-13.77,3.74,0,6.81,1.73,9.04,4.49l-4.32,4.23c-1.16-1.48-2.98-2.45-4.76-2.45-3.38,0-6.23,3.42-6.23,7.45s2.85,7.6,6.28,7.6c1.78,0,3.65-1.02,4.85-2.55l4.32,4.18c-2.27,2.86-5.39,4.64-9.22,4.64-6.81,0-12.56-6.32-12.56-13.82Z"/>
    <path class="cls-1" d="M463.78,477.58v16.78h-6.28v-15.2c0-3.26-1.78-5.51-4.36-5.51-2.72,0-4.81,2.24-4.81,5.1v15.6h-6.5v-35.65h6.5v12.49c1.43-2.29,3.96-3.83,6.9-3.83,4.99,0,8.55,4.23,8.55,10.2Z"/>
    <path class="cls-1" d="M490.68,477.58v16.78h-6.28v-15.2c0-3.26-1.78-5.51-4.36-5.51-2.72,0-4.81,2.24-4.81,5.1l-.04-.15v15.76h-6.5v-26.36h6.5v3.31c1.38-2.4,3.96-3.93,6.95-3.93,4.99,0,8.55,4.23,8.55,10.2Z"/>
    <path class="cls-1" d="M494.42,481.15c0-7.5,5.74-13.77,12.6-13.77s12.51,6.27,12.51,13.77-5.7,13.82-12.51,13.82-12.6-6.32-12.6-13.82ZM513.34,481.15c0-4.08-2.89-7.5-6.32-7.5s-6.37,3.42-6.37,7.5,2.89,7.55,6.37,7.55,6.32-3.47,6.32-7.55Z"/>
    <path class="cls-1" d="M523.5,458.71h6.5v35.65h-6.5v-35.65Z"/>
    <path class="cls-1" d="M533.92,481.15c0-7.5,5.74-13.77,12.6-13.77s12.51,6.27,12.51,13.77-5.7,13.82-12.51,13.82-12.6-6.32-12.6-13.82ZM552.84,481.15c0-4.08-2.89-7.5-6.32-7.5s-6.37,3.42-6.37,7.5,2.89,7.55,6.37,7.55,6.32-3.47,6.32-7.55Z"/>
    <path class="cls-1" d="M586.19,467.99v23.56c0,6.78-5.12,11.58-12.38,11.58-4.05,0-7.88-1.48-10.15-3.52l2.27-5.25c1.51,1.53,4.19,2.5,6.86,2.5,4.18,0,6.86-2.19,6.86-5.61v-2.91c-1.83,2.55-4.59,4.08-7.61,4.08-5.79,0-10.2-5.2-10.2-12.54s4.41-12.49,10.2-12.49c3.12,0,6.05,1.68,7.61,4.18v-3.57h6.54ZM579.65,479.88c0-3.67-2.32-6.22-5.57-6.22s-5.57,2.55-5.57,6.22,2.32,6.27,5.57,6.27,5.57-2.6,5.57-6.27Z"/>
    <path class="cls-1" d="M590.92,501.9l1.38-5.1c1.11.71,2.27,1.17,3.03,1.17,1.25,0,2.23-.46,2.72-1.43l.8-1.94-9.57-26.62h6.72l6.05,18.51,5.74-18.51h6.63l-9.44,27.69c-1.74,5.15-4.67,7.85-8.28,7.85-1.91,0-4.23-.66-5.79-1.63Z"/>
  </g>
</svg>