<?xml version="1.0" encoding="UTF-8"?>
<svg id="Layer_1" data-name="Layer 1" xmlns="http://www.w3.org/2000/svg" version="1.1" viewBox="0 0 841.89 595.28">
  <defs>
    <style>
      .cls-1 {
        fill: none;
      }

      .cls-1, .cls-2 {
        stroke-width: 0px;
      }

      .cls-2 {
        fill: #fff;
      }
    </style>
  </defs>
  <rect class="cls-2" x="300.94" y="181.99" width="1.29" height="214.33"/>
  <g>
    <path class="cls-2" d="M348.32,199.7v9.02h18.24v8.05h-18.24v16.46h-7.82v-41.58h27.96v8.05h-20.14Z"/>
    <path class="cls-2" d="M397.48,214.53v18.7h-7.45v-3.15c-1.96,2.54-5.07,3.87-8.03,3.87-5.81,0-10.31-4-10.31-9.99s5.02-10.41,11.36-10.41c2.22,0,4.65.54,6.98,1.57v-.61c0-3.33-1.8-6.24-6.29-6.24-2.54,0-4.92.97-7.08,2.24l-2.59-5.87c3.86-2.24,7.61-3.45,11.42-3.45,7.14,0,12,5.15,12,13.32ZM390.02,223.37v-2.91c-1.74-.73-3.75-1.15-5.87-1.15-2.8,0-5.02,1.88-5.02,4.42s1.96,4.12,4.6,4.12c2.96,0,5.76-1.57,6.29-4.48Z"/>
    <path class="cls-2" d="M401.92,217.56c0-8.9,6.87-16.34,14.96-16.34,4.44,0,8.09,2.06,10.73,5.33l-5.13,5.02c-1.38-1.76-3.54-2.91-5.66-2.91-4.02,0-7.4,4.06-7.4,8.84s3.38,9.02,7.45,9.02c2.11,0,4.33-1.21,5.76-3.03l5.13,4.96c-2.7,3.39-6.4,5.51-10.94,5.51-8.09,0-14.91-7.51-14.91-16.4Z"/>
    <path class="cls-2" d="M457.73,201.94v31.29h-7.72v-3.93c-1.64,2.84-4.7,4.66-8.25,4.66-5.92,0-10.15-5.02-10.15-12.11v-19.92h7.45v18.04c0,3.87,2.11,6.54,5.18,6.54,3.22,0,5.71-2.66,5.71-6.05l.05.18v-18.7h7.72Z"/>
    <path class="cls-2" d="M463.81,190.92h7.72v42.31h-7.72v-42.31Z"/>
    <path class="cls-2" d="M493.93,231.24c-1.58,1.63-4.07,2.72-6.29,2.72-4.81,0-8.19-3.93-8.19-9.56v-15.31h-3.75v-7.14h3.75v-8.6h7.4v8.6h5.92v7.14h-5.92v13.92c0,2.06,1.16,3.51,2.59,3.51,1.06,0,2.11-.42,2.64-1.03l1.85,5.75Z"/>
    <path class="cls-2" d="M497.58,242.19l1.64-6.05c1.32.85,2.7,1.39,3.59,1.39,1.48,0,2.64-.54,3.22-1.7l.95-2.3-11.36-31.6h7.98l7.19,21.97,6.82-21.97h7.88l-11.21,32.87c-2.06,6.11-5.55,9.32-9.83,9.32-2.27,0-5.02-.79-6.87-1.94Z"/>
    <path class="cls-2" d="M542.14,217.56c0-8.9,6.82-16.34,14.96-16.34s14.85,7.45,14.85,16.34-6.77,16.4-14.85,16.4-14.96-7.51-14.96-16.4ZM564.6,217.56c0-4.84-3.44-8.9-7.5-8.9s-7.56,4.06-7.56,8.9,3.44,8.96,7.56,8.96,7.5-4.12,7.5-8.96Z"/>
    <path class="cls-2" d="M585.8,201.94h5.92v7.14h-5.92v24.15h-7.4v-24.15h-3.75v-7.14h3.75v-2.72c0-5.63,3.38-9.56,8.19-9.56,2.22,0,4.71,1.09,6.29,2.72l-1.85,5.39c-.53-.61-1.59-1.03-2.64-1.03-1.43,0-2.59,1.45-2.59,3.51v1.69Z"/>
    <path class="cls-2" d="M364.81,299.34h-16.17l-2.33,6.54h-8.72l14.8-41.58h8.72l14.8,41.58h-8.77l-2.33-6.54ZM362.12,291.77l-5.39-15.19-5.39,15.19h10.78Z"/>
    <path class="cls-2" d="M407.57,263.56v42.31h-7.72v-4.48c-2.17,3.27-5.34,5.21-9.2,5.21-7.29,0-12.58-6.78-12.58-16.4s5.29-16.34,12.58-16.34c3.86,0,7.03,1.94,9.2,5.21v-15.5h7.72ZM399.85,290.2c0-5.21-2.91-8.9-6.98-8.9-4.28,0-7.29,3.69-7.29,8.9s3.01,8.96,7.29,8.96,6.98-3.69,6.98-8.96Z"/>
    <path class="cls-2" d="M411.11,274.58h8.09l7.35,21.13,7.19-21.13h8.03l-11.68,31.29h-7.14l-11.84-31.29Z"/>
    <path class="cls-2" d="M467.72,287.17v18.7h-7.45v-3.15c-1.96,2.54-5.07,3.87-8.03,3.87-5.81,0-10.31-4-10.31-9.99s5.02-10.41,11.36-10.41c2.22,0,4.65.54,6.98,1.57v-.61c0-3.33-1.8-6.24-6.29-6.24-2.54,0-4.92.97-7.08,2.24l-2.59-5.87c3.86-2.24,7.61-3.45,11.42-3.45,7.14,0,12,5.15,12,13.32ZM460.27,296.01v-2.91c-1.74-.73-3.75-1.15-5.87-1.15-2.8,0-5.02,1.88-5.02,4.42s1.96,4.12,4.6,4.12c2.96,0,5.76-1.57,6.29-4.48Z"/>
    <path class="cls-2" d="M499.64,285.96v19.92h-7.45v-18.04c0-3.87-2.11-6.54-5.18-6.54-3.22,0-5.71,2.66-5.71,6.05l-.05-.18v18.7h-7.72v-31.29h7.72v3.93c1.64-2.84,4.7-4.66,8.25-4.66,5.92,0,10.15,5.02,10.15,12.11Z"/>
    <path class="cls-2" d="M504.08,290.2c0-8.9,6.87-16.34,14.96-16.34,4.44,0,8.09,2.06,10.73,5.33l-5.13,5.02c-1.37-1.76-3.54-2.91-5.66-2.91-4.02,0-7.4,4.06-7.4,8.84s3.38,9.02,7.45,9.02c2.11,0,4.33-1.21,5.76-3.03l5.13,4.96c-2.7,3.39-6.4,5.51-10.94,5.51-8.09,0-14.91-7.51-14.91-16.4Z"/>
    <path class="cls-2" d="M553.24,296.01l4.92,5.75c-2.43,2.91-7.14,4.84-11.15,4.84-8.14,0-14.48-6.84-14.48-16.46s6.08-16.28,14.06-16.28c8.56,0,13.58,7.45,13.58,19.25h-19.72c.9,3.39,3.28,5.69,6.5,5.69,2.17,0,4.81-1.15,6.29-2.78ZM540.55,286.75h12.21c-.74-3.09-2.75-5.08-5.87-5.08-2.91,0-5.34,1.94-6.34,5.08Z"/>
    <path class="cls-2" d="M592.98,263.56v42.31h-7.72v-4.48c-2.17,3.27-5.34,5.21-9.2,5.21-7.29,0-12.58-6.78-12.58-16.4s5.29-16.34,12.58-16.34c3.86,0,7.03,1.94,9.2,5.21v-15.5h7.72ZM585.27,290.2c0-5.21-2.91-8.9-6.98-8.9-4.28,0-7.29,3.69-7.29,8.9s3.01,8.96,7.29,8.96,6.98-3.69,6.98-8.96Z"/>
    <path class="cls-2" d="M611.27,299.7l4.49-6.11c3.44,3.39,7.35,5.45,11.95,5.45,3.91,0,5.92-2.06,5.92-4.66,0-2.97-2.11-3.87-7.66-5.33-7.66-2-13.11-4.48-13.11-12.53s5.5-12.95,13.42-12.95c5.92,0,10.52,2.12,14.22,5.75l-4.07,6.42c-3.22-2.97-6.87-4.6-10.36-4.6s-5.34,2-5.34,4.48c0,3.03,2.17,4,7.77,5.45,7.82,2,13,4.66,13,12.35s-5.23,13.2-14.11,13.2c-6.29,0-11.89-2.42-16.12-6.9Z"/>
    <path class="cls-2" d="M644.83,290.2c0-8.9,6.87-16.34,14.96-16.34,4.44,0,8.09,2.06,10.73,5.33l-5.13,5.02c-1.37-1.76-3.54-2.91-5.66-2.91-4.02,0-7.4,4.06-7.4,8.84s3.38,9.02,7.45,9.02c2.11,0,4.33-1.21,5.76-3.03l5.13,4.96c-2.7,3.39-6.4,5.51-10.94,5.51-8.09,0-14.91-7.51-14.91-16.4Z"/>
    <path class="cls-2" d="M674.43,265.44c0-2.48,1.85-4.72,4.23-4.72s4.12,2.24,4.12,4.72c0,2.66-1.85,4.84-4.12,4.84s-4.23-2.18-4.23-4.84ZM674.75,274.58h7.72v31.29h-7.72v-31.29Z"/>
    <path class="cls-2" d="M707.83,296.01l4.92,5.75c-2.43,2.91-7.14,4.84-11.15,4.84-8.14,0-14.48-6.84-14.48-16.46s6.08-16.28,14.06-16.28c8.56,0,13.58,7.45,13.58,19.25h-19.72c.9,3.39,3.28,5.69,6.5,5.69,2.17,0,4.81-1.15,6.29-2.78ZM695.15,286.75h12.21c-.74-3.09-2.75-5.08-5.87-5.08-2.91,0-5.34,1.94-6.34,5.08Z"/>
    <path class="cls-2" d="M745.42,285.96v19.92h-7.45v-18.04c0-3.87-2.11-6.54-5.18-6.54-3.22,0-5.71,2.66-5.71,6.05l-.05-.18v18.7h-7.72v-31.29h7.72v3.93c1.64-2.84,4.7-4.66,8.25-4.66,5.92,0,10.15,5.02,10.15,12.11Z"/>
    <path class="cls-2" d="M749.85,290.2c0-8.9,6.87-16.34,14.96-16.34,4.44,0,8.09,2.06,10.73,5.33l-5.13,5.02c-1.37-1.76-3.54-2.91-5.66-2.91-4.02,0-7.4,4.06-7.4,8.84s3.38,9.02,7.45,9.02c2.11,0,4.33-1.21,5.76-3.03l5.13,4.96c-2.7,3.39-6.4,5.51-10.94,5.51-8.09,0-14.91-7.51-14.91-16.4Z"/>
    <path class="cls-2" d="M799.01,296.01l4.92,5.75c-2.43,2.91-7.14,4.84-11.15,4.84-8.14,0-14.48-6.84-14.48-16.46s6.08-16.28,14.06-16.28c8.56,0,13.58,7.45,13.58,19.25h-19.72c.9,3.39,3.28,5.69,6.5,5.69,2.17,0,4.81-1.15,6.29-2.78ZM786.32,286.75h12.21c-.74-3.09-2.75-5.08-5.87-5.08-2.91,0-5.34,1.94-6.34,5.08Z"/>
    <path class="cls-2" d="M364.5,359.81v18.7h-7.45v-3.15c-1.96,2.54-5.07,3.87-8.03,3.87-5.81,0-10.31-4-10.31-9.99s5.02-10.41,11.36-10.41c2.22,0,4.65.54,6.98,1.57v-.61c0-3.33-1.8-6.24-6.29-6.24-2.54,0-4.92.97-7.08,2.24l-2.59-5.87c3.86-2.24,7.61-3.45,11.42-3.45,7.14,0,12,5.15,12,13.32ZM357.04,368.65v-2.91c-1.74-.73-3.75-1.15-5.87-1.15-2.8,0-5.02,1.88-5.02,4.42s1.96,4.12,4.6,4.12c2.96,0,5.76-1.57,6.29-4.48Z"/>
    <path class="cls-2" d="M396.42,358.6v19.92h-7.45v-18.04c0-3.87-2.11-6.54-5.18-6.54-3.22,0-5.71,2.66-5.71,6.05l-.05-.18v18.7h-7.72v-31.29h7.72v3.93c1.64-2.84,4.7-4.66,8.25-4.66,5.92,0,10.15,5.02,10.15,12.11Z"/>
    <path class="cls-2" d="M430.51,336.2v42.31h-7.72v-4.48c-2.17,3.27-5.34,5.21-9.2,5.21-7.29,0-12.58-6.78-12.58-16.4s5.29-16.34,12.58-16.34c3.86,0,7.03,1.94,9.2,5.21v-15.5h7.72ZM422.79,362.84c0-5.21-2.91-8.9-6.98-8.9-4.28,0-7.29,3.69-7.29,8.9s3.01,8.96,7.29,8.96,6.98-3.69,6.98-8.96Z"/>
    <path class="cls-2" d="M460.58,344.98h-11.31v-8.05h30.45v8.05h-11.31v33.53h-7.82v-33.53Z"/>
    <path class="cls-2" d="M503.4,368.65l4.92,5.75c-2.43,2.91-7.14,4.84-11.15,4.84-8.14,0-14.48-6.84-14.48-16.46s6.08-16.28,14.06-16.28c8.56,0,13.58,7.45,13.58,19.25h-19.72c.9,3.39,3.28,5.69,6.5,5.69,2.17,0,4.81-1.15,6.29-2.78ZM490.71,359.39h12.21c-.74-3.09-2.75-5.08-5.87-5.08-2.91,0-5.34,1.94-6.34,5.08Z"/>
    <path class="cls-2" d="M513.49,362.84c0-8.9,6.87-16.34,14.96-16.34,4.44,0,8.09,2.06,10.73,5.33l-5.13,5.02c-1.37-1.76-3.54-2.91-5.66-2.91-4.02,0-7.4,4.06-7.4,8.84s3.38,9.02,7.45,9.02c2.11,0,4.33-1.21,5.76-3.03l5.13,4.96c-2.7,3.39-6.4,5.51-10.94,5.51-8.09,0-14.91-7.51-14.91-16.4Z"/>
    <path class="cls-2" d="M569.41,358.6v19.92h-7.45v-18.04c0-3.87-2.11-6.54-5.18-6.54-3.22,0-5.71,2.66-5.71,6.05v18.52h-7.72v-42.31h7.72v14.83c1.69-2.72,4.7-4.54,8.19-4.54,5.92,0,10.15,5.02,10.15,12.11Z"/>
    <path class="cls-2" d="M601.33,358.6v19.92h-7.45v-18.04c0-3.87-2.11-6.54-5.18-6.54-3.22,0-5.71,2.66-5.71,6.05l-.05-.18v18.7h-7.72v-31.29h7.72v3.93c1.64-2.84,4.7-4.66,8.25-4.66,5.92,0,10.15,5.02,10.15,12.11Z"/>
    <path class="cls-2" d="M605.77,362.84c0-8.9,6.82-16.34,14.96-16.34s14.85,7.45,14.85,16.34-6.77,16.4-14.85,16.4-14.96-7.51-14.96-16.4ZM628.24,362.84c0-4.84-3.44-8.9-7.5-8.9s-7.56,4.06-7.56,8.9,3.44,8.96,7.56,8.96,7.5-4.12,7.5-8.96Z"/>
    <path class="cls-2" d="M640.29,336.2h7.72v42.31h-7.72v-42.31Z"/>
    <path class="cls-2" d="M652.66,362.84c0-8.9,6.82-16.34,14.96-16.34s14.85,7.45,14.85,16.34-6.77,16.4-14.85,16.4-14.96-7.51-14.96-16.4ZM675.12,362.84c0-4.84-3.44-8.9-7.5-8.9s-7.56,4.06-7.56,8.9,3.44,8.96,7.56,8.96,7.5-4.12,7.5-8.96Z"/>
    <path class="cls-2" d="M714.71,347.22v27.97c0,8.05-6.08,13.74-14.69,13.74-4.81,0-9.36-1.75-12.05-4.18l2.7-6.23c1.8,1.82,4.97,2.97,8.14,2.97,4.97,0,8.14-2.6,8.14-6.66v-3.45c-2.17,3.03-5.44,4.84-9.04,4.84-6.87,0-12.1-6.17-12.1-14.89s5.23-14.83,12.1-14.83c3.7,0,7.19,2,9.04,4.96v-4.24h7.77ZM706.94,361.32c0-4.36-2.75-7.38-6.61-7.38s-6.61,3.03-6.61,7.38,2.75,7.45,6.61,7.45,6.61-3.09,6.61-7.45Z"/>
    <path class="cls-2" d="M720.31,387.47l1.64-6.05c1.32.85,2.7,1.39,3.59,1.39,1.48,0,2.64-.54,3.22-1.7l.95-2.3-11.36-31.6h7.98l7.19,21.97,6.82-21.97h7.88l-11.21,32.87c-2.06,6.11-5.55,9.32-9.83,9.32-2.27,0-5.02-.79-6.87-1.94Z"/>
  </g>
  <g>
    <path class="cls-1" d="M264.6,291.03c0,55.49-44.99,100.47-100.47,100.47s-100.48-44.98-100.48-100.47,44.99-100.47,100.48-100.47,100.47,44.98,100.47,100.47Z"/>
    <path class="cls-2" d="M98.48,333.08s.38-1.91.79-2.74c.39-1.05.39-2.61-.26-3.92.39-1.96-.91-3.09-.91-3.91s-.14-3.39-1.05-4.3c1.05-4.43,4.94-8.93,4.31-8.34-.58.53,1.6-1.78,1.6-1.78,0,0,1.23-1.51,1.78-1.92.55-.4,2.47-3.97,2.75-4.66.27-.68,0-2.06.68-2.47.69-.41,1.13-2.33,1.92-3.84.32-.6.96-1.65.55-1.92-.41-.27.22-2.96.22-2.96,0,0-1.94,1.69-2.35,1.83s-.9.45-1.44.59c-.55.14-1.92,0-1.92,0h-1.51c-.42,0-.69-.97-.69-.97,0,0-.8-1.19-.39-1.21.41-.01-.4-1.67-.49-2.26-.08-.48-.5-1.2-1.04-1.88-.55-.68-.81-1.79-1.02-3.12-.37-.64-.76-1.68-.76-2.1s.21-.72-.02-2.23c-.78-.98-.95-2.16-.95-2.16l.55-3.71s-.27-2.06-.14-2.6c.14-.55-.27-.64-.05-1.15.21-.5.52-2.91.68-2.75.16.16.49,2.46.29,3.44-.15.74.49-1.89.49-1.47s-.59,3.33-.3,4.02c.29.7.84,3.48,1.17,4.32.34.84-.09,1.67.4,3.14.4.69.89,1.97,1.16,3.07.27,1.09.55,2.06.55,2.61s.27,3.56.27,3.56c0,0,.38-.7-.31,1.36,1.33.1,1.71.07,2.25-.1.99-.29,1.9.18,2.36,0,1.28-.49.97-1.48,2.07-1.48s.61-.15,1.57-.29c.97-.14,1.46-1.14,1.87-1.28.41-.14.78-.12,1.17-.29.89-.39,1.09-1.09,1.09-1.09,0,0,.56-.27,1.25-.27s1.23-.41,1.23-.41l.75-.79s.77-.72,1.19-1.27c.41-.55.67-.82.67-.82,0,0,.31-1.14,0-2.47-.77-1.42-.77.15-1.65-1.23-.3-.46.19-1.94.19-2.36s-.98.59-1.96,1.08c-.67,0-1.27-.39-1.66-.69-.33-.25-.3-1.47-.3-1.47,0,0-.91-.86-.78-1.28.14-.41-.49-.39-.2-.98.3-.59.78-1.57,1.7-.49.42.49.27,1.38.27,1.38,0,0,.58.82.98.68.42-.14.57.65.98.79.41.14,1.48.72,1.48.72l.27,1.78,1.37.28,1.65-.14,2.19.27s1.27-.2,1.96-.27c.7-.07,1.08.1,1.57.68.49.59.81,1.14,1,1.5.18.36.97.76,1.56.95.59.19,1.67-.98,2.16-.49-.49.49-.89.98-.89.98l-.89.2s.64,1.07,1.09,1.48c.44.4.48.51,1.37.29.98-1.08.16.5.1,1.18.29,1.57,2.26,3.77,2.26,4.32s1.27,4.22,1.66,4.62c.68.69.77,1.72.77,1.72,0,0,.96,1.37,1.37,1.51.41.13.78,1.46.78,2.28s1.01,2.64,1.01,2.64l.37,1.76.91.64,1.04-1.56s.23-.98.97-2.33c.74-1.36,2.19-3.87,2.7-4.79.88-1.57,0-1.87,0-1.87l.78.1s-.05.06.49-.1c.55-.16.89,0,.89-.69s.35-.62.35-.62l1.24-.28s-.14,0,.83-.82c.96-.83,1.5-1.51,2.33-2.06.83-.55.89-.98.76-1.52-.14-.56.91-1.61.91-1.61,0,0,.76.66,2.09.11,1.33-.55,2.6-.61,3.15-1.02.54-.41.65-.72,1.07.11.41.82.66,1.87.8,2.25.26.75.85,1.13.85,1.13,0,0,.76.8,1.08,1.23.32.42.64.21.64.21l.54.27.16.86s0,1.89,0,1.34c0-.72-.22,2.68-.22,3.65.22.48.96.59,1.55.59.43-.59,1.84-2.13,2.47-2.62.11.64.91.53,1.01.9,0,.41.38,1.55.38,1.55,0,0,.46.58.64,1.02.53.54.32.59.32.59,0,0,.59.67.59,1.5s0,1.61-.21,2.46c-.11.42-.48,2.95-.48,2.95l.3-.42.66,1.54.91,1.23.64.59.7.8s.72.84.85,1.39c.14.55.7.75,1.46,1.34,1.36.55,1.94.91,2.13,1.02.2.11.81.37,1.45.48.27.21.43-.11.59-.48-.75-.81-1.07-1.5-1.55-2.36-.14-.96-.8-1.18-.8-1.98-.54-.55-2.14-1.23-3.37-1.76-.27.59-1.23-.33-1.88-.7-.4-.96-.68-.81-.68-1.77s-.15-2.15.26-2.57c.41-.41.94-1.69,1.08-2.52.13-.82.19-1.55.59-1.92.43.1,1.51-.03,1.66.21.26.43.36,1.23.48,1.77.21.96.74,1.97.74,1.97,0,0,.27-.21.76.54.29.46.89.83.89.83h1.1c.41,0,.96,2.06.96,2.47s.96.28,1.91-.55c.96-.83,1.24-.69,1.92-1.37.69-.68,2.06-1.78,2.06-3.16s.97-2.19.55-3.43c-.41-1.24-1.51-2.75-1.92-3.43-.41-.69-1.1-1.52-1.78-1.92-.69-.41-.83-1.51-.54-1.92.27-.41,1.55-1.35,2.51-1.48-.07.98.83,1.17,1.14,1.62.38-.16.46-.03.89-.53-.36-.49-.23-1.25.21-1.21.46.02,1.7-.1,2.38-.1s2.49,0,2.95-.55c.46-.55,1.45-.47,2.82-1.84,1.36-1.38,1.91-2.34,3.02-3.57,1.09-1.24,2.06-1.24,2.19-3.85.14-2.61.8-2.32.66-4.3-.41-.97-1.14-3.99-1.14-3.99,0,0-1.44-1.57-1.99-1.84-.54-.28-1.37-.02-1.09-.57.28-.55.95-1.14.95-1.14,0,0,1-1.71,1.28-2.56-1.14-1.27-2.16-.71-2.85-.71s-2-.39-2-.39l-.67-.96.4-.83s.85-1.33,1.99-1.8c2.7-1.14,2.4,2.49,2.68,2.9.28.41,1.72.37,1.72.37l1.57,1.69s1.28.61,1.28,1.29c-.14.72.23,1.32.23,1.73s.55,1.1.55,1.51.83,2.06.83,2.06c0,0,1.56-.2,2.51-.88.96-.68.44-3.83.44-3.83,0,0-1.32-2.58-2.28-3.13-.96-.54-2.41-1.28-2.41-3.27,0-.82.14-2.7,1.42-2.85,1.28-.14,1.08,1.25,2.24,1.62,1.17.38,2.32-1.52,2.45-2.75.14-1.24-.94-2.46-.94-2.46l.55-1.1-.14-2.06s-1.1-2.33-1.79-3.71c-.68-1.37-.54-2.06-.95-2.61-.42-.55-2.48-2.88-2.48-2.88l-.82-.14-.41,1.24h-1.24s-1.37-.68-.69-1.37c.69-.69.83-2.07.83-2.07l-.83-1.23v-1.23s1.51.82,2.61.68c1.1-.14,2.74.14,2.74.14l.96.97,2.34-.14-.55-1.51-.82-.97-.14-.27,1.23-.14.28-.42s.41.55.82,1.51c.4.96.96,3.02,1.1,3.84.14.83.96,2.2,2.19,3.02,1.23.82,2.06,2.06,2.06,2.06l1.1,1.23.68.69s.14-1.38.14-2.34-1.1-1.92-1.24-2.33c-.14-.41-.14-1.79-.14-1.79,0,0-.96-1.23-1.65-1.37-.69-.14-1.23-1.38-1.23-1.38v-.69l1.37.41.55-.82-.83-.83-.83-.81,1.1.27h.82l-.24-.74-2.02-2.17s-25.01-24.72-63.88-18.5c-42.35,7.37-57.38,42.78-57.38,42.78,0,0,.45.93,1.73,1.45,1.28.51,1.19.68,1.73.77.56.09,1.01.09,1.01.09,0,0-.15-.46.6-.07.75.37.56,1.01.56,1.01l.79.74.76.42,1.16-.11s.69-.15,1.15.2c.28.22-.09,1.9-.61,3.08-.48,1.08-.96.54-1.57,1.3-.54.66-.83.81-1.3.67-.52-.15-.58.4-1.16,0-.62-.42-.66-.31-1.56-.31s-1.58-.48-1.97-.48-.52-.36-1.16-.61c-.65-.25-.35.06-.88-.22-.53-.29-1.23.08-1.23.08l-.52-2.53s-7.16,12.64-5.5,35.13c1.85,25.07,12.25,36.58,12.25,36.58Z"/>
    <path class="cls-2" d="M164.26,369.88c-21.06,0-40.86-8.2-55.76-23.09-14.89-14.89-23.09-34.69-23.09-55.75,0-43.48,35.37-78.85,78.85-78.85s78.84,35.37,78.84,78.85c0,21.06-8.2,40.86-23.09,55.75-14.89,14.89-34.69,23.09-55.75,23.09ZM164.26,213.98c-42.49,0-77.05,34.56-77.05,77.05,0,20.58,8.01,39.93,22.57,54.48s33.9,22.57,54.48,22.57,39.92-8.01,54.47-22.57c14.55-14.55,22.56-33.9,22.56-54.48,0-42.49-34.56-77.05-77.04-77.05Z"/>
    <path class="cls-2" d="M164.26,399.73c-29.03,0-56.32-11.31-76.85-31.83-20.53-20.53-31.83-47.82-31.83-76.86s11.31-56.32,31.83-76.85c20.53-20.53,47.82-31.83,76.85-31.83s56.32,11.31,76.85,31.83,31.83,47.82,31.83,76.85-11.3,56.33-31.83,76.86c-20.53,20.53-47.82,31.83-76.85,31.83ZM164.26,184.15c-28.55,0-55.39,11.12-75.58,31.31-20.19,20.19-31.31,47.03-31.31,75.58s11.12,55.39,31.31,75.58c20.19,20.19,47.03,31.31,75.58,31.31s55.39-11.12,75.57-31.31c20.19-20.19,31.3-47.03,31.3-75.58s-11.12-55.39-31.3-75.58c-20.19-20.19-47.02-31.31-75.57-31.31Z"/>
    <g>
      <path class="cls-2" d="M95.23,340.69l2.35,2.69-1.88,3.52,4.36,4.98,3.71-1.45,2.34,2.67-16.54,6.09-2.33-2.67,7.99-15.83ZM94.3,349.55l-3.03,5.76,6.04-2.36-3-3.41Z"/>
      <path class="cls-2" d="M90.66,343.26l-1.94-2.61c.83-.73,1.31-1.48,1.44-2.24.12-.76-.07-1.59-.59-2.45-.55-.91-1.16-1.49-1.83-1.72-.67-.23-1.26-.18-1.77.13-.33.2-.56.46-.68.8-.11.33-.11.8.01,1.38.08.4.34,1.28.76,2.65.54,1.75.72,3.09.54,4.04-.26,1.32-.94,2.32-2.06,2.99-.72.44-1.51.63-2.38.6-.87-.03-1.7-.33-2.49-.89-.78-.57-1.5-1.39-2.15-2.47-1.06-1.76-1.47-3.32-1.22-4.68.25-1.37,1.01-2.46,2.29-3.29l1.81,2.77c-.66.56-1.02,1.13-1.11,1.72-.08.59.12,1.28.61,2.08.49.82,1.04,1.36,1.67,1.61.39.18.78.15,1.15-.07.33-.21.53-.51.6-.93.09-.55-.11-1.6-.63-3.17-.5-1.57-.78-2.8-.83-3.67-.04-.87.13-1.67.5-2.41.39-.73,1.02-1.37,1.91-1.9.81-.49,1.7-.72,2.67-.7.97.03,1.88.35,2.71.96.83.61,1.62,1.53,2.35,2.74,1.07,1.78,1.48,3.4,1.23,4.84-.26,1.46-1.11,2.76-2.58,3.89Z"/>
      <path class="cls-2" d="M87.6,326.97l-15.02,6.71-1.34-3.02,15.01-6.7,1.35,3.01Z"/>
      <path class="cls-2" d="M80.78,307.36l1.02,3.41-3.18,2.44,1.89,6.33,3.97.23,1.01,3.39-17.57-1.35-1.02-3.39,13.87-11.06ZM76.25,315.03l-5.18,3.98,6.47.36-1.29-4.34Z"/>
      <path class="cls-2" d="M80.73,306.36l-16.36,1.69-.33-3.21,10.31-7.87-11.01,1.13-.32-3.05,16.37-1.68.34,3.3-10.08,7.75,10.76-1.1.32,3.05Z"/>
      <path class="cls-2" d="M80.56,278.4l-16.22-2.76.56-3.25,16.22,2.75-.55,3.26Z"/>
      <path class="cls-2" d="M81.41,272.44l-15.72-4.81.94-3.08,12.56-3.24-10.58-3.24.9-2.93,15.74,4.82-.98,3.17-12.3,3.21,10.34,3.18-.9,2.93Z"/>
      <path class="cls-2" d="M81.19,255.72l1.21-3.01c1.04.33,1.94.34,2.66.05.72-.29,1.32-.88,1.78-1.78.49-.95.66-1.76.51-2.45-.15-.69-.49-1.18-1.03-1.45-.34-.18-.69-.24-1.03-.15-.35.08-.74.32-1.17.73-.29.29-.92.96-1.86,2.04-1.21,1.37-2.26,2.23-3.15,2.57-1.27.48-2.48.42-3.63-.18-.74-.39-1.33-.95-1.76-1.71-.43-.76-.6-1.62-.54-2.59.08-.96.41-2,.98-3.12.95-1.83,2.07-2.99,3.36-3.5,1.28-.51,2.62-.43,3.99.23l-1.41,2.99c-.82-.26-1.5-.28-2.04-.04-.54.24-1.03.77-1.46,1.6-.44.84-.61,1.6-.52,2.27.08.43.29.75.68.94.34.18.71.18,1.11.02.5-.21,1.29-.93,2.37-2.19,1.08-1.26,1.97-2.13,2.69-2.64.71-.49,1.49-.77,2.32-.83.83-.06,1.7.15,2.62.62.84.44,1.5,1.08,1.99,1.92.5.84.69,1.78.61,2.81-.09,1.04-.46,2.18-1.11,3.45-.96,1.85-2.12,3.04-3.48,3.58-1.37.54-2.93.48-4.67-.17Z"/>
      <path class="cls-2" d="M95.52,241.59l-10.92-8.2-2.93,3.88-2.22-1.67,7.81-10.41,2.23,1.67-2.91,3.89,10.93,8.2-1.99,2.64Z"/>
      <path class="cls-2" d="M101.64,234.05l-11.95-11.31,2.28-2.4,11.94,11.32-2.26,2.39Z"/>
      <path class="cls-2" d="M108.6,227.24l-8.79-10.47-3.72,3.13-1.79-2.14,9.98-8.37,1.79,2.14-3.71,3.12,8.78,10.47-2.53,2.12Z"/>
      <path class="cls-2" d="M107.78,206.93l2.86-1.66,4.49,7.72c.72,1.24,1.21,2.01,1.49,2.33.47.52,1.03.81,1.7.89.66.09,1.4-.11,2.2-.57.8-.48,1.32-1,1.54-1.57.22-.57.23-1.13.03-1.66-.2-.53-.63-1.37-1.28-2.5l-4.59-7.9,2.85-1.66,4.36,7.49c.99,1.71,1.62,2.97,1.87,3.77.26.79.32,1.55.19,2.28-.14.74-.46,1.44-.99,2.14-.53.69-1.35,1.36-2.47,2.01-1.36.79-2.47,1.23-3.35,1.32-.88.09-1.66,0-2.37-.26-.7-.27-1.27-.64-1.72-1.13-.66-.7-1.46-1.85-2.39-3.44l-4.42-7.61Z"/>
      <path class="cls-2" d="M133.37,212.19l-4.75-12.81-4.55,1.69-.97-2.62,12.21-4.53.97,2.62-4.56,1.69,4.75,12.81-3.1,1.14Z"/>
      <path class="cls-2" d="M142.47,209l-3.1-16.15,11.94-2.27.52,2.74-8.69,1.66.68,3.56,8.1-1.55.52,2.74-8.1,1.54.85,4.38,9-1.72.53,2.74-12.25,2.33Z"/>
      <path class="cls-2" d="M169.47,198.12c.24-1.65.69-3.02,1.34-4.06.48-.78,1.09-1.45,1.83-2.03.73-.56,1.5-.95,2.31-1.16,1.08-.29,2.27-.35,3.61-.15,2.4.33,4.2,1.36,5.43,3.05,1.22,1.69,1.65,3.86,1.28,6.51-.38,2.63-1.38,4.58-3.02,5.86-1.64,1.29-3.65,1.76-6.05,1.41-2.4-.34-4.23-1.35-5.44-3.03-1.22-1.68-1.64-3.82-1.27-6.42ZM172.88,198.49c-.27,1.85-.04,3.31.68,4.38.71,1.08,1.72,1.71,3.03,1.9,1.31.18,2.44-.14,3.43-.97.96-.82,1.59-2.19,1.85-4.08.27-1.86.07-3.32-.62-4.36-.69-1.04-1.71-1.65-3.06-1.85-1.35-.19-2.52.13-3.47.94-.96.81-1.57,2.16-1.84,4.03Z"/>
      <path class="cls-2" d="M185.87,209.01l5.16-15.61,10.71,3.55-.88,2.63-7.56-2.5-1.22,3.68,6.55,2.16-.88,2.65-6.55-2.16-2.2,6.65-3.14-1.04Z"/>
      <path class="cls-2" d="M212.27,221.28l7.97-11.09-3.95-2.84,1.62-2.26,10.58,7.6-1.91,2.59-3.66-3.16-7.97,11.1-2.69-1.93Z"/>
      <path class="cls-2" d="M220,227.05l11.65-11.61,8.59,8.62-1.98,1.96-6.24-6.27-2.57,2.56,5.81,5.83-1.98,1.97-5.81-5.84-3.16,3.15,6.46,6.49-1.97,1.97-8.8-8.83Z"/>
      <path class="cls-2" d="M241.12,242.71l1,3.22c-1.77.63-3.33.71-4.7.26-1.38-.45-2.57-1.4-3.57-2.86-1.25-1.79-1.66-3.69-1.23-5.69.42-2,1.7-3.74,3.82-5.21,2.25-1.55,4.4-2.18,6.44-1.87,2.05.3,3.73,1.4,5.04,3.3,1.15,1.64,1.6,3.34,1.34,5.05-.16,1.01-.66,2.04-1.52,3.1l-2.51-2.23c.59-.65.9-1.37.95-2.16.06-.79-.17-1.55-.67-2.28-.71-1-1.63-1.58-2.77-1.7-1.16-.14-2.53.36-4.15,1.47-1.7,1.18-2.71,2.33-3.01,3.44-.3,1.11-.11,2.17.57,3.15.51.72,1.16,1.19,1.99,1.4.82.2,1.81.07,2.97-.39Z"/>
      <path class="cls-2" d="M238.94,250.63l15.03-6.7,1.35,3.02-5.94,2.63,2.65,5.97,5.93-2.64,1.35,3.02-15.03,6.69-1.34-3.02,6.55-2.92-2.66-5.97-6.55,2.92-1.34-3.03Z"/>
      <path class="cls-2" d="M245.14,265.15l16.01-3.78.75,3.14-9.21,9.14,10.77-2.55.69,2.99-16,3.78-.76-3.23,8.99-8.98-10.53,2.48-.71-2.99Z"/>
      <path class="cls-2" d="M256.64,279.56c1.68-.07,3.09.14,4.25.59.85.34,1.62.82,2.31,1.45.69.61,1.21,1.3,1.56,2.06.47,1.01.73,2.17.78,3.51.1,2.43-.59,4.39-2.03,5.9-1.45,1.5-3.5,2.3-6.19,2.41-2.64.1-4.75-.55-6.3-1.92-1.56-1.39-2.37-3.29-2.46-5.7-.09-2.44.57-4.41,2.02-5.9,1.44-1.51,3.46-2.3,6.07-2.39ZM256.87,282.98c-1.85.07-3.26.55-4.18,1.44-.93.89-1.38,2.01-1.33,3.32.05,1.32.57,2.39,1.55,3.2.99.81,2.44,1.18,4.36,1.11,1.87-.06,3.26-.53,4.15-1.4.91-.85,1.33-1.97,1.28-3.33-.05-1.37-.57-2.44-1.53-3.25-.98-.79-2.4-1.16-4.31-1.09Z"/>
      <path class="cls-2" d="M248.8,297.73l16.13,2.28-.46,3.27-13.38-1.9-1.16,8.21-2.76-.39,1.63-11.47Z"/>
      <path class="cls-2" d="M254.77,312.73c1.59.52,2.85,1.2,3.77,2.04.67.61,1.23,1.33,1.65,2.15.43.83.68,1.64.74,2.48.1,1.11-.08,2.3-.49,3.57-.76,2.3-2.08,3.9-3.96,4.81-1.89.91-4.1.94-6.65.09-2.53-.83-4.26-2.16-5.24-4-.97-1.84-1.08-3.9-.32-6.19.77-2.32,2.09-3.94,3.96-4.84,1.87-.89,4.05-.93,6.53-.11ZM253.81,316.01c-1.78-.59-3.26-.63-4.44-.11-1.17.52-1.98,1.39-2.4,2.66-.41,1.25-.3,2.42.34,3.52.64,1.11,1.88,1.96,3.68,2.56,1.8.6,3.27.65,4.4.15,1.15-.48,1.94-1.38,2.36-2.69.44-1.29.33-2.48-.3-3.57-.63-1.09-1.85-1.92-3.64-2.53Z"/>
      <path class="cls-2" d="M242.64,336.55l2.42,1.39-3.53,6.14-5.68-3.25c-.23-.94-.24-2.11-.03-3.5.21-1.4.66-2.68,1.33-3.85.86-1.48,1.91-2.6,3.18-3.35,1.26-.74,2.63-1.06,4.11-.95,1.48.11,2.92.56,4.28,1.35,1.48.85,2.62,1.92,3.42,3.2.8,1.28,1.16,2.71,1.09,4.26-.05,1.18-.47,2.45-1.25,3.81-1.01,1.77-2.19,2.94-3.5,3.51-1.32.55-2.71.59-4.2.13l1.13-3.17c.83.21,1.59.15,2.33-.17.72-.32,1.32-.89,1.79-1.72.72-1.26.9-2.48.52-3.67-.38-1.2-1.35-2.26-2.92-3.15-1.7-.98-3.19-1.33-4.47-1.07-1.28.27-2.26,1.02-2.97,2.22-.35.61-.57,1.28-.69,2.02-.11.74-.14,1.42-.05,2.05l1.8,1.04,1.88-3.28Z"/>
      <path class="cls-2" d="M229.7,344.76l5.26,4.51,11.16,1.61-2.54,2.97-7.48-1.32,2.51,7.13-2.49,2.9-3.33-10.79-5.24-4.49,2.14-2.51Z"/>
    </g>
    <path class="cls-2" d="M145.36,390.61l-3.09-.6,2.27-11.65c-1.34.84-2.82,1.36-4.45,1.57l.55-2.81c.85-.11,1.83-.44,2.91-.99,1.09-.54,1.9-1.29,2.44-2.19l2.51.49-3.15,16.18Z"/>
    <path class="cls-2" d="M149.86,387.57l3.07-.24c.07.62.24,1.08.54,1.4.3.31.71.46,1.21.49.64.02,1.21-.25,1.67-.85.47-.58.8-1.82.99-3.72-.83.91-1.82,1.32-3,1.28-1.29-.03-2.38-.57-3.28-1.6-.9-1.01-1.32-2.33-1.27-3.92.05-1.65.59-2.98,1.61-3.97,1.03-.98,2.29-1.44,3.82-1.39,1.66.05,3.01.75,4.02,2.07,1.02,1.32,1.5,3.46,1.4,6.42-.1,3.01-.73,5.16-1.88,6.45-1.15,1.31-2.62,1.91-4.4,1.86-1.28-.04-2.31-.43-3.08-1.14-.76-.71-1.23-1.76-1.41-3.13ZM157.17,380.91c.03-1-.17-1.79-.61-2.34-.45-.58-.97-.89-1.58-.9-.58-.01-1.07.2-1.46.64-.39.44-.61,1.18-.64,2.21-.03,1.06.14,1.83.53,2.34.41.5.91.77,1.54.79.59.02,1.1-.2,1.53-.67.43-.46.66-1.15.68-2.07Z"/>
    <path class="cls-2" d="M162.86,388.32l3.12-.54c.13.7.43,1.25.9,1.63.47.39.99.56,1.55.53.66-.05,1.19-.35,1.61-.92.42-.57.6-1.4.53-2.49-.07-1.01-.35-1.77-.85-2.25-.48-.48-1.09-.69-1.83-.65-.92.07-1.71.51-2.38,1.35l-2.56-.2,1.07-8.64,8.35-.55.18,2.94-5.96.39-.35,2.82c.68-.39,1.39-.6,2.13-.66,1.41-.09,2.63.34,3.68,1.31,1.05.95,1.62,2.24,1.72,3.87.09,1.36-.22,2.6-.93,3.71-.97,1.52-2.4,2.35-4.29,2.47-1.51.1-2.77-.23-3.77-.97-1.02-.75-1.65-1.81-1.93-3.16Z"/>
    <path class="cls-2" d="M176.67,386.83l3.01-.67c.15.61.38,1.06.73,1.31.33.27.75.38,1.26.33.64-.09,1.15-.43,1.53-1.08.38-.65.54-1.92.46-3.81-.69,1-1.62,1.55-2.8,1.68-1.27.14-2.44-.23-3.47-1.13-1.04-.88-1.63-2.12-1.8-3.71-.18-1.65.17-3.03,1.04-4.15.87-1.11,2.08-1.75,3.6-1.92,1.65-.18,3.07.32,4.28,1.49,1.19,1.16,1.94,3.22,2.26,6.17.33,2.98,0,5.2-.96,6.64-.97,1.44-2.34,2.26-4.11,2.45-1.27.14-2.34-.1-3.19-.7-.87-.59-1.48-1.57-1.85-2.9ZM182.99,379.24c-.11-1.01-.42-1.76-.94-2.27-.52-.5-1.08-.73-1.68-.65-.58.06-1.03.34-1.36.83-.34.49-.43,1.25-.34,2.29.12,1.04.4,1.79.88,2.24.46.44,1.01.63,1.63.55.59-.06,1.07-.35,1.42-.86.36-.51.49-1.23.39-2.13Z"/>
    <path class="cls-2" d="M165.8,369.75l-.83-.33v-.37c0-.35.04-39.32.1-78.69.04-22.45.07-40.34.11-53.15.02-7.23.04-13.26.07-17.47.01-2.11.02-3.76.03-4.89,0-.57.01-1,.02-1.29.01-.49.02-.95.52-.97l.22-.03.19.17c.27.25,6.28,9.35,12.23,24.25,5.34,13.37,11.57,34.1,10.99,56.96-.38,14.7-2.79,36.53-12.17,57.07-5.62,12.31-11.17,18.41-11.23,18.47l-.25.27ZM166.37,214.87c-.15,14.8-.28,122.49-.31,152.93,1.72-2.13,5.97-7.86,10.27-17.3,5.12-11.24,11.37-30.18,12.05-56.6.58-22.51-5.53-42.95-10.75-56.13-4.51-11.38-9.28-19.73-11.25-22.91Z"/>
    <path class="cls-2" d="M165.51,370.12l-.38-.42c-.06-.05-.19-.14-.38-.26-6.6-4.51-23-17.33-32.74-38.87-9.75-21.56-8.84-56.71-8.83-57.07l1.08.03c-.01.35-.92,35.26,8.73,56.59,8.53,18.86,22.22,30.95,29.77,36.57-1.62-2.23-3.91-5.72-6.4-10.51-4.26-8.18-9.87-21.84-12.43-40.4-.93-6.69-1.34-17.04-1.19-23.17l1.08.03c-.15,6.09.26,16.35,1.18,22.99,2.54,18.39,8.09,31.9,12.3,40.01,4.4,8.46,8.28,12.94,8.59,13.29.11.1.14.18.16.32l.03.25-.57.62Z"/>
    <path class="cls-2" d="M165.18,369.93c-.32,0-7.9-.24-18.66-4.62-9.91-4.03-24.42-12.51-37.33-29.98-8.39-11.34-12.37-24.74-13.29-44.8-.15-3.31.05-6.87.59-10.56l1.07.16c-.53,3.63-.73,7.11-.58,10.36.92,19.83,4.83,33.04,13.08,44.2,12.74,17.25,27.06,25.62,36.82,29.6,5.73,2.34,10.61,3.48,13.89,4.04-7.33-3.07-22.7-11.05-35.16-27.85-14.39-19.44-16.73-54.06-16.76-54.41l1.08-.07c.02.34,2.35,34.65,16.55,53.83,16.69,22.51,38.65,28.97,38.87,29.03l-.16,1.06Z"/>
    <path class="cls-2" d="M165.78,369.92l-.3-1.04c.08-.03,8.52-3.19,17.73-13.13,8.51-9.18,19.45-26.19,23.23-55.1,1.33-10.17,0-21.06-3.96-32.36-3.17-9.06-8.03-18.41-14.44-27.78-10.92-15.97-22.7-26.59-22.82-26.7l.59-.89c.14.07,14.41,6.99,28.35,20.31,8.2,7.83,14.69,16.32,19.29,25.22,5.76,11.14,8.57,22.96,8.35,35.13-.27,14.58-3.38,27.67-9.25,38.9-4.7,8.99-11.16,16.81-19.2,23.25-13.69,10.96-27.44,14.14-27.58,14.17ZM168.8,215.75c4.2,4.17,12.38,12.83,20.13,24.15,6.46,9.45,11.36,18.88,14.57,28.03,4.01,11.46,5.36,22.52,4.01,32.86-2.11,16.13-7.92,38.9-23.56,55.75-4.68,5.04-9.11,8.34-12.41,10.4,5.23-1.98,13.22-5.69,21.18-12.07,7.92-6.34,14.28-14.05,18.9-22.91,5.78-11.07,8.84-23.99,9.11-38.4.22-11.99-2.54-23.63-8.22-34.6-4.55-8.79-10.96-17.18-19.07-24.93-9.72-9.29-19.59-15.44-24.64-18.3Z"/>
    <path class="cls-2" d="M166.17,370.11l-.18-1.07c.17-.03,16.72-2.97,33.09-13.92,9.59-6.42,17.25-14.3,22.75-23.42,6.87-11.39,10.4-24.76,10.47-39.76-1.36-16.43-5.77-30.75-13.13-42.55-5.88-9.43-13.65-17.29-23.08-23.36-16.07-10.33-31.58-11.89-31.74-11.9l.1-1.08c.16.01,15.94,1.6,32.22,12.07,9.57,6.15,17.44,14.13,23.41,23.7,7.45,11.95,11.92,26.44,13.29,43.06v.05c-.07,15.21-3.65,28.78-10.64,40.35-5.59,9.26-13.36,17.25-23.1,23.76-16.55,11.07-33.3,14.04-33.47,14.07Z"/>
    <path class="cls-2" d="M140.35,365.56l-.33-1.03c.12-.04,11.71-3.65,25.56-3.65s25.82,3.21,25.94,3.24l-.28,1.04c-.12-.03-11.97-3.21-25.66-3.21s-25.12,3.56-25.23,3.6Z"/>
    <path class="cls-2" d="M123.42,357.12l-.1-1.08c.2-.02,19.89-1.79,42.32-2.31,21.89-.51,40.06,2.29,40.24,2.31l-.17,1.07c-.18-.03-18.26-2.81-40.05-2.3-22.4.52-42.05,2.29-42.25,2.31Z"/>
    <path class="cls-2" d="M159.44,338.95c-31.33,0-60.52-3.16-60.83-3.19l.12-1.07c.33.04,33.41,3.61,66.92,3.15,27.47-.39,49.25-2.12,64.72-5.16l.21,1.06c-15.54,3.05-37.38,4.79-64.91,5.18-2.08.03-4.16.04-6.22.04Z"/>
    <path class="cls-2" d="M165.98,329.31c-22.73,0-41.49-1.98-53.23-3.64-12.73-1.8-20.18-3.62-20.26-3.64l.26-1.05c.07.02,7.49,1.83,20.17,3.62,11.7,1.65,30.4,3.62,53.06,3.62,33.42,0,70.07-7.18,70.43-7.25l.21,1.06c-.37.07-37.11,7.27-70.64,7.27Z"/>
    <path class="cls-2" d="M163.62,317.63c-41.61,0-74.84-8.8-75.17-8.89l.28-1.04c.34.09,33.44,8.85,74.89,8.85.78,0,1.57,0,2.36,0,36.72-.29,47.82-2.93,59.57-5.73,4.39-1.05,8.93-2.13,14.92-3.12l.18,1.07c-5.96.99-10.48,2.07-14.85,3.11-11.81,2.81-22.97,5.47-59.81,5.76-.79,0-1.58,0-2.36,0Z"/>
    <path class="cls-2" d="M168.59,304.73c-.87,0-1.73,0-2.61-.01-45.9-.38-79.22-10-79.55-10.1l.3-1.04c.33.1,33.52,9.67,79.25,10.05.87,0,1.75.01,2.61.01,46.88,0,73.51-10.34,73.78-10.45l.4,1c-.27.11-27.08,10.52-74.18,10.52Z"/>
    <path class="cls-2" d="M170.48,291.47c-1.62,0-3.26-.01-4.91-.04-45.42-.81-78.39-9.2-78.72-9.29l.27-1.05c.33.08,33.19,8.44,78.47,9.25,44.52.8,75.69-9.53,76-9.64l.35,1.02c-.3.1-29.37,9.74-71.45,9.74Z"/>
    <path class="cls-2" d="M160.59,278.97c-37.8,0-70.61-10.04-70.95-10.14l.32-1.03c.35.11,35.46,10.84,74.81,10.05,44.55-.9,74.13-9.96,74.42-10.05l.32,1.03c-.3.09-30.02,9.2-74.72,10.1-1.4.03-2.8.04-4.19.04Z"/>
    <path class="cls-2" d="M168.99,265.27c-1.4,0-2.8-.01-4.22-.04-19.91-.41-44.13-3.62-68.21-9.01-.61-.14-1.1-.25-1.18-.26l.13-1.07c.11.01.37.07,1.29.28,24.01,5.38,48.15,8.58,67.99,8.99,38.14.8,67.23-9.54,67.52-9.64l.37,1.02c-.28.1-27.43,9.75-63.69,9.75Z"/>
    <path class="cls-2" d="M155.69,252.9l-.02-1.08c24.32-.4,27.75-.87,33.42-1.64,1.34-.18,2.85-.39,4.79-.61.75-.09,1.49-.17,2.23-.26,9.18-1.04,17.85-2.03,29.35-6.11l.36,1.02c-11.62,4.12-20.35,5.11-29.59,6.16-.74.08-1.49.17-2.23.26-1.93.22-3.44.43-4.77.61-5.72.78-9.17,1.25-33.55,1.65Z"/>
    <path class="cls-2" d="M166.5,241.66l-.02-.2c.18-.02,18.35-1.55,28.51-1.87,12.74-.4,22.84-4.78,22.94-4.82l.08.18c-.1.04-10.24,4.44-23.02,4.84-10.16.32-28.32,1.85-28.5,1.87Z"/>
    <path class="cls-2" d="M179.9,229.38l-.02-.2c.13-.01,12.64-1.46,16.93-2.41,4.3-.96,8.02-2.4,8.06-2.42l.07.19s-3.77,1.46-8.09,2.42c-4.31.95-16.83,2.4-16.95,2.42Z"/>
    <path class="cls-2" d="M121.3,371.5c0,2.3-1.87,4.18-4.18,4.18s-4.17-1.88-4.17-4.18,1.86-4.18,4.17-4.18,4.18,1.87,4.18,4.18Z"/>
    <path class="cls-2" d="M216.8,370.19c0,2.31-1.87,4.19-4.17,4.19s-4.18-1.88-4.18-4.19,1.87-4.17,4.18-4.17,4.17,1.87,4.17,4.17Z"/>
    <path class="cls-2" d="M180.38,313.28s.28-.42.57-.13c.29.29.57.34.45.51-.12.17-.59.1-.59.1,0,0-.32-.21-.42-.48Z"/>
    <path class="cls-2" d="M188.98,290.85l.44-.6s.3-.27.52-.45c.21-.18.1-.85.58-.82.5.04.71,0,.81.7-.1.25-.03.98-.03.98,0,0-.1.57-.57,1.04-.62.11-1.08.04-1.08.04,0,0-.66-.07-.66-.89Z"/>
    <rect class="cls-2" x="110.85" y="346.42" width="108.64" height="1.08" transform="translate(-2.26 1.08) rotate(-.37)"/>
    <path class="cls-2" d="M101.22,261.87s.32-.55.63-.63.71.32.71.32c0,0-.15.39-.15.63s-.24.55-.48.55-.78.16-.78.16l-.55-.63.63-.39Z"/>
    <path class="cls-2" d="M108.03,316.32s.33,1.31.82,1.96c.49.65.33,1.96.33,1.96h-.65s-.33,1.15-.49,2.29c-.16,1.14-1.14,2.62-1.14,3.92s-.33,2.29-.33,2.94-.17,1.48-1.15,1.97c-.98.49-1.46.32-1.79-.16-.33-.49.16-.82.16-1.8s-.33-1.96-.33-1.96c0,0,.82-.81.82-1.63s-.32-1.31-.32-1.31l-.33-.98s.16-1.15.33-1.63c.16-.5.65-.82,1.64-1.31.98-.49,1.46-.66,1.46-1.48s.33-2.13.33-2.13c0,0,.33-.49.65-.65Z"/>
    <path class="cls-2" d="M148.28,301.18c-.52.23-2.46,2.41-2.51,3.38-.06.97.11,1.49.8,1.71.68.23,1.48.05,1.71-.8.23-.86.58-1.66.46-2.75-.11-1.09.06-1.77-.46-1.55Z"/>
    <g>
      <path class="cls-2" d="M210.75,245.79s.88.29,2.04,1.75c1.16,1.45,1.65,2.32,2.43,2.62.77.29,2.33,1.16,2.33,1.56s-1.65.19-1.65.19l-.19.88-.88.1s-.97-1.94-1.64-2.91c-.68-.97-1.56-1.65-2.04-2.43-.49-.78-1.07-1.26-.39-1.75Z"/>
      <path class="cls-2" d="M216.28,253.07s1.36.1,1.75.88c.39.77.58,1.26.58,1.26h-.77l.1.88s-.67-.49-1.16-1.17c-.49-.68-.68-1.26-.49-1.85Z"/>
      <path class="cls-2" d="M218.61,256.95s2.14,1.26,2.82,1.17c.67-.1,1.16-.57,1.16-.57,0,0-.39.67.09,1.06.49.38.39,1.26.1,1.26s-.39.58-1.07.58-.77-.29-1.65-1.16c-.87-.87-2.33-1.55-1.46-2.33Z"/>
      <path class="cls-2" d="M218.03,259.48s1.07-.1,1.45.49c.39.58.97.67.49.96-.49.29-.29.49-.88,0-.59-.49-.59-.29-.88-.68-.29-.38-.78.1-.19-.77Z"/>
      <path class="cls-2" d="M219.68,261.81s1.95-.2,2.14.19c.2.39.67,1.45.67,2.81s-.09,2.04.29,2.81c.39.78,1.07,1.36.49,1.94-.59.58-1.94.97-1.94.97v.58h-1.07s-.97-.78-1.36-.87c-.39-.1-3.1.58-3.1.58h-.58s0-1.64.77-1.75c.78-.1,3.5,0,3.6-.77.09-.78-.2-1.16-.1-1.65.1-.48.78-.48.78-.96s-.87-3.3-.58-3.88Z"/>
      <path class="cls-2" d="M217.84,271.06c.46-.3.9-.31,1.13,0,.22.31.78.94.34,1.24-.45.32-.68.83-1.36.21-.68-.63-.68-1.25-.68-1.25,0,0-.57.52.57-.21Z"/>
      <path class="cls-2" d="M214.72,272.85s.13-1.39.97-1.39,1.1.78,1.1,1.55,1.38,2.46.55,2.31c-.83-.15-1.24-.77-1.65-1.23-.42-.46-.97.62-.97-1.23Z"/>
    </g>
    <path class="cls-2" d="M203.76,280.45c.62-.09.78.77.7,1.85-.03.62-.21,1.11-.3,1.3-.4.85-.22.84-.55,1.35-.61-.08-1.25-.7-1.19-1.94.08-1.24.13-2.38,1.34-2.56Z"/>
    <path class="cls-2" d="M171.95,311.8s1.52.1,2.48.11c.96.02.79.62,2.11,1.23,1.32.61,1.89.47,3.22.86,1.33.39,1.9.25,2.51,1.17.59.91,1.28,1.78,1.28,1.78,0,0,.59.39,1.02.41.43.03.52.74.52.74l1.38.26s.99,2.34,1.4,2.8c.41.46.1.48.1.48l-1.49.74s-1.05-.72-1.64-.89c-.61-.17-.78.43-1.67-.68-.89-1.11-3.74-3.08-4.06-3.58-.32-.5-.77-.31-1.18-.77-.4-.46-.36-1.11-.86-1.54-.5-.42-.97-.02-.97-.02,0,0-1.58-1.24-1.87-1.43-.29-.2-1.76-1.16-2.08-1.14-.3.02-.22-.54-.22-.54Z"/>
    <path class="cls-2" d="M185.82,324.1s.63-.83.75-1.25c.12-.42,2.9.13,3.2.07.28-.06.11.57.36.32s.98-.59.98-.59c0,0-.12-.08.76-.15.88-.08,1.57-.11,1.57-.11l-.11.91,1.65.28.36.32s1.25-.25,1.05.29c-.19.53-.22.34-.8.45-.58.11-.88.07-1.86.17-.97.08-1.05.21-2.12.32-1.08.11-1.53-.7-2.07-.39-.54.3-1.4.47-1.4.47,0,0-1.94-.81-2.31-1.13Z"/>
    <path class="cls-2" d="M191.9,319.58s.68-.77,1.26-.67c.58.1-.1.48.49.48s1.36-.29,1.46.1c.09.39.59,1.07.59,1.07,0,0,1.17-.68,1.27-1.17.1-.48,0-1.07.2-1.75.2-.69.59-1.56.59-2.05s.39-.68.78-1.07c.39-.39.88-.59.88-.98s.29-.19.1-.78c-.2-.58-1.27-1.95-.97-2.73.29-.78.97-1.07.97-1.07,0,0-.59-.29-.49-.59.1-.3,1.07.1,1.17-.49.1-.59-.78-.59-1.27-1.26-.49-.69-1.08-1.66-1.08-1.66,0,0-.48.39-1.07,1.17-.59.78-1.17.39-1.17.88v.78s-.59-.68-.97,0c-.39.68-1.17,2.05-1.17,2.05,0,0-.69.59-.97.68-.3.1-.1,1.27-.39,1.66-.3.39-1.18-.29-1.66.2-.49.49-.68.39-.59,1.17.1.78,0,1.85-.1,2.54-.09.68.78.29.88,1.17.1.88-.1,1.17.29,1.27.4.1.78.1.78.1,0,0-.29.69.2.97Z"/>
    <path class="cls-2" d="M199.31,315.85l-.97.49s-.68,2.24-.68,2.92.78.29.88.88c.1.59-.29,2.34.29,2.44.58.1.69-.2.69-.2,0,0-.11-1.85.38-2.15.49-.29.39.1.49.68.1.58,1.27,1.47,1.27,1.47,0,0,.49-.59.58-1.17.1-.58-.97-.98-.97-1.37s.1-.78.1-.78c0,0-.69-.68-1.08-1.36-.39-.69-.19-1.08-.97-1.85Z"/>
    <path class="cls-2" d="M201,317.52s.43-1.1.94-.93,1.19.34,1.86,0c.67-.34,1.52-1.09,1.52-1.09,0,0,0,.67-.51,1.34-.5.68-1.18.59-1.18.59l-.68.17s-1.44-.17-1.95-.08Z"/>
    <path class="cls-2" d="M198.85,326.05s.69-.37.95-.28c.27.09.86.74.86.74v.74h-.6s-.35,0-.61-.28c-.26-.27-.7-.27-.61-.92Z"/>
    <path class="cls-2" d="M196.96,324.72s.68-.75,1.12-.75.86-.28,1.56.19c.7.46,1.04.1,1.04.36,0,.28-.6.38-.95.65-.34.28-.09.1-.6.19-.52.09-1.29,0-2.16-.65Z"/>
    <path class="cls-2" d="M201.28,325.89c-.42-.22.26-.74.26-1.02v-1.2s1.03-.27,1.38-.56c.34-.28.95-.74.95-.74,0,0,1.21,0,1.21.27s-1.21.84-1.47,1.12c-.26.28-.69.93-.86,1.21-.17.28-.43,1.48-1.47.93Z"/>
    <path class="cls-2" d="M203.48,319.63s1.61.17,2.02.22c.41.06,1.25.32,1.25.32,0,0-.25.71.06,1,.29.3,1.11.42,1.11.42,0,0,.34-1.37.87-1.48.53-.11,1.3-.2,2,.15.72.36,1.41.72,1.88.69.47-.02,1.14-.24,1.44-.31.3-.06,1.34.37,1.67.81.33.44.19.9.51.91.32,0,1.47.26,1.44.5-.03.22-.6.49-.26,1,.34.51.96.81,1.34,1.52.39.72,1.18,1.49,1.18,1.49,0,0-.92-.24-1.52-.11-.6.12-.94.05-.94.05,0,0-.07-.71-.4-.78-.34-.07-.74-.13-.74-.13,0,0-.08-.35-.2-.54-.11-.19-.29-.66-.29-.66,0,0-.13.17-.46.09-.33-.07-.53-.25-.55-.02-.03.22.27.52.04.93-.22.41-.55.33-.55.33l.4.42s-.21.12-.52.18c-.3.07-.96-.01-1.32.14-.36.14-.66.21-.66.21,0,0-.52-.25-.69-1.01-.16-.76-.86.04-1.14-.2-.28-.23.33-.65-.16-1.12-.5-.48-.98-.88-.98-.88l-.93-.31s-1.07-.21-1.97-.74c-.9-.54-1.03-.8-1.03-.8l-.16-.4-1.02-.36s-1.36-1.01-.78-1.5"/>
    <path class="cls-2" d="M206.37,308.89c.29,0,1.95.78,1.95.78,0,0-.59-1.75,0-1.56.58.2.97.1.97.1,0,0-1.16-2.05-.97-2.44.19-.39.19-.69.19-.69l-.68-.97s-1.26.78-1.26,1.75-.3.98-.3.98l.69.3-.58,1.45"/>
    <path class="cls-2" d="M201.49,300.61s.69.1.69.68,0,1.36-.1,1.75-.1.29-.49.97c-.39.69-.39,1.95-1.17,1.36-.78-.58-.39-.87.1-1.85.49-.98.59-.88.59-1.46s-.1-.88.38-1.46Z"/>
    <path class="cls-2" d="M204.42,300.9s1.08.2,1.47.68c.39.49.39,1.65.39,2.14s-.29.78-.29.78c0,0-1.56-1.28-1.76-2.05-.2-.78-.1-1.17.19-1.56Z"/>
    <path class="cls-2" d="M206.27,300.61s.49-.3.97-.11c.49.2.78.39.78.88s.49,1.36.1,1.36-.69.29-.98-.2c-.29-.48-.77-.48-.88-1.07-.1-.59-.78.29,0-.88Z"/>
    <path class="cls-2" d="M204.51,297.58l-.49.88s.4.58.88.78c.48.19.39.78.98.19.59-.58.39-1.17,0-1.46-.39-.3-.98-.78-1.47-.68"/>
    <path class="cls-2" d="M202.08,298.17s1.27.49,1.46.78c.2.29.68.88.3,1.27-.39.39-1.47.49-1.66-.49-.2-.97-.78-.77-.1-1.56Z"/>
    <path class="cls-2" d="M203.35,297.67s.59-.58.4-1.56c-.2-.98.1-.88.1-1.27s.18-.68-.2-1.07c-.39-.39-1.27-1.56-1.27-1.56,0,0-.49-.39-1.07-.39s-1.27.29-.97.78c.28.48.39.48.28,1.07-.09.58-.58.88-.39,1.36.2.49,1.17.49,1.08,1.18-.1.68-.88.87-.1.98.78.1.78,1.17,2.15.48Z"/>
    <path class="cls-2" d="M205.39,306.46s.2.49.1.88c-.1.39-.49.97-.49.97,0,0-.59.39-.59-.58s-.19-1.57.88-1.57"/>
    <path class="cls-2" d="M211.12,331.25s1.15-.4,1.48-.24c.33.16.14,1.33.14,1.33l-.86,1.65s.07,2.22-.26,2.96c-.3.69-1.13,2.51-1.13,2.51l-1.16,1.34-.16,1.25.04.87-.91,1.68s-1.05,1.7-1.4,2.15c-.34.45-1.71,1.61-1.71,1.61,0,0-3.96,2.38-4.37,2.44-.4.05-2.67,1.06-3.12,1.36-.45.31-3.69,2.31-4.79,2.62-1.1.31-4.18.78-4.18.78l-2.27-.43-.56-1.15,2.15-.37.6-.41-2.57-.86.76-1.3s-3.27-.61-3.65-.68c-.37-.07-.97.33-.97.33l-2.28-.29-1.35.92s-1.42-.01-2.06-.13c-.63-.11-1.02.59-1.65.47-.62-.12-2.62-.62-2.62-.62l-.82.89s-.78-.02-.96-.44c-.18-.43-1.25-1.01-1.25-1.01,0,0,.38-.58,1.11-1.09.75-.51,1.49-1.02,1.49-1.02l.09-1.15-.78-.02-.26-.7s.92-.74,1.01-1.24c.1-.51.74-1.81.74-1.81l.11-.63-.55-.49.87-1.15,1.2-.15s1.25-.42,1.85-.18l.61.25s.98.31,1.9-.43c.92-.74,1.76-1.76,1.76-1.76,0,0,.18-1.01.74-1.16.55-.15,2.1-.12,2.1-.12l-.23,1.26.38.07,1.17-.68s-.23-.83.61-1.19c.85-.36,1.54-.62,1.54-.62l.07-.38,2.44.2-.14,1.41.79-.77,1.26.24.69-.91.28-1.51s.35-.45,1.22-.94c.87-.49,3.18-.32,3.18-.32l.6-.41,1.48.41.44-.96.65-1.44.76-.51,1.89.35-.27.73.76.14.47-.43s.76.79,1.86.48c1.1-.32,2.44.2,2.44.2l-.11,1.28-.46,1.09-1.16-.08-1.14.56.09.93.58.37.8-.11.64.12-.26,1.38.87-.48s.77-.64,1.32-1.45c.53-.81,1.2-.82,1.4-1.96.22-1.13.5-1.17.84-1.66.33-.5.08.27.14-.76Z"/>
    <path class="cls-2" d="M201.47,355.31c-.41-.85,1.22-1.05,1.72-1.89.51-.85,2.74-.74,3.14-1.47.41-.74,4.16-1.48,4.06-1.91-.1-.42.81-1.16,1.42-.94.61.21-.61,1.26-1.32,2-.71.73-3.55,2.63-4.67,3.05-1.11.42-2.13.84-2.84,1.26-.71.43-1.11.74-1.52-.11Z"/>
    <path class="cls-2" d="M212.92,346.75s-.45.89-.33,1.57c.1.68,1.01-.23,1.45-.67.45-.45,1.35-.78,1.35-1.34s1.46-1.68.46-2.36c-1.01-.67-1.46,1.35-1.91,1.8-.45.45-.57.67-1.02,1.01Z"/>
    <path class="cls-2" d="M186.79,356.33s1.28-1.04,1.97-.35c.7.7.7,1.51-.23,1.51s-1.85.11-1.73-1.16Z"/>
  </g>
</svg>