<?xml version="1.0" encoding="UTF-8"?>
<svg id="Layer_1" data-name="Layer 1" xmlns="http://www.w3.org/2000/svg" version="1.1" viewBox="0 0 841.89 595.28">
  <defs>
    <style>
      .cls-1 {
        fill: #3f6432;
      }

      .cls-1, .cls-2 {
        stroke-width: 0px;
      }

      .cls-2 {
        fill: none;
      }
    </style>
  </defs>
  <rect class="cls-1" x="300.94" y="181.99" width="1.29" height="214.33"/>
  <g>
    <path class="cls-1" d="M97.85,330.07s.36-1.87.76-2.67c.38-1.02.38-2.54-.25-3.81.38-1.91-.89-3.01-.89-3.8s-.12-3.3-1.02-4.19c1.02-4.32,4.81-8.69,4.19-8.12-.55.51,1.57-1.73,1.57-1.73,0,0,1.2-1.47,1.73-1.87.54-.4,2.4-3.87,2.67-4.54.27-.68,0-2.01.66-2.41.67-.41,1.1-2.28,1.87-3.74.31-.59.94-1.6.53-1.87-.39-.26.22-2.88.22-2.88,0,0-1.88,1.65-2.29,1.78-.4.13-.87.44-1.41.58-.53.13-1.87,0-1.87,0h-1.46c-.4,0-.67-.94-.67-.94,0,0-.79-1.16-.38-1.18.41-.01-.38-1.63-.48-2.2-.07-.46-.48-1.16-1.01-1.83-.54-.67-.78-1.74-.99-3.04-.37-.62-.74-1.63-.74-2.04s.21-.71-.02-2.17c-.76-.95-.92-2.11-.92-2.11l.54-3.61s-.26-2-.13-2.54c.13-.53-.27-.62-.07-1.11.21-.5.52-2.83.67-2.68.16.16.49,2.39.29,3.34-.14.73.48-1.84.48-1.43s-.56,3.24-.28,3.92c.27.68.81,3.39,1.14,4.21.33.81-.09,1.62.38,3.05.38.67.86,1.92,1.12,2.98.28,1.07.54,2.01.54,2.54s.27,3.47.27,3.47c0,0,.37-.69-.3,1.32,1.29.1,1.65.07,2.2-.09.95-.28,1.84.17,2.29,0,1.24-.48.94-1.43,2.01-1.43s.6-.15,1.53-.29c.94-.13,1.42-1.11,1.82-1.24.41-.13.76-.11,1.16-.28.85-.39,1.04-1.05,1.04-1.05,0,0,.55-.27,1.22-.27s1.2-.4,1.2-.4l.73-.77s.74-.71,1.14-1.24c.41-.54.66-.8.66-.8,0,0,.3-1.12,0-2.41-.75-1.39-.75.15-1.62-1.19-.29-.45.19-1.89.19-2.3s-.96.58-1.91,1.06c-.66,0-1.24-.38-1.62-.67-.32-.25-.28-1.44-.28-1.44,0,0-.9-.84-.76-1.25.13-.4-.49-.38-.19-.95.29-.57.76-1.53,1.66-.48.41.48.25,1.34.25,1.34,0,0,.55.8.95.67.4-.13.55.63.95.76.41.14,1.45.71,1.45.71l.27,1.73,1.34.27,1.6-.13,2.14.27s1.23-.19,1.9-.26c.67-.06,1.06.1,1.53.67.48.57.79,1.11.97,1.46.18.36.94.73,1.52.93.57.19,1.62-.96,2.1-.48-.48.48-.86.95-.86.95l-.85.19s.62,1.05,1.05,1.44c.43.39.47.51,1.34.28.96-1.05.16.49.1,1.15.28,1.53,2.2,3.67,2.2,4.21s1.23,4.1,1.63,4.49c.67.67.74,1.66.74,1.66,0,0,.94,1.34,1.34,1.47.4.13.76,1.42.76,2.22s.98,2.58.98,2.58l.36,1.72.9.61,1.01-1.51s.22-.96.94-2.28c.72-1.31,2.12-3.76,2.63-4.66.85-1.53,0-1.81,0-1.81l.76.1s-.05.06.48-.1c.53-.16.86,0,.86-.67s.35-.6.35-.6l1.2-.27s-.14,0,.8-.8c.94-.8,1.47-1.47,2.27-2,.8-.54.87-.95.74-1.48-.14-.54.87-1.57.87-1.57,0,0,.75.64,2.04.11,1.3-.53,2.53-.6,3.07-1,.53-.4.64-.7,1.04.11.4.8.64,1.81.78,2.19.26.73.84,1.1.84,1.1,0,0,.73.78,1.04,1.2.32.42.63.21.63.21l.52.27.15.83s0,1.84,0,1.31c0-.69-.21,2.61-.21,3.55.21.46.94.57,1.51.57.42-.57,1.79-2.07,2.39-2.56.11.62.89.52,1,.88,0,.4.36,1.51.36,1.51,0,0,.45.58.62.99.53.52.32.58.32.58,0,0,.57.66.57,1.46s0,1.57-.21,2.4c-.1.41-.46,2.86-.46,2.86l.29-.41.64,1.5.88,1.2.63.58.68.78s.7.82.84,1.35.67.73,1.41,1.3c1.33.54,1.89.88,2.08.99.2.11.78.36,1.41.47.26.21.42-.11.58-.47-.73-.78-1.04-1.46-1.51-2.29-.13-.94-.78-1.15-.78-1.93-.54-.54-2.08-1.2-3.27-1.72-.27.57-1.21-.31-1.83-.68-.4-.93-.68-.78-.68-1.72s-.14-2.1.26-2.51c.41-.4.91-1.65,1.04-2.45.13-.8.19-1.51.57-1.87.42.1,1.47-.03,1.62.2.26.42.35,1.2.47,1.72.21.94.72,1.93.72,1.93,0,0,.26-.2.73.52.29.45.87.81.87.81h1.07c.4,0,.94,2,.94,2.4s.94.27,1.87-.53c.93-.81,1.2-.67,1.87-1.34.67-.67,2.01-1.74,2.01-3.08s.93-2.13.53-3.33c-.4-1.21-1.47-2.67-1.87-3.35-.4-.66-1.07-1.47-1.74-1.86-.67-.4-.8-1.47-.54-1.87.26-.4,1.51-1.32,2.44-1.45-.06.95.81,1.14,1.12,1.58.37-.16.45-.04.87-.52-.36-.48-.24-1.22.2-1.18.43.03,1.64-.09,2.31-.09s2.43-.01,2.87-.54c.45-.53,1.4-.46,2.74-1.79,1.34-1.34,1.87-2.28,2.93-3.48,1.07-1.2,2.01-1.2,2.14-3.74.13-2.54.77-2.26.63-4.2-.4-.93-1.11-3.88-1.11-3.88,0,0-1.4-1.53-1.94-1.8-.54-.27-1.33-.02-1.06-.55.27-.53.92-1.1.92-1.1,0,0,.97-1.66,1.24-2.5-1.11-1.25-2.1-.69-2.77-.69s-1.94-.38-1.94-.38l-.66-.94.4-.8s.82-1.29,1.93-1.76c2.63-1.1,2.34,2.44,2.61,2.84.27.39,1.68.35,1.68.35l1.53,1.65s1.24.59,1.24,1.26c-.14.69.23,1.28.23,1.68s.53,1.06.53,1.46.8,2.01.8,2.01c0,0,1.52-.19,2.45-.86.94-.67.42-3.74.42-3.74,0,0-1.28-2.51-2.22-3.05-.94-.53-2.35-1.24-2.35-3.18,0-.81.14-2.63,1.38-2.77,1.25-.14,1.05,1.21,2.19,1.57,1.14.37,2.25-1.48,2.38-2.68.14-1.2-.91-2.39-.91-2.39l.54-1.07-.14-2s-1.06-2.27-1.74-3.61c-.66-1.33-.53-2-.93-2.53-.4-.54-2.4-2.81-2.4-2.81l-.81-.14-.4,1.21h-1.21s-1.34-.67-.67-1.34c.67-.67.8-2.01.8-2.01l-.8-1.2v-1.2s1.47.8,2.54.66c1.07-.13,2.67.14,2.67.14l.93.94,2.28-.13-.53-1.47-.8-.93-.14-.27,1.2-.13.27-.4s.4.53.8,1.47c.4.94.93,2.94,1.06,3.74.14.8.94,2.14,2.14,2.94,1.2.8,2,2,2,2l1.07,1.2.66.67s.14-1.34.14-2.27-1.08-1.87-1.21-2.27c-.14-.4-.14-1.74-.14-1.74,0,0-.93-1.2-1.6-1.33-.68-.13-1.2-1.34-1.2-1.34v-.66l1.33.4.54-.8-.8-.81-.8-.8,1.06.27h.81l-.23-.73-1.98-2.11s-24.33-24.05-62.17-18c-41.22,7.17-55.86,41.64-55.86,41.64,0,0,.46.9,1.69,1.4,1.25.5,1.15.67,1.69.76.54.08.98.08.98.08,0,0-.15-.44.58-.07.73.36.55.99.55.99l.76.72.74.4,1.13-.11s.67-.14,1.13.2c.28.21-.1,1.85-.6,3-.46,1.05-.92.52-1.52,1.26-.53.65-.8.79-1.26.66-.51-.15-.56.39-1.13,0-.59-.41-.64-.3-1.5-.3s-1.55-.46-1.92-.46-.51-.35-1.14-.59c-.63-.25-.34.06-.85-.22-.52-.27-1.21.09-1.21.09l-.51-2.46s-6.96,12.3-5.34,34.18c1.8,24.4,11.92,35.61,11.92,35.61Z"/>
    <path class="cls-1" d="M161.86,366.21c-42.49,0-77.06-34.57-77.06-77.07s34.57-77.07,77.06-77.07,77.07,34.58,77.07,77.07-34.58,77.07-77.07,77.07ZM161.86,214.48c-41.17,0-74.66,33.5-74.66,74.67s33.49,74.66,74.66,74.66,74.67-33.49,74.67-74.66-33.5-74.67-74.67-74.67Z"/>
    <path class="cls-1" d="M161.86,395.02c-58.37,0-105.86-47.49-105.86-105.87s47.49-105.86,105.86-105.86,105.88,47.49,105.88,105.86-47.5,105.87-105.88,105.87ZM161.86,185.2c-57.32,0-103.94,46.63-103.94,103.95s46.63,103.96,103.94,103.96,103.96-46.64,103.96-103.96-46.64-103.95-103.96-103.95Z"/>
    <g>
      <path class="cls-1" d="M94.67,337.47l2.29,2.62-1.82,3.43,4.24,4.84,3.61-1.41,2.27,2.6-16.09,5.93-2.26-2.6,7.78-15.41ZM93.77,346.11l-2.96,5.6,5.87-2.3-2.91-3.31Z"/>
      <path class="cls-1" d="M90.23,339.97l-1.88-2.54c.81-.71,1.27-1.44,1.4-2.18.13-.74-.07-1.55-.57-2.39-.54-.89-1.13-1.44-1.78-1.67-.65-.23-1.22-.18-1.72.13-.32.19-.54.45-.66.77-.12.33-.11.79.01,1.36.07.39.32,1.25.74,2.58.53,1.7.7,3.01.53,3.93-.25,1.29-.92,2.27-2,2.92-.69.43-1.47.61-2.32.59-.85-.02-1.65-.31-2.42-.87-.76-.56-1.45-1.35-2.09-2.41-1.03-1.71-1.43-3.23-1.19-4.56.24-1.33.98-2.39,2.23-3.2l1.76,2.71c-.64.54-.99,1.1-1.08,1.67-.07.57.12,1.24.59,2.02.48.81,1.02,1.32,1.63,1.58.39.17.76.14,1.12-.08.32-.19.52-.49.58-.9.08-.54-.12-1.56-.61-3.09-.49-1.52-.76-2.72-.81-3.57-.05-.84.12-1.63.49-2.34.37-.72.99-1.34,1.85-1.86.79-.48,1.65-.7,2.6-.68.95.04,1.83.34,2.64.94.81.6,1.58,1.49,2.3,2.67,1.04,1.72,1.44,3.3,1.19,4.7-.25,1.42-1.08,2.68-2.51,3.79Z"/>
      <path class="cls-1" d="M87.25,324.12l-14.62,6.53-1.31-2.94,14.62-6.52,1.31,2.92Z"/>
      <path class="cls-1" d="M80.61,305.04l.99,3.32-3.1,2.37,1.84,6.16,3.87.23.98,3.3-17.1-1.31-.98-3.3,13.5-10.76ZM76.2,312.49l-5.03,3.87,6.3.35-1.26-4.23Z"/>
      <path class="cls-1" d="M80.56,304.06l-15.93,1.64-.32-3.11,10.04-7.66-10.71,1.09-.31-2.96,15.93-1.64.33,3.21-9.81,7.55,10.47-1.08.31,2.97Z"/>
      <path class="cls-1" d="M80.39,276.84l-15.79-2.68.54-3.18,15.79,2.68-.54,3.18Z"/>
      <path class="cls-1" d="M81.23,271.05l-15.31-4.69.91-2.99,12.23-3.16-10.29-3.15.87-2.86,15.31,4.7-.95,3.08-11.97,3.12,10.07,3.1-.87,2.85Z"/>
      <path class="cls-1" d="M81.01,254.77l1.17-2.93c1.02.33,1.88.34,2.58.05.71-.28,1.28-.87,1.73-1.73.48-.93.64-1.72.5-2.39-.15-.67-.49-1.15-1.01-1.42-.33-.17-.67-.22-1.01-.14-.33.08-.72.32-1.14.71-.29.28-.9.94-1.81,1.98-1.18,1.33-2.2,2.17-3.07,2.5-1.24.46-2.41.41-3.54-.18-.72-.37-1.3-.92-1.71-1.66-.41-.73-.59-1.57-.52-2.51.07-.94.39-1.95.95-3.05.93-1.77,2.01-2.9,3.27-3.4,1.25-.49,2.55-.42,3.88.21l-1.37,2.92c-.8-.26-1.46-.27-1.99-.04-.53.24-1,.76-1.43,1.56-.43.82-.59,1.56-.5,2.22.07.41.29.72.66.9.34.18.69.19,1.08.02.49-.2,1.26-.91,2.31-2.13,1.05-1.23,1.92-2.07,2.62-2.56.7-.48,1.45-.75,2.25-.82.8-.05,1.66.15,2.56.61.81.43,1.46,1.04,1.94,1.86.47.82.67,1.73.59,2.73-.08,1-.44,2.13-1.08,3.35-.93,1.8-2.06,2.96-3.39,3.48-1.33.54-2.84.48-4.53-.16Z"/>
      <path class="cls-1" d="M94.96,241.02l-10.64-7.98-2.83,3.78-2.17-1.62,7.6-10.14,2.18,1.63-2.84,3.78,10.64,7.98-1.93,2.57Z"/>
      <path class="cls-1" d="M100.91,233.69l-11.63-11.01,2.21-2.34,11.62,11.01-2.21,2.34Z"/>
      <path class="cls-1" d="M107.69,227.06l-8.55-10.19-3.63,3.05-1.74-2.08,9.71-8.15,1.74,2.08-3.62,3.04,8.55,10.19-2.47,2.06Z"/>
      <path class="cls-1" d="M106.89,207.29l2.78-1.62,4.38,7.51c.69,1.2,1.17,1.96,1.45,2.27.45.5,1,.79,1.65.87.65.08,1.36-.1,2.14-.55.78-.46,1.29-.97,1.5-1.53.21-.55.22-1.09.03-1.61-.19-.53-.62-1.33-1.25-2.44l-4.47-7.68,2.79-1.62,4.24,7.29c.97,1.66,1.58,2.88,1.82,3.66.25.78.31,1.51.18,2.22-.13.72-.46,1.4-.97,2.08-.52.67-1.32,1.33-2.41,1.96-1.31.77-2.4,1.19-3.26,1.28-.86.09-1.62,0-2.3-.25-.68-.26-1.24-.62-1.68-1.09-.63-.68-1.42-1.8-2.32-3.35l-4.3-7.4Z"/>
      <path class="cls-1" d="M131.8,212.41l-4.62-12.47-4.44,1.64-.94-2.54,11.88-4.41.95,2.55-4.43,1.65,4.62,12.47-3.02,1.11Z"/>
      <path class="cls-1" d="M140.65,209.3l-3.01-15.73,11.62-2.21.51,2.66-8.45,1.61.66,3.47,7.88-1.51.51,2.66-7.89,1.51.82,4.27,8.76-1.68.51,2.67-11.92,2.28Z"/>
      <path class="cls-1" d="M166.94,198.7c.22-1.6.66-2.93,1.3-3.96.47-.75,1.07-1.4,1.78-1.97.72-.54,1.46-.93,2.25-1.13,1.05-.27,2.21-.33,3.51-.14,2.32.33,4.1,1.32,5.29,2.97,1.19,1.65,1.61,3.76,1.24,6.34-.37,2.56-1.35,4.46-2.94,5.71-1.6,1.25-3.56,1.71-5.88,1.38-2.35-.32-4.12-1.31-5.3-2.95-1.2-1.64-1.61-3.72-1.25-6.25ZM170.25,199.06c-.26,1.81-.03,3.23.66,4.27.69,1.05,1.67,1.66,2.95,1.84,1.28.18,2.38-.14,3.33-.95.95-.8,1.55-2.12,1.81-3.96.25-1.82.05-3.23-.61-4.24-.67-1.01-1.66-1.6-2.98-1.8-1.32-.19-2.45.12-3.38.91-.94.79-1.53,2.1-1.79,3.92Z"/>
      <path class="cls-1" d="M182.89,209.31l5.02-15.2,10.42,3.45-.86,2.57-7.36-2.44-1.18,3.57,6.37,2.11-.86,2.57-6.37-2.1-2.14,6.48-3.06-1.01Z"/>
      <path class="cls-1" d="M208.59,221.25l7.76-10.79-3.84-2.77,1.58-2.2,10.29,7.4-1.86,2.51-3.56-3.07-7.76,10.8-2.61-1.88Z"/>
      <path class="cls-1" d="M216.12,226.87l11.34-11.29,8.35,8.38-1.93,1.91-6.07-6.11-2.5,2.5,5.66,5.67-1.92,1.92-5.65-5.69-3.08,3.07,6.29,6.31-1.92,1.92-8.56-8.59Z"/>
      <path class="cls-1" d="M236.67,242.11l.98,3.13c-1.72.61-3.24.7-4.58.25-1.33-.43-2.49-1.35-3.47-2.77-1.21-1.75-1.61-3.6-1.2-5.55.41-1.95,1.65-3.64,3.72-5.07,2.2-1.51,4.28-2.12,6.27-1.82,2,.3,3.63,1.36,4.9,3.21,1.12,1.6,1.54,3.25,1.3,4.92-.15.98-.63,1.98-1.48,3.01l-2.44-2.17c.57-.63.88-1.33.93-2.1.05-.77-.17-1.51-.66-2.22-.68-.98-1.58-1.54-2.7-1.66-1.12-.13-2.47.35-4.04,1.44-1.66,1.14-2.63,2.26-2.92,3.35-.29,1.09-.11,2.11.55,3.06.49.71,1.13,1.16,1.94,1.36.8.19,1.76.07,2.89-.38Z"/>
      <path class="cls-1" d="M234.55,249.82l14.64-6.52,1.31,2.94-5.78,2.56,2.58,5.81,5.77-2.57,1.32,2.95-14.63,6.51-1.31-2.94,6.37-2.84-2.58-5.81-6.38,2.84-1.31-2.94Z"/>
      <path class="cls-1" d="M240.58,263.95l15.59-3.68.72,3.05-8.97,8.9,10.49-2.48.68,2.91-15.57,3.68-.74-3.14,8.75-8.75-10.24,2.42-.7-2.91Z"/>
      <path class="cls-1" d="M251.78,277.97c1.62-.06,3.01.14,4.13.58.83.33,1.57.8,2.25,1.4.67.61,1.18,1.27,1.52,2.02.45.97.71,2.11.76,3.41.09,2.35-.58,4.27-1.98,5.73-1.41,1.47-3.42,2.25-6.02,2.35-2.58.09-4.63-.54-6.14-1.87-1.52-1.36-2.31-3.19-2.4-5.55-.09-2.38.57-4.3,1.97-5.75,1.4-1.46,3.37-2.24,5.92-2.33ZM252,281.3c-1.81.07-3.17.54-4.08,1.4-.91.88-1.34,1.96-1.29,3.24.05,1.29.55,2.32,1.52,3.11.96.79,2.37,1.15,4.23,1.08,1.83-.07,3.19-.53,4.06-1.36.88-.83,1.29-1.91,1.25-3.24-.06-1.34-.55-2.38-1.49-3.17-.95-.77-2.34-1.12-4.19-1.06Z"/>
      <path class="cls-1" d="M244.14,295.67l15.71,2.22-.45,3.19-13.02-1.85-1.12,7.99-2.69-.38,1.58-11.16Z"/>
      <path class="cls-1" d="M249.96,310.26c1.55.51,2.78,1.16,3.68,1.98.66.6,1.2,1.3,1.61,2.09.42.81.66,1.61.72,2.42.09,1.08-.07,2.24-.48,3.47-.74,2.24-2.03,3.8-3.86,4.69-1.83.88-3.98.9-6.46.08-2.45-.8-4.14-2.1-5.09-3.9-.95-1.79-1.05-3.81-.3-6.03.74-2.26,2.02-3.83,3.84-4.7,1.82-.88,3.94-.91,6.36-.11ZM249.02,313.46c-1.72-.58-3.16-.61-4.32-.11-1.14.5-1.93,1.35-2.33,2.59-.41,1.21-.29,2.36.33,3.43.63,1.07,1.82,1.9,3.58,2.49,1.75.58,3.18.63,4.29.15,1.11-.47,1.87-1.35,2.28-2.62.43-1.26.32-2.42-.28-3.48-.62-1.05-1.8-1.87-3.55-2.45Z"/>
      <path class="cls-1" d="M238.16,333.44l2.36,1.35-3.44,5.98-5.52-3.18c-.23-.9-.24-2.05-.04-3.41.2-1.35.64-2.6,1.29-3.75.83-1.44,1.86-2.53,3.1-3.25,1.22-.72,2.56-1.04,4-.93,1.45.11,2.84.55,4.17,1.32,1.45.83,2.56,1.87,3.33,3.12.78,1.25,1.13,2.64,1.07,4.14-.05,1.15-.46,2.39-1.21,3.71-.99,1.72-2.13,2.86-3.41,3.41-1.28.55-2.64.59-4.08.14l1.09-3.09c.8.21,1.55.15,2.26-.16.7-.31,1.29-.87,1.75-1.67.7-1.22.87-2.41.5-3.57-.37-1.17-1.32-2.19-2.84-3.07-1.65-.95-3.1-1.29-4.35-1.03-1.24.26-2.2.99-2.89,2.16-.34.59-.56,1.25-.67,1.97-.12.72-.13,1.38-.04,1.99l1.75,1.01,1.84-3.19Z"/>
      <path class="cls-1" d="M225.56,341.43l5.12,4.39,10.87,1.57-2.48,2.89-7.28-1.29,2.44,6.94-2.42,2.82-3.25-10.5-5.09-4.37,2.09-2.45Z"/>
    </g>
    <path class="cls-2" d="M259.52,289.14c0,54.01-43.79,97.8-97.8,97.8s-97.79-43.78-97.79-97.8,43.78-97.79,97.79-97.79,97.8,43.78,97.8,97.79Z"/>
    <path class="cls-1" d="M143.47,386.07l-3.01-.58,2.21-11.34c-1.31.82-2.75,1.33-4.33,1.54l.54-2.75c.83-.11,1.78-.42,2.84-.96,1.05-.53,1.85-1.25,2.38-2.13l2.44.48-3.07,15.74Z"/>
    <path class="cls-1" d="M147.85,383.1l3-.22c.06.59.23,1.05.52,1.36.29.29.69.45,1.18.47.63.02,1.17-.25,1.62-.83.46-.57.79-1.77.96-3.61-.8.87-1.78,1.29-2.93,1.24-1.25-.03-2.31-.55-3.19-1.55-.87-.99-1.29-2.27-1.24-3.82.06-1.61.58-2.9,1.57-3.87,1-.95,2.24-1.4,3.72-1.36,1.62.06,2.93.72,3.92,2.02,1,1.29,1.46,3.37,1.35,6.24-.09,2.92-.7,5.02-1.83,6.27-1.12,1.26-2.54,1.87-4.28,1.81-1.25-.04-2.25-.41-2.99-1.1-.75-.7-1.21-1.72-1.38-3.06ZM154.96,376.63c.03-.98-.17-1.75-.6-2.29-.43-.56-.94-.86-1.53-.88-.56-.02-1.03.19-1.41.63-.38.42-.6,1.15-.63,2.15-.03,1.03.14,1.78.53,2.28.4.49.88.74,1.49.76.58.03,1.08-.19,1.49-.65.42-.44.64-1.11.66-2Z"/>
    <path class="cls-1" d="M160.5,383.83l3.04-.52c.13.69.42,1.22.87,1.59.46.38.97.54,1.52.51.64-.05,1.16-.34,1.57-.9.42-.56.58-1.36.51-2.43-.07-.99-.34-1.73-.82-2.2-.46-.46-1.07-.67-1.78-.63-.89.06-1.66.5-2.32,1.32l-2.49-.2,1.04-8.41,8.13-.52.18,2.86-5.8.37-.34,2.75c.66-.38,1.36-.59,2.08-.65,1.37-.09,2.56.33,3.57,1.28,1.02.92,1.58,2.18,1.68,3.77.09,1.32-.21,2.53-.91,3.61-.94,1.49-2.34,2.29-4.18,2.41-1.47.09-2.7-.23-3.67-.95-.98-.73-1.6-1.76-1.87-3.08Z"/>
    <path class="cls-1" d="M173.94,382.38l2.94-.65c.14.6.37,1.02.7,1.28.33.26.74.36,1.23.32.62-.08,1.12-.42,1.49-1.05.37-.63.52-1.86.44-3.71-.66.97-1.58,1.51-2.72,1.64-1.25.13-2.37-.23-3.38-1.1-1.01-.86-1.59-2.07-1.76-3.61-.17-1.6.17-2.95,1.02-4.05.86-1.08,2.03-1.71,3.5-1.87,1.6-.17,2.99.31,4.17,1.45,1.16,1.13,1.9,3.14,2.2,6,.31,2.91,0,5.07-.94,6.47-.94,1.41-2.27,2.2-4,2.38-1.24.13-2.28-.09-3.1-.68-.84-.58-1.44-1.52-1.8-2.83ZM180.09,375c-.09-.99-.4-1.71-.92-2.2-.5-.49-1.05-.71-1.64-.64-.56.06-.99.33-1.32.81-.32.48-.43,1.23-.32,2.24.11,1.01.4,1.74.85,2.17.45.43.97.62,1.58.54.57-.06,1.04-.34,1.39-.84.35-.5.48-1.19.37-2.07Z"/>
    <path class="cls-1" d="M163.41,365.83l-.93-.31v-.43s.04-37.94.1-75.89c.03-18.97.07-37.94.11-52.17.02-7.12.04-13.05.06-17.2q.04-7.1.65-7.12h.25s.18.16.18.16c.24.22,23.72,36.25,22.62,79.1-.67,25.93-6.81,44.54-11.85,55.58-5.47,12-10.71,17.76-10.93,18l-.27.29ZM163.99,215.3c-.15,16.57-.29,133.99-.3,148.36,1.74-2.18,5.78-7.71,9.86-16.67,4.98-10.93,11.05-29.36,11.71-55.05.97-37.68-16.79-69.32-21.27-76.64Z"/>
    <path class="cls-1" d="M163.85,367.08l-1.19-1.32c-.06-.04-.18-.13-.35-.24-6.43-4.39-22.4-16.86-31.91-37.86-9.5-21-8.61-55.24-8.6-55.58l1.2.03c-.01.34-.89,34.31,8.49,55.05,8.18,18.08,21.22,29.75,28.63,35.31-4.67-6.58-14.5-23.08-18.11-49.22-.91-6.59-1.3-16.65-1.16-22.56l1.2.03c-.15,5.87.24,15.84,1.14,22.37,4.67,33.77,19.75,51.18,20.32,51.83.12.11.15.2.17.36l.17,1.8Z"/>
    <path class="cls-1" d="M162.75,366.01c-.3,0-30.47-1.12-54.56-33.7-8.18-11.07-12.05-24.13-12.95-43.64-.15-3.23.05-6.69.58-10.29l1.19.17c-.52,3.53-.71,6.92-.57,10.06.88,19.26,4.69,32.12,12.72,42.98,17.86,24.17,39.07,30.77,48.57,32.56-7.38-3.19-21.81-10.98-33.56-26.83-14.02-18.94-16.3-52.66-16.32-53l1.2-.08c.02.34,2.28,33.71,16.09,52.36,16.23,21.91,37.57,28.17,37.79,28.23l-.18,1.18Z"/>
    <path class="cls-1" d="M163.36,365.99l-.34-1.15c.33-.12,32.79-12.57,39.82-66.34,2.93-22.41-8.1-44.16-17.88-58.46-10.62-15.54-22.1-25.89-22.21-25.99l.66-.99c.55.27,55.49,27.22,54.54,78.58-1.15,61.64-54.06,74.24-54.59,74.36ZM166.76,216.24c4.2,4.2,11.89,12.44,19.17,23.09,9.9,14.48,21.08,36.52,18.09,59.32-3.73,28.47-14.54,45.24-22.95,54.3-4.21,4.53-8.21,7.62-11.33,9.65,14.18-5.64,46.12-23.59,47-70.99.79-42.57-37.5-68.17-49.98-75.37Z"/>
    <path class="cls-1" d="M163.73,366.18l-.2-1.19c.64-.11,64.18-11.77,64.48-74.99-5.7-69.15-65.47-75.58-66.07-75.63l.11-1.2c.61.06,61.37,6.56,67.16,76.78-.31,64.29-64.83,76.11-65.48,76.22Z"/>
    <path class="cls-1" d="M138.62,361.76l-.36-1.15c.11-.04,11.41-3.56,24.89-3.56s25.15,3.13,25.27,3.16l-.31,1.16c-.11-.03-11.65-3.12-24.96-3.12s-24.42,3.46-24.53,3.5Z"/>
    <path class="cls-1" d="M122.11,353.55l-.11-1.2c.19-.02,19.36-1.74,41.21-2.25,21.31-.48,39,2.22,39.17,2.25l-.18,1.19c-.18-.03-17.77-2.72-38.96-2.23-21.81.51-40.94,2.22-41.13,2.24Z"/>
    <path class="cls-1" d="M157.16,335.86c-30.5,0-58.9-3.07-59.2-3.1l.13-1.2c.32.03,32.46,3.49,65.13,3.06,19.89-.27,42.93-1.09,62.99-5.02l.23,1.18c-20.14,3.95-43.25,4.76-63.2,5.04-2.03.03-4.06.04-6.08.04Z"/>
    <path class="cls-1" d="M163.54,326.47c-42.35,0-71.26-7-71.54-7.07l.29-1.17c.29.07,29.06,7.04,71.26,7.04,32.52,0,68.19-6.98,68.54-7.05l.23,1.18c-.36.07-36.14,7.07-68.78,7.07Z"/>
    <path class="cls-1" d="M161.26,315.11c-40.52,0-72.88-8.57-73.21-8.66l.31-1.16c.33.09,32.54,8.62,72.89,8.62.76,0,1.51,0,2.27,0,35.73-.28,46.53-2.86,57.96-5.58,4.27-1.02,8.69-2.07,14.53-3.04l.2,1.19c-5.8.97-10.19,2.01-14.44,3.03-11.5,2.74-22.36,5.33-58.23,5.61-.76,0-1.52,0-2.28,0Z"/>
    <path class="cls-1" d="M166.11,302.56c-.85,0-1.71,0-2.57-.01-44.68-.36-77.13-9.74-77.45-9.83l.34-1.15c.32.1,32.62,9.42,77.12,9.78.86,0,1.72.01,2.56.01,45.58,0,71.49-10.06,71.75-10.17l.44,1.12c-.26.1-26.36,10.25-72.19,10.25Z"/>
    <path class="cls-1" d="M167.89,289.64c-1.57,0-3.15-.01-4.76-.04-44.21-.79-76.32-8.96-76.64-9.05l.3-1.16c.32.08,32.3,8.22,76.36,9.01,43.3.75,73.65-9.28,73.95-9.38l.39,1.14c-.29.1-28.61,9.49-69.6,9.49Z"/>
    <path class="cls-1" d="M158.26,277.48c-36.79,0-68.72-9.78-69.05-9.88l.36-1.15c.34.1,34.51,10.56,72.78,9.78,43.34-.87,72.13-9.69,72.41-9.78l.36,1.15c-.29.09-29.23,8.96-72.75,9.84-1.37.03-2.75.04-4.11.04Z"/>
    <path class="cls-1" d="M166.46,264.14c-1.36,0-2.73-.01-4.11-.04-19.35-.4-42.92-3.52-66.37-8.77-.67-.15-1.07-.24-1.17-.26l.15-1.19c.09,0,.53.11,1.29.27,23.37,5.24,46.86,8.34,66.13,8.74,37.13.75,65.42-9.28,65.7-9.38l.41,1.13c-.27.1-26.72,9.49-62.02,9.49Z"/>
    <path class="cls-1" d="M153.52,252.11l-.02-1.2c23.66-.39,26.99-.84,32.51-1.59,1.33-.18,2.79-.38,4.67-.6l2.16-.25c8.94-1.01,17.38-1.97,28.56-5.94l.4,1.13c-11.31,4.02-19.82,4.98-28.82,6.01l-2.16.24c-1.88.22-3.33.42-4.65.6-5.57.76-8.93,1.22-32.65,1.61Z"/>
    <path class="cls-1" d="M164.09,241.59l-.1-1.2c.18-.01,17.87-1.51,27.78-1.82,12.29-.39,22.05-4.61,22.15-4.66l.48,1.1c-.1.04-10.06,4.36-22.59,4.76-9.88.31-27.54,1.8-27.71,1.82Z"/>
    <path class="cls-1" d="M120.04,367.47c0,2.25-1.82,4.06-4.06,4.06s-4.07-1.82-4.07-4.06,1.82-4.07,4.07-4.07,4.06,1.83,4.06,4.07Z"/>
    <path class="cls-1" d="M213,366.19c0,2.25-1.82,4.07-4.06,4.07s-4.06-1.82-4.06-4.07,1.82-4.06,4.06-4.06,4.06,1.81,4.06,4.06Z"/>
    <path class="cls-1" d="M177.55,310.8s.28-.42.56-.13c.27.29.55.33.43.49-.11.17-.57.11-.57.11,0,0-.31-.2-.41-.47Z"/>
    <path class="cls-1" d="M185.92,288.97l.43-.59s.3-.26.5-.44c.2-.18.09-.83.57-.8.47.04.68,0,.78.68-.1.24-.03.95-.03.95,0,0-.09.55-.56,1.02-.6.1-1.05.03-1.05.03,0,0-.65-.06-.65-.86Z"/>
    <polygon class="cls-1" points="110.58 344.52 110.57 343.32 216.32 342.64 216.33 343.84 110.58 344.52"/>
    <path class="cls-1" d="M100.51,260.76s.31-.53.61-.61.69.3.69.3c0,0-.15.39-.15.62s-.23.53-.46.53-.76.15-.76.15l-.54-.61.61-.38Z"/>
    <path class="cls-1" d="M107.13,313.75s.32,1.28.8,1.91c.48.64.32,1.91.32,1.91h-.63s-.32,1.12-.49,2.23c-.16,1.11-1.11,2.54-1.11,3.82s-.32,2.23-.32,2.86-.15,1.44-1.11,1.91c-.96.48-1.43.32-1.75-.16-.32-.48.16-.8.16-1.75s-.32-1.91-.32-1.91c0,0,.79-.8.79-1.59s-.31-1.27-.31-1.27l-.32-.96s.16-1.12.32-1.59c.16-.48.63-.8,1.59-1.28.95-.48,1.43-.63,1.43-1.43s.32-2.07.32-2.07c0,0,.32-.48.63-.64Z"/>
    <path class="cls-1" d="M146.31,299.02c-.5.22-2.4,2.34-2.45,3.29-.05.95.11,1.45.78,1.67.67.23,1.45.06,1.67-.78.23-.84.56-1.61.45-2.68-.11-1.05.06-1.72-.45-1.5Z"/>
    <g>
      <path class="cls-1" d="M207.11,245.12s.85.28,1.99,1.7c1.13,1.42,1.61,2.26,2.36,2.55.75.28,2.27,1.13,2.27,1.51s-1.6.19-1.6.19l-.2.85-.85.09s-.94-1.89-1.61-2.83c-.66-.94-1.51-1.61-1.98-2.36-.47-.76-1.04-1.23-.38-1.7Z"/>
      <path class="cls-1" d="M212.5,252.2s1.32.09,1.7.85c.37.76.57,1.23.57,1.23h-.76l.09.86s-.66-.48-1.13-1.14c-.47-.66-.66-1.23-.47-1.8Z"/>
      <path class="cls-1" d="M214.77,255.98s2.08,1.23,2.74,1.13c.66-.1,1.13-.57,1.13-.57,0,0-.38.66.1,1.03.47.38.38,1.23.09,1.23s-.38.57-1.04.57-.76-.28-1.61-1.14c-.85-.85-2.27-1.51-1.41-2.26Z"/>
      <path class="cls-1" d="M214.2,258.44s1.04-.1,1.41.47c.39.56.95.66.48.94-.48.28-.29.48-.85,0-.57-.47-.57-.28-.85-.66-.28-.38-.75.09-.19-.75Z"/>
      <path class="cls-1" d="M215.8,260.7s1.89-.19,2.08.19c.19.38.66,1.42.66,2.73s-.09,1.98.29,2.74c.38.76,1.04,1.33.47,1.9-.57.56-1.89.94-1.89.94v.57h-1.04s-.94-.76-1.33-.85c-.37-.1-3.02.56-3.02.56h-.57s0-1.61.75-1.7c.76-.09,3.4,0,3.5-.76.09-.75-.19-1.13-.1-1.6.1-.47.76-.47.76-.94s-.86-3.21-.57-3.78Z"/>
      <path class="cls-1" d="M214.01,269.71c.45-.29.88-.31,1.1,0,.22.3.77.91.33,1.21-.44.31-.66.81-1.32.21-.66-.61-.66-1.22-.66-1.22,0,0-.55.51.55-.2Z"/>
      <path class="cls-1" d="M210.97,271.44s.13-1.35.94-1.35,1.08.75,1.08,1.5,1.35,2.4.54,2.25c-.81-.15-1.22-.75-1.62-1.21-.4-.44-.94.6-.94-1.2Z"/>
    </g>
    <path class="cls-1" d="M200.32,278.84c.6-.08.76.74.69,1.8-.04.61-.21,1.08-.3,1.27-.39.83-.21.8-.54,1.31-.59-.08-1.22-.68-1.14-1.89.07-1.21.12-2.33,1.3-2.5Z"/>
    <path class="cls-1" d="M169.35,309.35s1.49.1,2.42.11c.94.01.78.61,2.05,1.19,1.28.59,1.85.46,3.14.83,1.29.38,1.86.25,2.43,1.13.59.89,1.25,1.74,1.25,1.74,0,0,.57.38,1,.4.42.03.51.71.51.71l1.34.26s.96,2.27,1.36,2.72c.4.45.1.48.1.48l-1.45.72s-1.02-.71-1.61-.87c-.59-.16-.75.43-1.62-.65-.87-1.08-3.64-3-3.95-3.49-.31-.49-.75-.3-1.14-.75-.4-.45-.35-1.08-.84-1.5-.48-.41-.94-.02-.94-.02,0,0-1.54-1.2-1.82-1.39-.28-.19-1.72-1.14-2.01-1.11-.3.02-.23-.53-.23-.53Z"/>
    <path class="cls-1" d="M182.84,321.32s.61-.79.73-1.21c.12-.41,2.83.12,3.11.06.28-.06.11.56.35.32.24-.24.95-.58.95-.58,0,0-.12-.07.75-.14.85-.08,1.52-.11,1.52-.11l-.11.89,1.6.27.35.31s1.21-.23,1.02.28c-.19.52-.22.34-.78.44-.56.11-.85.07-1.81.17-.95.09-1.03.2-2.07.31-1.04.1-1.49-.68-2.01-.38-.53.3-1.36.46-1.36.46,0,0-1.89-.79-2.25-1.11Z"/>
    <path class="cls-1" d="M188.76,316.94s.66-.76,1.23-.66c.57.09-.09.47.48.47s1.33-.29,1.42.09c.09.38.57,1.04.57,1.04,0,0,1.14-.67,1.24-1.14.09-.47,0-1.05.19-1.71.19-.67.57-1.53.57-2s.38-.67.76-1.04c.38-.37.86-.57.86-.95s.28-.18.09-.76c-.19-.57-1.23-1.9-.95-2.66.29-.76.95-1.04.95-1.04,0,0-.57-.28-.47-.57.09-.29,1.04.09,1.14-.48.09-.57-.76-.57-1.23-1.23-.48-.66-1.04-1.62-1.04-1.62,0,0-.47.38-1.04,1.14-.57.76-1.14.38-1.14.85v.76s-.57-.66-.96,0c-.37.67-1.13,2-1.13,2,0,0-.67.57-.95.66-.28.1-.09,1.23-.38,1.61-.29.38-1.14-.28-1.62.19-.48.47-.67.38-.57,1.14.09.76,0,1.81-.1,2.47-.09.67.76.28.86,1.14.09.86-.1,1.14.28,1.24.38.1.76.1.76.1,0,0-.28.66.2.95Z"/>
    <path class="cls-1" d="M195.98,313.3l-.95.47s-.66,2.19-.66,2.86.76.28.85.85c.1.58-.28,2.28.28,2.38.57.1.67-.19.67-.19,0,0-.1-1.8.37-2.09.48-.29.39.1.48.67.09.56,1.24,1.42,1.24,1.42,0,0,.47-.57.57-1.14.1-.57-.94-.95-.94-1.33s.09-.75.09-.75c0,0-.67-.67-1.04-1.33-.39-.66-.19-1.04-.95-1.81Z"/>
    <path class="cls-1" d="M197.62,314.92s.42-1.07.91-.9c.5.16,1.16.33,1.81,0,.66-.32,1.48-1.06,1.48-1.06,0,0,0,.66-.49,1.31-.5.66-1.15.58-1.15.58l-.66.16s-1.4-.16-1.89-.08Z"/>
    <path class="cls-1" d="M195.53,323.23s.67-.37.92-.28c.25.09.84.72.84.72v.72h-.59s-.33,0-.58-.27c-.25-.27-.68-.27-.59-.9Z"/>
    <path class="cls-1" d="M193.68,321.92s.67-.72,1.09-.72.84-.27,1.51.19c.67.45,1.01.09,1.01.35s-.58.36-.92.63c-.34.28-.09.1-.59.19-.5.09-1.26,0-2.1-.63Z"/>
    <path class="cls-1" d="M197.9,323.07c-.4-.22.25-.72.25-1v-1.17s1.01-.27,1.35-.55c.34-.27.92-.72.92-.72,0,0,1.18,0,1.18.27s-1.18.81-1.43,1.08c-.25.27-.67.9-.84,1.17-.17.27-.41,1.44-1.43.9Z"/>
    <path class="cls-1" d="M200.04,316.99s1.57.15,1.97.22c.39.06,1.21.31,1.21.31,0,0-.24.69.05.98.29.28,1.08.4,1.08.4,0,0,.33-1.34.85-1.45.51-.1,1.26-.2,1.95.15.69.34,1.37.7,1.83.67.46-.02,1.1-.23,1.4-.3.29-.06,1.3.36,1.62.79.33.43.18.87.5.88.31,0,1.43.26,1.4.48-.03.21-.59.48-.25.97.33.49.94.78,1.31,1.48.38.7,1.16,1.45,1.16,1.45,0,0-.89-.24-1.48-.11-.59.13-.91.05-.91.05,0,0-.07-.69-.39-.76-.32-.08-.72-.13-.72-.13,0,0-.08-.34-.19-.53-.12-.18-.29-.64-.29-.64,0,0-.12.16-.44.09-.32-.07-.51-.24-.54-.02-.03.22.26.51.03.91-.22.4-.54.33-.54.33l.39.41s-.21.12-.5.17c-.29.07-.92-.01-1.28.13-.35.15-.65.21-.65.21,0,0-.51-.25-.67-.98-.15-.75-.84.03-1.11-.19-.28-.22.33-.64-.16-1.1-.48-.47-.94-.86-.94-.86l-.91-.3s-1.04-.21-1.92-.72c-.88-.52-1.01-.78-1.01-.78l-.16-.39-.99-.36s-1.33-.99-.76-1.45"/>
    <path class="cls-1" d="M202.85,306.53c.28,0,1.9.77,1.9.77,0,0-.57-1.71,0-1.52.57.19.95.09.95.09,0,0-1.14-1.99-.95-2.38.19-.38.19-.67.19-.67l-.67-.94s-1.23.76-1.23,1.71-.29.95-.29.95l.67.28-.57,1.42"/>
    <path class="cls-1" d="M198.1,298.46s.67.09.67.66,0,1.33-.1,1.71c-.09.38-.09.28-.47.95-.38.67-.38,1.9-1.14,1.33-.76-.57-.38-.85.09-1.8.48-.95.57-.85.57-1.43s-.09-.85.38-1.42Z"/>
    <path class="cls-1" d="M200.95,298.75s1.04.19,1.43.66c.38.48.38,1.61.38,2.09s-.28.76-.28.76c0,0-1.52-1.24-1.71-2-.18-.76-.09-1.14.19-1.51Z"/>
    <path class="cls-1" d="M202.75,298.46s.48-.29.95-.09c.47.19.75.38.75.85s.48,1.33.1,1.33-.67.28-.95-.19c-.28-.48-.76-.48-.85-1.04-.1-.57-.76.28,0-.85Z"/>
    <path class="cls-1" d="M201.05,295.51l-.47.86s.38.57.85.76c.48.19.38.76.95.19.57-.57.38-1.14,0-1.42-.38-.29-.95-.76-1.43-.67"/>
    <path class="cls-1" d="M198.67,296.09s1.24.48,1.43.75c.19.29.66.86.28,1.24-.37.38-1.42.48-1.61-.48-.19-.95-.77-.76-.1-1.52Z"/>
    <path class="cls-1" d="M199.91,295.61s.57-.57.38-1.52c-.19-.95.09-.86.09-1.23s.2-.66-.19-1.04c-.38-.38-1.23-1.52-1.23-1.52,0,0-.48-.38-1.04-.38s-1.23.28-.95.76c.29.47.39.47.29,1.04-.1.57-.57.85-.38,1.33.19.47,1.14.47,1.04,1.13-.09.67-.86.86-.09.95.76.09.76,1.14,2.09.47Z"/>
    <path class="cls-1" d="M201.9,304.16s.19.47.09.86c-.09.38-.47.95-.47.95,0,0-.57.38-.57-.57s-.19-1.52.85-1.52"/>
    <path class="cls-1" d="M207.46,328.29s1.12-.39,1.45-.23c.31.15.13,1.29.13,1.29l-.83,1.6s.07,2.17-.25,2.89c-.29.66-1.1,2.44-1.1,2.44l-1.13,1.31-.17,1.21.05.85-.89,1.64s-1.02,1.65-1.36,2.09c-.33.44-1.67,1.56-1.67,1.56,0,0-3.86,2.32-4.24,2.37-.39.05-2.6,1.03-3.03,1.33-.44.3-3.59,2.24-4.66,2.55-1.07.31-4.07.76-4.07.76l-2.2-.41-.55-1.11,2.09-.37.58-.4-2.5-.85.75-1.26s-3.18-.59-3.55-.66c-.36-.07-.95.32-.95.32l-2.22-.28-1.31.89s-1.39,0-2-.12c-.61-.12-1,.57-1.61.46-.61-.11-2.55-.6-2.55-.6l-.79.86s-.76-.01-.94-.43c-.18-.41-1.22-.98-1.22-.98,0,0,.36-.57,1.09-1.07.73-.5,1.45-1,1.45-1l.09-1.12-.76-.02-.25-.68s.89-.72.99-1.21c.09-.49.71-1.77.71-1.77l.12-.61-.54-.48.84-1.11,1.17-.16s1.22-.41,1.8-.18l.59.24s.96.3,1.85-.42c.9-.72,1.71-1.71,1.71-1.71,0,0,.18-.98.72-1.13.54-.14,2.05-.12,2.05-.12l-.22,1.22.37.08,1.14-.68s-.23-.81.6-1.16c.82-.35,1.5-.6,1.5-.6l.07-.37,2.37.19-.13,1.37.77-.75,1.22.23.68-.88.28-1.47s.34-.45,1.19-.92c.84-.47,3.1-.31,3.1-.31l.58-.4,1.44.4.43-.93.63-1.41.73-.5,1.84.35-.26.71.73.14.46-.42s.74.77,1.81.46c1.08-.31,2.38.19,2.38.19l-.11,1.24-.45,1.06-1.13-.09-1.11.55.08.9.57.36.78-.11.62.12-.25,1.34.85-.47s.75-.62,1.28-1.41c.53-.79,1.16-.8,1.37-1.9.21-1.1.49-1.13.81-1.62.32-.48.07.27.13-.74Z"/>
    <path class="cls-1" d="M198.07,351.71c-.39-.82,1.19-1.03,1.68-1.84.49-.82,2.66-.72,3.06-1.43.39-.72,4.04-1.44,3.95-1.85-.1-.4.79-1.12,1.38-.91.59.2-.59,1.23-1.29,1.94-.69.72-3.45,2.56-4.54,2.97-1.09.41-2.07.82-2.77,1.23-.69.41-1.09.71-1.48-.11Z"/>
    <path class="cls-1" d="M209.23,343.37s-.44.87-.33,1.53c.11.66.98-.22,1.42-.66.44-.44,1.31-.76,1.31-1.31s1.42-1.63.43-2.3c-.98-.66-1.42,1.31-1.85,1.75-.44.43-.54.65-.98.98Z"/>
    <path class="cls-1" d="M183.8,352.69s1.24-1.01,1.91-.33c.68.67.68,1.47-.22,1.47s-1.8.11-1.69-1.13Z"/>
  </g>
  <g>
    <path class="cls-1" d="M348.32,199.7v9.02h18.24v8.05h-18.24v16.46h-7.82v-41.58h27.96v8.05h-20.14Z"/>
    <path class="cls-1" d="M397.48,214.53v18.7h-7.45v-3.15c-1.96,2.54-5.07,3.87-8.03,3.87-5.81,0-10.31-4-10.31-9.99s5.02-10.41,11.36-10.41c2.22,0,4.65.54,6.98,1.57v-.61c0-3.33-1.8-6.24-6.29-6.24-2.54,0-4.92.97-7.08,2.24l-2.59-5.87c3.86-2.24,7.61-3.45,11.42-3.45,7.14,0,12,5.15,12,13.32ZM390.02,223.37v-2.91c-1.74-.73-3.75-1.15-5.87-1.15-2.8,0-5.02,1.88-5.02,4.42s1.96,4.12,4.6,4.12c2.96,0,5.76-1.57,6.29-4.48Z"/>
    <path class="cls-1" d="M401.92,217.56c0-8.9,6.87-16.34,14.96-16.34,4.44,0,8.09,2.06,10.73,5.33l-5.13,5.02c-1.38-1.76-3.54-2.91-5.66-2.91-4.02,0-7.4,4.06-7.4,8.84s3.38,9.02,7.45,9.02c2.11,0,4.33-1.21,5.76-3.03l5.13,4.96c-2.7,3.39-6.4,5.51-10.94,5.51-8.09,0-14.91-7.51-14.91-16.4Z"/>
    <path class="cls-1" d="M457.73,201.94v31.29h-7.72v-3.93c-1.64,2.84-4.7,4.66-8.25,4.66-5.92,0-10.15-5.02-10.15-12.11v-19.92h7.45v18.04c0,3.87,2.11,6.54,5.18,6.54,3.22,0,5.71-2.66,5.71-6.05l.05.18v-18.7h7.72Z"/>
    <path class="cls-1" d="M463.81,190.92h7.72v42.31h-7.72v-42.31Z"/>
    <path class="cls-1" d="M493.93,231.24c-1.58,1.63-4.07,2.72-6.29,2.72-4.81,0-8.19-3.93-8.19-9.56v-15.31h-3.75v-7.14h3.75v-8.6h7.4v8.6h5.92v7.14h-5.92v13.92c0,2.06,1.16,3.51,2.59,3.51,1.06,0,2.11-.42,2.64-1.03l1.85,5.75Z"/>
    <path class="cls-1" d="M497.58,242.19l1.64-6.05c1.32.85,2.7,1.39,3.59,1.39,1.48,0,2.64-.54,3.22-1.7l.95-2.3-11.36-31.6h7.98l7.19,21.97,6.82-21.97h7.88l-11.21,32.87c-2.06,6.11-5.55,9.32-9.83,9.32-2.27,0-5.02-.79-6.87-1.94Z"/>
    <path class="cls-1" d="M542.14,217.56c0-8.9,6.82-16.34,14.96-16.34s14.85,7.45,14.85,16.34-6.77,16.4-14.85,16.4-14.96-7.51-14.96-16.4ZM564.6,217.56c0-4.84-3.44-8.9-7.5-8.9s-7.56,4.06-7.56,8.9,3.44,8.96,7.56,8.96,7.5-4.12,7.5-8.96Z"/>
    <path class="cls-1" d="M585.8,201.94h5.92v7.14h-5.92v24.15h-7.4v-24.15h-3.75v-7.14h3.75v-2.72c0-5.63,3.38-9.56,8.19-9.56,2.22,0,4.71,1.09,6.29,2.72l-1.85,5.39c-.53-.61-1.59-1.03-2.64-1.03-1.43,0-2.59,1.45-2.59,3.51v1.69Z"/>
    <path class="cls-1" d="M364.81,299.34h-16.17l-2.33,6.54h-8.72l14.8-41.58h8.72l14.8,41.58h-8.77l-2.33-6.54ZM362.12,291.77l-5.39-15.19-5.39,15.19h10.78Z"/>
    <path class="cls-1" d="M407.57,263.56v42.31h-7.72v-4.48c-2.17,3.27-5.34,5.21-9.2,5.21-7.29,0-12.58-6.78-12.58-16.4s5.29-16.34,12.58-16.34c3.86,0,7.03,1.94,9.2,5.21v-15.5h7.72ZM399.85,290.2c0-5.21-2.91-8.9-6.98-8.9-4.28,0-7.29,3.69-7.29,8.9s3.01,8.96,7.29,8.96,6.98-3.69,6.98-8.96Z"/>
    <path class="cls-1" d="M411.11,274.58h8.09l7.35,21.13,7.19-21.13h8.03l-11.68,31.29h-7.14l-11.84-31.29Z"/>
    <path class="cls-1" d="M467.72,287.17v18.7h-7.45v-3.15c-1.96,2.54-5.07,3.87-8.03,3.87-5.81,0-10.31-4-10.31-9.99s5.02-10.41,11.36-10.41c2.22,0,4.65.54,6.98,1.57v-.61c0-3.33-1.8-6.24-6.29-6.24-2.54,0-4.92.97-7.08,2.24l-2.59-5.87c3.86-2.24,7.61-3.45,11.42-3.45,7.14,0,12,5.15,12,13.32ZM460.27,296.01v-2.91c-1.74-.73-3.75-1.15-5.87-1.15-2.8,0-5.02,1.88-5.02,4.42s1.96,4.12,4.6,4.12c2.96,0,5.76-1.57,6.29-4.48Z"/>
    <path class="cls-1" d="M499.64,285.96v19.92h-7.45v-18.04c0-3.87-2.11-6.54-5.18-6.54-3.22,0-5.71,2.66-5.71,6.05l-.05-.18v18.7h-7.72v-31.29h7.72v3.93c1.64-2.84,4.7-4.66,8.25-4.66,5.92,0,10.15,5.02,10.15,12.11Z"/>
    <path class="cls-1" d="M504.08,290.2c0-8.9,6.87-16.34,14.96-16.34,4.44,0,8.09,2.06,10.73,5.33l-5.13,5.02c-1.37-1.76-3.54-2.91-5.66-2.91-4.02,0-7.4,4.06-7.4,8.84s3.38,9.02,7.45,9.02c2.11,0,4.33-1.21,5.76-3.03l5.13,4.96c-2.7,3.39-6.4,5.51-10.94,5.51-8.09,0-14.91-7.51-14.91-16.4Z"/>
    <path class="cls-1" d="M553.24,296.01l4.92,5.75c-2.43,2.91-7.14,4.84-11.15,4.84-8.14,0-14.48-6.84-14.48-16.46s6.08-16.28,14.06-16.28c8.56,0,13.58,7.45,13.58,19.25h-19.72c.9,3.39,3.28,5.69,6.5,5.69,2.17,0,4.81-1.15,6.29-2.78ZM540.55,286.75h12.21c-.74-3.09-2.75-5.08-5.87-5.08-2.91,0-5.34,1.94-6.34,5.08Z"/>
    <path class="cls-1" d="M592.98,263.56v42.31h-7.72v-4.48c-2.17,3.27-5.34,5.21-9.2,5.21-7.29,0-12.58-6.78-12.58-16.4s5.29-16.34,12.58-16.34c3.86,0,7.03,1.94,9.2,5.21v-15.5h7.72ZM585.27,290.2c0-5.21-2.91-8.9-6.98-8.9-4.28,0-7.29,3.69-7.29,8.9s3.01,8.96,7.29,8.96,6.98-3.69,6.98-8.96Z"/>
    <path class="cls-1" d="M611.27,299.7l4.49-6.11c3.44,3.39,7.35,5.45,11.95,5.45,3.91,0,5.92-2.06,5.92-4.66,0-2.97-2.11-3.87-7.66-5.33-7.66-2-13.11-4.48-13.11-12.53s5.5-12.95,13.42-12.95c5.92,0,10.52,2.12,14.22,5.75l-4.07,6.42c-3.22-2.97-6.87-4.6-10.36-4.6s-5.34,2-5.34,4.48c0,3.03,2.17,4,7.77,5.45,7.82,2,13,4.66,13,12.35s-5.23,13.2-14.11,13.2c-6.29,0-11.89-2.42-16.12-6.9Z"/>
    <path class="cls-1" d="M644.83,290.2c0-8.9,6.87-16.34,14.96-16.34,4.44,0,8.09,2.06,10.73,5.33l-5.13,5.02c-1.37-1.76-3.54-2.91-5.66-2.91-4.02,0-7.4,4.06-7.4,8.84s3.38,9.02,7.45,9.02c2.11,0,4.33-1.21,5.76-3.03l5.13,4.96c-2.7,3.39-6.4,5.51-10.94,5.51-8.09,0-14.91-7.51-14.91-16.4Z"/>
    <path class="cls-1" d="M674.43,265.44c0-2.48,1.85-4.72,4.23-4.72s4.12,2.24,4.12,4.72c0,2.66-1.85,4.84-4.12,4.84s-4.23-2.18-4.23-4.84ZM674.75,274.58h7.72v31.29h-7.72v-31.29Z"/>
    <path class="cls-1" d="M707.83,296.01l4.92,5.75c-2.43,2.91-7.14,4.84-11.15,4.84-8.14,0-14.48-6.84-14.48-16.46s6.08-16.28,14.06-16.28c8.56,0,13.58,7.45,13.58,19.25h-19.72c.9,3.39,3.28,5.69,6.5,5.69,2.17,0,4.81-1.15,6.29-2.78ZM695.15,286.75h12.21c-.74-3.09-2.75-5.08-5.87-5.08-2.91,0-5.34,1.94-6.34,5.08Z"/>
    <path class="cls-1" d="M745.42,285.96v19.92h-7.45v-18.04c0-3.87-2.11-6.54-5.18-6.54-3.22,0-5.71,2.66-5.71,6.05l-.05-.18v18.7h-7.72v-31.29h7.72v3.93c1.64-2.84,4.7-4.66,8.25-4.66,5.92,0,10.15,5.02,10.15,12.11Z"/>
    <path class="cls-1" d="M749.85,290.2c0-8.9,6.87-16.34,14.96-16.34,4.44,0,8.09,2.06,10.73,5.33l-5.13,5.02c-1.37-1.76-3.54-2.91-5.66-2.91-4.02,0-7.4,4.06-7.4,8.84s3.38,9.02,7.45,9.02c2.11,0,4.33-1.21,5.76-3.03l5.13,4.96c-2.7,3.39-6.4,5.51-10.94,5.51-8.09,0-14.91-7.51-14.91-16.4Z"/>
    <path class="cls-1" d="M799.01,296.01l4.92,5.75c-2.43,2.91-7.14,4.84-11.15,4.84-8.14,0-14.48-6.84-14.48-16.46s6.08-16.28,14.06-16.28c8.56,0,13.58,7.45,13.58,19.25h-19.72c.9,3.39,3.28,5.69,6.5,5.69,2.17,0,4.81-1.15,6.29-2.78ZM786.32,286.75h12.21c-.74-3.09-2.75-5.08-5.87-5.08-2.91,0-5.34,1.94-6.34,5.08Z"/>
    <path class="cls-1" d="M364.5,359.81v18.7h-7.45v-3.15c-1.96,2.54-5.07,3.87-8.03,3.87-5.81,0-10.31-4-10.31-9.99s5.02-10.41,11.36-10.41c2.22,0,4.65.54,6.98,1.57v-.61c0-3.33-1.8-6.24-6.29-6.24-2.54,0-4.92.97-7.08,2.24l-2.59-5.87c3.86-2.24,7.61-3.45,11.42-3.45,7.14,0,12,5.15,12,13.32ZM357.04,368.65v-2.91c-1.74-.73-3.75-1.15-5.87-1.15-2.8,0-5.02,1.88-5.02,4.42s1.96,4.12,4.6,4.12c2.96,0,5.76-1.57,6.29-4.48Z"/>
    <path class="cls-1" d="M396.42,358.6v19.92h-7.45v-18.04c0-3.87-2.11-6.54-5.18-6.54-3.22,0-5.71,2.66-5.71,6.05l-.05-.18v18.7h-7.72v-31.29h7.72v3.93c1.64-2.84,4.7-4.66,8.25-4.66,5.92,0,10.15,5.02,10.15,12.11Z"/>
    <path class="cls-1" d="M430.51,336.2v42.31h-7.72v-4.48c-2.17,3.27-5.34,5.21-9.2,5.21-7.29,0-12.58-6.78-12.58-16.4s5.29-16.34,12.58-16.34c3.86,0,7.03,1.94,9.2,5.21v-15.5h7.72ZM422.79,362.84c0-5.21-2.91-8.9-6.98-8.9-4.28,0-7.29,3.69-7.29,8.9s3.01,8.96,7.29,8.96,6.98-3.69,6.98-8.96Z"/>
    <path class="cls-1" d="M460.58,344.98h-11.31v-8.05h30.45v8.05h-11.31v33.53h-7.82v-33.53Z"/>
    <path class="cls-1" d="M503.4,368.65l4.92,5.75c-2.43,2.91-7.14,4.84-11.15,4.84-8.14,0-14.48-6.84-14.48-16.46s6.08-16.28,14.06-16.28c8.56,0,13.58,7.45,13.58,19.25h-19.72c.9,3.39,3.28,5.69,6.5,5.69,2.17,0,4.81-1.15,6.29-2.78ZM490.71,359.39h12.21c-.74-3.09-2.75-5.08-5.87-5.08-2.91,0-5.34,1.94-6.34,5.08Z"/>
    <path class="cls-1" d="M513.49,362.84c0-8.9,6.87-16.34,14.96-16.34,4.44,0,8.09,2.06,10.73,5.33l-5.13,5.02c-1.37-1.76-3.54-2.91-5.66-2.91-4.02,0-7.4,4.06-7.4,8.84s3.38,9.02,7.45,9.02c2.11,0,4.33-1.21,5.76-3.03l5.13,4.96c-2.7,3.39-6.4,5.51-10.94,5.51-8.09,0-14.91-7.51-14.91-16.4Z"/>
    <path class="cls-1" d="M569.41,358.6v19.92h-7.45v-18.04c0-3.87-2.11-6.54-5.18-6.54-3.22,0-5.71,2.66-5.71,6.05v18.52h-7.72v-42.31h7.72v14.83c1.69-2.72,4.7-4.54,8.19-4.54,5.92,0,10.15,5.02,10.15,12.11Z"/>
    <path class="cls-1" d="M601.33,358.6v19.92h-7.45v-18.04c0-3.87-2.11-6.54-5.18-6.54-3.22,0-5.71,2.66-5.71,6.05l-.05-.18v18.7h-7.72v-31.29h7.72v3.93c1.64-2.84,4.7-4.66,8.25-4.66,5.92,0,10.15,5.02,10.15,12.11Z"/>
    <path class="cls-1" d="M605.77,362.84c0-8.9,6.82-16.34,14.96-16.34s14.85,7.45,14.85,16.34-6.77,16.4-14.85,16.4-14.96-7.51-14.96-16.4ZM628.24,362.84c0-4.84-3.44-8.9-7.5-8.9s-7.56,4.06-7.56,8.9,3.44,8.96,7.56,8.96,7.5-4.12,7.5-8.96Z"/>
    <path class="cls-1" d="M640.29,336.2h7.72v42.31h-7.72v-42.31Z"/>
    <path class="cls-1" d="M652.66,362.84c0-8.9,6.82-16.34,14.96-16.34s14.85,7.45,14.85,16.34-6.77,16.4-14.85,16.4-14.96-7.51-14.96-16.4ZM675.12,362.84c0-4.84-3.44-8.9-7.5-8.9s-7.56,4.06-7.56,8.9,3.44,8.96,7.56,8.96,7.5-4.12,7.5-8.96Z"/>
    <path class="cls-1" d="M714.71,347.22v27.97c0,8.05-6.08,13.74-14.69,13.74-4.81,0-9.36-1.75-12.05-4.18l2.7-6.23c1.8,1.82,4.97,2.97,8.14,2.97,4.97,0,8.14-2.6,8.14-6.66v-3.45c-2.17,3.03-5.44,4.84-9.04,4.84-6.87,0-12.1-6.17-12.1-14.89s5.23-14.83,12.1-14.83c3.7,0,7.19,2,9.04,4.96v-4.24h7.77ZM706.94,361.32c0-4.36-2.75-7.38-6.61-7.38s-6.61,3.03-6.61,7.38,2.75,7.45,6.61,7.45,6.61-3.09,6.61-7.45Z"/>
    <path class="cls-1" d="M720.31,387.47l1.64-6.05c1.32.85,2.7,1.39,3.59,1.39,1.48,0,2.64-.54,3.22-1.7l.95-2.3-11.36-31.6h7.98l7.19,21.97,6.82-21.97h7.88l-11.21,32.87c-2.06,6.11-5.55,9.32-9.83,9.32-2.27,0-5.02-.79-6.87-1.94Z"/>
  </g>
</svg>